<svg width="321" height="137" viewBox="0 0 321 137" fill="none" xmlns="http://www.w3.org/2000/svg">
<g opacity="0.6">
<path d="M89.641 93.9396L44.5997 119.925L0.00390625 93.9396L44.8472 68.0532L89.641 93.9396Z" fill="url(#paint0_linear_4655_8054)"/>
<g clip-path="url(#clip0_4655_8054)">
<path d="M44.8403 68.1538V100.152L72.525 84.1528V52.1548L44.8403 68.1538Z" fill="url(#paint1_linear_4655_8054)"/>
<path d="M44.8393 68.1538V100.152L17.124 84.1528V52.1548L44.8393 68.1538Z" fill="url(#paint2_linear_4655_8054)"/>
<path d="M72.524 52.1545L44.6863 68.2147L17.124 52.1545L44.8393 36.1555L72.524 52.1545Z" fill="url(#paint3_linear_4655_8054)"/>
</g>
<g clip-path="url(#clip1_4655_8054)">
<path d="M44.981 68.1521V119.925L89.7748 94.0384V42.2657L44.981 68.1521Z" fill="url(#paint4_linear_4655_8054)"/>
<path d="M89.6405 42.2658L44.5992 68.2511L0.00341797 42.2658L44.8467 16.3794L89.6405 42.2658Z" fill="url(#paint5_linear_4655_8054)"/>
<path d="M44.8467 68.1521V119.925L0.00341797 94.0384V42.2657L44.8467 68.1521Z" fill="url(#paint6_linear_4655_8054)"/>
</g>
</g>
<g opacity="0.6">
<path d="M219.179 102.099L159.885 136.308L101.176 102.099L160.21 68.0212L219.179 102.099Z" fill="url(#paint7_linear_4655_8054)"/>
<g clip-path="url(#clip2_4655_8054)">
<path d="M160.195 68.1532V110.277L196.641 89.2151V47.0913L160.195 68.1532Z" fill="url(#paint8_linear_4655_8054)"/>
<path d="M160.195 68.1532V110.277L123.709 89.2151V47.0913L160.195 68.1532Z" fill="url(#paint9_linear_4655_8054)"/>
<path d="M196.64 47.0912L159.993 68.2337L123.709 47.0912L160.195 26.0293L196.64 47.0912Z" fill="url(#paint10_linear_4655_8054)"/>
</g>
<g clip-path="url(#clip3_4655_8054)">
<path d="M160.379 68.1514V136.308L219.348 102.23V34.0733L160.379 68.1514Z" fill="url(#paint11_linear_4655_8054)"/>
<path d="M219.179 34.0734L159.885 68.2819L101.176 34.0734L160.21 -0.00473022L219.179 34.0734Z" fill="url(#paint12_linear_4655_8054)"/>
<path d="M160.21 68.1514V136.308L101.176 102.23V34.0733L160.21 68.1514Z" fill="url(#paint13_linear_4655_8054)"/>
</g>
</g>
<g opacity="0.6">
<path d="M320.347 93.9403L275.306 119.926L230.71 93.9403L275.553 68.0539L320.347 93.9403Z" fill="url(#paint14_linear_4655_8054)"/>
<g clip-path="url(#clip4_4655_8054)">
<path d="M275.552 68.154V100.152L303.236 84.1529V52.155L275.552 68.154Z" fill="url(#paint15_linear_4655_8054)"/>
<path d="M275.546 68.154V100.152L247.831 84.1529V52.155L275.546 68.154Z" fill="url(#paint16_linear_4655_8054)"/>
<path d="M303.231 52.1541L275.393 68.2143L247.831 52.1541L275.546 36.1551L303.231 52.1541Z" fill="url(#paint17_linear_4655_8054)"/>
</g>
<g clip-path="url(#clip5_4655_8054)">
<path d="M275.689 68.1521V119.925L320.483 94.0384V42.2657L275.689 68.1521Z" fill="url(#paint18_linear_4655_8054)"/>
<path d="M320.353 42.2658L275.312 68.2511L230.716 42.2658L275.56 16.3794L320.353 42.2658Z" fill="url(#paint19_linear_4655_8054)"/>
<path d="M275.56 68.1521V119.925L230.716 94.0384V42.2657L275.56 68.1521Z" fill="url(#paint20_linear_4655_8054)"/>
</g>
</g>
<defs>
<linearGradient id="paint0_linear_4655_8054" x1="44.8218" y1="119.997" x2="44.8218" y2="67.9675" gradientUnits="userSpaceOnUse">
<stop offset="0.492698" stop-color="#1756FD" stop-opacity="0"/>
<stop offset="1" stop-color="#05FCC1"/>
</linearGradient>
<linearGradient id="paint1_linear_4655_8054" x1="62.3707" y1="90.0158" x2="40.1225" y2="82.9032" gradientUnits="userSpaceOnUse">
<stop stop-color="#DB74FF"/>
<stop offset="1" stop-color="#D245E8"/>
</linearGradient>
<linearGradient id="paint2_linear_4655_8054" x1="17.124" y1="52.1548" x2="58.4743" y2="72.6723" gradientUnits="userSpaceOnUse">
<stop stop-color="#DB74FF"/>
<stop offset="1" stop-color="#8000FF"/>
</linearGradient>
<linearGradient id="paint3_linear_4655_8054" x1="44.8236" y1="36.1555" x2="44.8236" y2="68.2064" gradientUnits="userSpaceOnUse">
<stop stop-color="#D245E8"/>
<stop offset="1" stop-color="#7479FF"/>
</linearGradient>
<linearGradient id="paint4_linear_4655_8054" x1="89.7748" y1="94.6877" x2="44.981" y2="68.1036" gradientUnits="userSpaceOnUse">
<stop stop-color="#05FCC1"/>
<stop offset="1" stop-color="#1756FD" stop-opacity="0"/>
</linearGradient>
<linearGradient id="paint5_linear_4655_8054" x1="44.8213" y1="68.2511" x2="44.8213" y2="16.2937" gradientUnits="userSpaceOnUse">
<stop stop-color="#05FCC1"/>
<stop offset="1" stop-color="#1756FD" stop-opacity="0"/>
</linearGradient>
<linearGradient id="paint6_linear_4655_8054" x1="44.8467" y1="119.925" x2="0.00342807" y2="42.2657" gradientUnits="userSpaceOnUse">
<stop stop-color="#1756FD" stop-opacity="0"/>
<stop offset="1" stop-color="#05FCC1"/>
</linearGradient>
<linearGradient id="paint7_linear_4655_8054" x1="160.177" y1="136.403" x2="160.177" y2="67.9084" gradientUnits="userSpaceOnUse">
<stop offset="0.492698" stop-color="#1756FD" stop-opacity="0"/>
<stop offset="1" stop-color="#05FCC1"/>
</linearGradient>
<linearGradient id="paint8_linear_4655_8054" x1="183.273" y1="96.9334" x2="153.985" y2="87.57" gradientUnits="userSpaceOnUse">
<stop stop-color="#DB74FF"/>
<stop offset="1" stop-color="#D245E8"/>
</linearGradient>
<linearGradient id="paint9_linear_4655_8054" x1="123.709" y1="47.0913" x2="178.145" y2="74.1015" gradientUnits="userSpaceOnUse">
<stop stop-color="#DB74FF"/>
<stop offset="1" stop-color="#8000FF"/>
</linearGradient>
<linearGradient id="paint10_linear_4655_8054" x1="160.174" y1="26.0293" x2="160.174" y2="68.2227" gradientUnits="userSpaceOnUse">
<stop stop-color="#D245E8"/>
<stop offset="1" stop-color="#7479FF"/>
</linearGradient>
<linearGradient id="paint11_linear_4655_8054" x1="219.348" y1="103.084" x2="160.379" y2="68.0877" gradientUnits="userSpaceOnUse">
<stop stop-color="#05FCC1"/>
<stop offset="1" stop-color="#1756FD" stop-opacity="0"/>
</linearGradient>
<linearGradient id="paint12_linear_4655_8054" x1="160.177" y1="68.2819" x2="160.177" y2="-0.117551" gradientUnits="userSpaceOnUse">
<stop stop-color="#05FCC1"/>
<stop offset="1" stop-color="#1756FD" stop-opacity="0"/>
</linearGradient>
<linearGradient id="paint13_linear_4655_8054" x1="160.21" y1="136.308" x2="101.176" y2="34.0733" gradientUnits="userSpaceOnUse">
<stop stop-color="#1756FD" stop-opacity="0"/>
<stop offset="1" stop-color="#05FCC1"/>
</linearGradient>
<linearGradient id="paint14_linear_4655_8054" x1="275.528" y1="119.998" x2="275.528" y2="67.9682" gradientUnits="userSpaceOnUse">
<stop offset="0.492698" stop-color="#1756FD" stop-opacity="0"/>
<stop offset="1" stop-color="#05FCC1"/>
</linearGradient>
<linearGradient id="paint15_linear_4655_8054" x1="293.082" y1="90.016" x2="270.834" y2="82.9034" gradientUnits="userSpaceOnUse">
<stop stop-color="#DB74FF"/>
<stop offset="1" stop-color="#D245E8"/>
</linearGradient>
<linearGradient id="paint16_linear_4655_8054" x1="247.831" y1="52.155" x2="289.181" y2="72.6724" gradientUnits="userSpaceOnUse">
<stop stop-color="#DB74FF"/>
<stop offset="1" stop-color="#8000FF"/>
</linearGradient>
<linearGradient id="paint17_linear_4655_8054" x1="275.531" y1="36.1551" x2="275.531" y2="68.206" gradientUnits="userSpaceOnUse">
<stop stop-color="#D245E8"/>
<stop offset="1" stop-color="#7479FF"/>
</linearGradient>
<linearGradient id="paint18_linear_4655_8054" x1="320.483" y1="94.6877" x2="275.689" y2="68.1036" gradientUnits="userSpaceOnUse">
<stop stop-color="#05FCC1"/>
<stop offset="1" stop-color="#1756FD" stop-opacity="0"/>
</linearGradient>
<linearGradient id="paint19_linear_4655_8054" x1="275.534" y1="68.2511" x2="275.534" y2="16.2937" gradientUnits="userSpaceOnUse">
<stop stop-color="#05FCC1"/>
<stop offset="1" stop-color="#1756FD" stop-opacity="0"/>
</linearGradient>
<linearGradient id="paint20_linear_4655_8054" x1="275.56" y1="119.925" x2="230.716" y2="42.2657" gradientUnits="userSpaceOnUse">
<stop stop-color="#1756FD" stop-opacity="0"/>
<stop offset="1" stop-color="#05FCC1"/>
</linearGradient>
<clipPath id="clip0_4655_8054">
<rect width="55.3999" height="63.996" fill="white" transform="translate(17.1196 36.1574)"/>
</clipPath>
<clipPath id="clip1_4655_8054">
<rect width="89.6371" height="103.545" fill="white" transform="translate(0 16.3836)"/>
</clipPath>
<clipPath id="clip2_4655_8054">
<rect width="72.9313" height="84.2476" fill="white" transform="translate(123.702 26.0322)"/>
</clipPath>
<clipPath id="clip3_4655_8054">
<rect width="118.003" height="136.313" fill="white" transform="translate(101.168)"/>
</clipPath>
<clipPath id="clip4_4655_8054">
<rect width="55.3999" height="63.996" fill="white" transform="translate(247.826 36.1576)"/>
</clipPath>
<clipPath id="clip5_4655_8054">
<rect width="89.6371" height="103.545" fill="white" transform="translate(230.705 16.3835)"/>
</clipPath>
</defs>
</svg>
