<svg width="207" height="108" viewBox="0 0 207 108" fill="none" xmlns="http://www.w3.org/2000/svg">
<path d="M206.204 102.925C206.107 46.0678 159.983 0 103.102 0C46.2209 0 0.0965061 46.0678 0 102.925H206.204Z" fill="url(#paint0_linear_4655_8100)"/>
<path d="M196.233 103.082C196.221 51.7397 154.447 9.97247 103.101 9.97247C51.7552 9.97247 9.98131 51.7397 9.97021 103.082H196.233Z" fill="#1D122E"/>
<g opacity="0.4" style="mix-blend-mode:color-dodge">
<path d="M151.975 102.949C151.89 76.027 130.042 54.2266 103.101 54.2266C76.1604 54.2266 54.3123 76.0281 54.228 102.949H151.974H151.975Z" fill="url(#paint1_linear_4655_8100)"/>
</g>
<path d="M145.268 30.0501L131.265 54.2964C122.709 49.336 112.991 46.7297 103.101 46.7423V18.7567C118.462 18.7567 132.868 22.872 145.268 30.0501Z" fill="#E66AA8"/>
<path d="M187.432 103.089H159.445C159.445 92.827 156.681 83.2108 151.891 74.9257L176.139 60.9234C183.318 73.3228 187.432 87.7277 187.432 103.089Z" fill="#FB965C"/>
<path d="M54.2976 74.9257C49.3372 83.4822 46.7308 93.1995 46.7435 103.09H18.7578C18.7578 87.7288 22.8732 73.3228 30.0512 60.9234L54.2976 74.9257Z" fill="#3A9FFB"/>
<path d="M176.137 60.9234L151.89 74.9256C146.937 66.3633 139.824 59.2503 131.261 54.2966L145.264 30.0503C158.077 37.465 168.722 48.11 176.137 60.9234Z" fill="#F48777"/>
<path d="M103.099 18.7567V46.7434C92.8276 46.7434 83.2102 49.4977 74.9251 54.2975L60.9229 30.0501C73.3222 22.8709 87.7282 18.7567 103.098 18.7567H103.099Z" fill="#CC3DFB"/>
<path d="M74.9251 54.2966C66.3629 59.2504 59.2499 66.3634 54.2961 74.9256L30.0498 60.9234C37.4645 48.11 48.1095 37.465 60.9229 30.0503L74.9251 54.2966Z" fill="#886AFB"/>
<path d="M113.544 99.022C112.769 104.095 108.387 107.981 103.098 107.981C97.2606 107.981 92.5285 103.25 92.5283 97.4127C92.5283 91.5755 97.2605 86.8433 103.098 86.8433C104.287 86.8433 105.43 87.0425 106.497 87.4048L155.695 65.4293L113.544 99.022Z" fill="white"/>
<defs>
<linearGradient id="paint0_linear_4655_8100" x1="206.204" y1="69.4775" x2="153.084" y2="-40.0199" gradientUnits="userSpaceOnUse">
<stop stop-color="#05FCC1"/>
<stop offset="1" stop-color="#1756FD" stop-opacity="0"/>
</linearGradient>
<linearGradient id="paint1_linear_4655_8100" x1="106.127" y1="61.124" x2="103.362" y2="98.5862" gradientUnits="userSpaceOnUse">
<stop stop-color="#C900B5" stop-opacity="0"/>
<stop offset="1" stop-color="#C900B5"/>
</linearGradient>
</defs>
</svg>
