<svg width="572" height="362" viewBox="9.26758 4.63379 572 362" fill="none" xmlns="http://www.w3.org/2000/svg">
<rect width="572" height="362" transform="translate(9.26758 4.63379)" fill="url(#paint0_radial_4611_10186)"/>
<g filter="url(#filter0_d_4611_10186)">
<g clip-path="url(#clip0_4611_10186)">
<rect x="9.26758" y="4.63379" width="572" height="362" rx="16" fill="url(#paint1_radial_4611_10186)" fill-opacity="0.9" shape-rendering="crispEdges"/>
<g filter="url(#filter1_d_4611_10186)">
<g clip-path="url(#clip1_4611_10186)">
<rect width="572" height="376.191" transform="translate(9.26758 -2.46143)" fill="url(#paint2_radial_4611_10186)" fill-opacity="0.9"/>
<g opacity="0.4">
<rect width="572" height="376.191" transform="translate(9.26758 -2.46289)" fill="url(#paint3_radial_4611_10186)"/>
</g>
<g style="mix-blend-mode:color-dodge">
<path d="M72.9114 55.6312L-26.2152 112.82L-124.361 55.6312L-25.6705 -1.33936L72.9114 55.6312Z" fill="url(#paint4_linear_4611_10186)"/>
<g clip-path="url(#clip2_4611_10186)">
<path d="M-25.6768 -1.11229V69.3086L35.2515 34.0982V-36.3228L-25.6768 -1.11229Z" fill="url(#paint5_linear_4611_10186)"/>
</g>
<g clip-path="url(#clip3_4611_10186)">
<path d="M-25.7998 -1.11653V112.973L72.7783 55.9281V-58.1611L-25.7998 -1.11653Z" fill="url(#paint6_linear_4611_10186)"/>
</g>
</g>
<g style="mix-blend-mode:color-dodge">
<path d="M286.448 55.6312L187.321 112.82L89.1748 55.6312L187.866 -1.33936L286.448 55.6312Z" fill="url(#paint7_linear_4611_10186)"/>
<g clip-path="url(#clip4_4611_10186)">
<path d="M187.861 -1.11229V69.3086L248.79 34.0982V-36.3228L187.861 -1.11229Z" fill="url(#paint8_linear_4611_10186)"/>
<path d="M187.858 -1.11229V69.3086L126.862 34.0982V-36.3228L187.858 -1.11229Z" fill="url(#paint9_linear_4611_10186)"/>
</g>
<g clip-path="url(#clip5_4611_10186)">
<path d="M187.738 -1.11653V112.973L286.316 55.9281V-58.1611L187.738 -1.11653Z" fill="url(#paint10_linear_4611_10186)"/>
<path d="M187.76 -1.11653V112.973L89.0732 55.9281V-58.1611L187.76 -1.11653Z" fill="url(#paint11_linear_4611_10186)"/>
</g>
</g>
<g style="mix-blend-mode:color-dodge">
<path d="M500.14 55.7703L401.013 112.959L302.867 55.7703L401.558 -1.2002L500.14 55.7703Z" fill="url(#paint12_linear_4611_10186)"/>
<g clip-path="url(#clip6_4611_10186)">
<path d="M401.554 -0.975088V69.4458L462.482 34.2354V-36.1855L401.554 -0.975088Z" fill="url(#paint13_linear_4611_10186)"/>
<path d="M401.553 -0.975088V69.4458L340.558 34.2354V-36.1855L401.553 -0.975088Z" fill="url(#paint14_linear_4611_10186)"/>
</g>
<g clip-path="url(#clip7_4611_10186)">
<path d="M401.281 -1.11653V112.973L499.859 55.9281V-58.1611L401.281 -1.11653Z" fill="url(#paint15_linear_4611_10186)"/>
<path d="M401.304 -1.11653V112.973L302.617 55.9281V-58.1611L401.304 -1.11653Z" fill="url(#paint16_linear_4611_10186)"/>
</g>
</g>
<g style="mix-blend-mode:color-dodge">
<path d="M713.831 55.7703L614.705 112.959L516.559 55.7703L615.249 -1.2002L713.831 55.7703Z" fill="url(#paint17_linear_4611_10186)"/>
<g clip-path="url(#clip8_4611_10186)">
<path d="M615.247 -0.975088V69.4458L554.251 34.2354V-36.1855L615.247 -0.975088Z" fill="url(#paint18_linear_4611_10186)"/>
</g>
<g clip-path="url(#clip9_4611_10186)">
<path d="M614.991 -1.11653V112.973L516.304 55.9281V-58.1611L614.991 -1.11653Z" fill="url(#paint19_linear_4611_10186)"/>
</g>
</g>
<g style="mix-blend-mode:color-dodge">
<path d="M180.53 241.697L81.403 298.885L-16.7432 241.697L81.9477 184.726L180.53 241.697Z" fill="url(#paint20_linear_4611_10186)"/>
<g clip-path="url(#clip10_4611_10186)">
<path d="M81.9443 184.952V255.373L142.873 220.162V149.741L81.9443 184.952Z" fill="url(#paint21_linear_4611_10186)"/>
<path d="M81.9399 184.952V255.373L20.9443 220.162V149.741L81.9399 184.952Z" fill="url(#paint22_linear_4611_10186)"/>
<path d="M142.868 149.739L81.6033 185.084L20.9443 149.739L81.9399 114.529L142.868 149.739Z" fill="url(#paint23_linear_4611_10186)"/>
</g>
<g clip-path="url(#clip11_4611_10186)">
<path d="M81.8232 184.948V299.037L180.401 241.993V127.903L81.8232 184.948Z" fill="url(#paint24_linear_4611_10186)"/>
<path d="M180.42 127.628L81.2976 184.891L-16.8447 127.628L81.8423 70.5835L180.42 127.628Z" fill="url(#paint25_linear_4611_10186)"/>
<path d="M81.8423 184.948V299.037L-16.8447 241.993V127.903L81.8423 184.948Z" fill="url(#paint26_linear_4611_10186)"/>
</g>
</g>
<g style="mix-blend-mode:color-dodge">
<path d="M606.777 241.697L507.65 298.885L409.504 241.697L508.195 184.726L606.777 241.697Z" fill="url(#paint27_linear_4611_10186)"/>
<g clip-path="url(#clip12_4611_10186)">
<path d="M508.191 184.952V255.373L569.12 220.162V149.741L508.191 184.952Z" fill="url(#paint28_linear_4611_10186)"/>
<path d="M508.188 184.952V255.373L447.192 220.162V149.741L508.188 184.952Z" fill="url(#paint29_linear_4611_10186)"/>
<path d="M569.116 149.739L507.851 185.084L447.192 149.739L508.188 114.529L569.116 149.739Z" fill="url(#paint30_linear_4611_10186)"/>
</g>
<g clip-path="url(#clip13_4611_10186)">
<path d="M508.069 184.948V299.037L606.647 241.993V127.903L508.069 184.948Z" fill="url(#paint31_linear_4611_10186)"/>
<path d="M606.665 127.628L507.543 184.891L409.4 127.628L508.087 70.5835L606.665 127.628Z" fill="url(#paint32_linear_4611_10186)"/>
<path d="M508.087 184.948V299.037L409.4 241.993V127.903L508.087 184.948Z" fill="url(#paint33_linear_4611_10186)"/>
</g>
</g>
<g style="mix-blend-mode:color-dodge">
<g clip-path="url(#clip14_4611_10186)">
<path d="M-25.6768 371.23V441.651L35.2515 406.441V336.02L-25.6768 371.23Z" fill="url(#paint34_linear_4611_10186)"/>
<path d="M35.248 336.018L-26.0168 371.363L-86.6758 336.018L-25.6802 300.808L35.248 336.018Z" fill="url(#paint35_linear_4611_10186)"/>
</g>
<g clip-path="url(#clip15_4611_10186)">
<path d="M-25.7998 371.226V485.315L72.7783 428.271V314.182L-25.7998 371.226Z" fill="url(#paint36_linear_4611_10186)"/>
<path d="M72.8012 313.907L-26.3215 371.17L-124.464 313.907L-25.7769 256.862L72.8012 313.907Z" fill="url(#paint37_linear_4611_10186)"/>
</g>
</g>
<g style="mix-blend-mode:color-dodge">
<g clip-path="url(#clip16_4611_10186)">
<path d="M187.861 371.23V441.651L248.79 406.441V336.02L187.861 371.23Z" fill="url(#paint38_linear_4611_10186)"/>
<path d="M187.858 371.23V441.651L126.862 406.441V336.02L187.858 371.23Z" fill="url(#paint39_linear_4611_10186)"/>
<path d="M248.786 336.018L187.521 371.363L126.862 336.018L187.858 300.808L248.786 336.018Z" fill="url(#paint40_linear_4611_10186)"/>
</g>
<g clip-path="url(#clip17_4611_10186)">
<path d="M187.738 371.226V485.315L286.316 428.271V314.182L187.738 371.226Z" fill="url(#paint41_linear_4611_10186)"/>
<path d="M286.338 313.907L187.216 371.17L89.0732 313.907L187.76 256.862L286.338 313.907Z" fill="url(#paint42_linear_4611_10186)"/>
<path d="M187.76 371.226V485.315L89.0732 428.271V314.182L187.76 371.226Z" fill="url(#paint43_linear_4611_10186)"/>
</g>
</g>
<g style="mix-blend-mode:color-dodge">
<g clip-path="url(#clip18_4611_10186)">
<path d="M401.554 371.368V441.789L462.482 406.578V336.157L401.554 371.368Z" fill="url(#paint44_linear_4611_10186)"/>
<path d="M401.553 371.368V441.789L340.558 406.578V336.157L401.553 371.368Z" fill="url(#paint45_linear_4611_10186)"/>
<path d="M462.481 336.156L401.217 371.501L340.558 336.156L401.553 300.945L462.481 336.156Z" fill="url(#paint46_linear_4611_10186)"/>
</g>
<g clip-path="url(#clip19_4611_10186)">
<path d="M401.281 371.226V485.315L499.859 428.271V314.182L401.281 371.226Z" fill="url(#paint47_linear_4611_10186)"/>
<path d="M499.882 313.907L400.76 371.17L302.617 313.907L401.304 256.862L499.882 313.907Z" fill="url(#paint48_linear_4611_10186)"/>
<path d="M401.304 371.226V485.315L302.617 428.271V314.182L401.304 371.226Z" fill="url(#paint49_linear_4611_10186)"/>
</g>
</g>
<g style="mix-blend-mode:color-dodge">
<g clip-path="url(#clip20_4611_10186)">
<path d="M615.247 371.368V441.789L554.251 406.578V336.157L615.247 371.368Z" fill="url(#paint50_linear_4611_10186)"/>
<path d="M676.175 336.156L614.91 371.501L554.251 336.156L615.247 300.945L676.175 336.156Z" fill="url(#paint51_linear_4611_10186)"/>
</g>
<g clip-path="url(#clip21_4611_10186)">
<path d="M713.569 313.907L614.446 371.17L516.304 313.907L614.991 256.862L713.569 313.907Z" fill="url(#paint52_linear_4611_10186)"/>
<path d="M614.991 371.226V485.315L516.304 428.271V314.182L614.991 371.226Z" fill="url(#paint53_linear_4611_10186)"/>
</g>
</g>
<g filter="url(#filter2_f_4611_10186)" style="mix-blend-mode:lighten">
<ellipse cx="294.586" cy="184.842" rx="157.917" ry="157.917" transform="rotate(180 294.586 184.842)" fill="#400078"/>
</g>
<path d="M393.549 127.819L294.88 184.743L294.965 184.792V298.735L196.272 241.764V127.82V127.819L294.965 70.8477L393.549 127.819ZM393.55 241.764L294.966 298.735V184.792L393.55 127.82V241.764Z" fill="url(#paint54_radial_4611_10186)" fill-opacity="0.8"/>
<path d="M274.603 73.9736L294.887 62.2578L315.219 73.9736" stroke="url(#paint55_linear_4611_10186)" stroke-width="5.31463"/>
<path d="M315.219 295.608L294.934 307.324L274.602 295.608" stroke="url(#paint56_linear_4611_10186)" stroke-width="5.31463"/>
<path d="M188.786 146.972L188.782 123.547L209.094 111.797" stroke="url(#paint57_linear_4611_10186)" stroke-width="5.31463"/>
<path d="M401.035 222.61L401.04 246.035L380.727 257.785" stroke="url(#paint58_linear_4611_10186)" stroke-width="5.31463"/>
<path d="M209.096 257.787L188.808 246.078L188.788 222.612" stroke="url(#paint59_linear_4611_10186)" stroke-width="5.31463"/>
<path d="M380.725 111.795L401.013 123.504L401.033 146.97" stroke="url(#paint60_linear_4611_10186)" stroke-width="5.31463"/>
<foreignObject x="181.991" y="58.8466" width="226.681" height="253.198"><div xmlns="http://www.w3.org/1999/xhtml" style="backdrop-filter:blur(13.35px);clip-path:url(#bgblur_22_4611_10186_clip_path);height:100%;width:100%"></div></foreignObject><path data-figma-bg-blur-radius="26.7012" d="M381.971 135.451L381.496 135.725V235.439L295.143 285.151V185.545H295.142V285.344L208.692 235.439L209.155 135.427L209.182 135.442L295.617 85.5479L381.971 135.451Z" fill="url(#paint61_linear_4611_10186)" fill-opacity="0.1"/>
<g opacity="0.6">
<g filter="url(#filter4_f_4611_10186)" style="mix-blend-mode:color-dodge">
<ellipse cx="295.592" cy="185.511" rx="72.7268" ry="72.7267" transform="rotate(180 295.592 185.511)" fill="#E11BFF" fill-opacity="0.9"/>
</g>
<path d="M381.993 235.066L295.162 285.161L209.189 235.066L295.639 185.162L381.993 235.066Z" fill="url(#paint62_linear_4611_10186)"/>
<path d="M295.621 185.356V247.042L348.992 216.199V154.513L295.621 185.356Z" fill="url(#paint63_linear_4611_10186)"/>
<path d="M295.618 185.356V247.042L242.188 216.199V154.513L295.618 185.356Z" fill="url(#paint64_linear_4611_10186)"/>
<path d="M348.989 154.515L295.323 185.476L242.188 154.515L295.618 123.672L348.989 154.515Z" fill="url(#paint65_linear_4611_10186)"/>
<g opacity="0.9" filter="url(#filter5_f_4611_10186)" style="mix-blend-mode:overlay">
<ellipse cx="295.275" cy="185.456" rx="34.7679" ry="23.4375" transform="rotate(180 295.275 185.456)" fill="#FF0004"/>
</g>
<g clip-path="url(#clip23_4611_10186)">
<foreignObject x="292.787" y="133.249" width="91.1046" height="154.272"><div xmlns="http://www.w3.org/1999/xhtml" style="backdrop-filter:blur(1.19px);clip-path:url(#bgblur_24_4611_10186_clip_path);height:100%;width:100%"></div></foreignObject><path data-figma-bg-blur-radius="2.37554" d="M295.162 185.529V285.146L381.516 235.433V135.625L295.162 185.529Z" fill="url(#paint66_linear_4611_10186)"/>
<path d="M381.99 135.45L295.159 185.545L209.187 135.45L295.636 85.5459L381.99 135.45Z" fill="url(#paint67_linear_4611_10186)"/>
<path d="M295.161 185.529V285.337L208.712 235.433L209.175 135.421L295.161 185.529Z" fill="url(#paint68_linear_4611_10186)"/>
</g>
</g>
<g filter="url(#filter7_f_4611_10186)" style="mix-blend-mode:overlay">
<path d="M381.778 135.593L296.362 184.733" stroke="white" stroke-width="3.07377" stroke-linecap="round"/>
</g>
<g filter="url(#filter8_f_4611_10186)" style="mix-blend-mode:overlay">
<path d="M295.845 284.556V185.247L209.657 135.487" stroke="white" stroke-width="3.07377" stroke-linecap="round"/>
</g>
<g filter="url(#filter9_f_4611_10186)" style="mix-blend-mode:plus-darker">
<ellipse cx="294.649" cy="185.06" rx="106.017" ry="120.042" transform="rotate(180 294.649 185.06)" fill="#F9B2FF"/>
</g>
<g filter="url(#filter10_f_4611_10186)" style="mix-blend-mode:plus-darker">
<ellipse cx="294.912" cy="184.792" rx="106.017" ry="120.042" transform="rotate(180 294.912 184.792)" fill="white"/>
</g>
</g>
</g>
</g>
<rect x="9.76758" y="5.13379" width="571" height="361" rx="15.5" stroke="url(#paint69_linear_4611_10186)" shape-rendering="crispEdges"/>
</g>
<defs>
<filter id="filter0_d_4611_10186" x="0.000289917" y="0.000144958" width="590.535" height="380.535" filterUnits="userSpaceOnUse" color-interpolation-filters="sRGB">
<feFlood flood-opacity="0" result="BackgroundImageFix"/>
<feColorMatrix in="SourceAlpha" type="matrix" values="0 0 0 0 0 0 0 0 0 0 0 0 0 0 0 0 0 0 127 0" result="hardAlpha"/>
<feOffset dy="4.63364"/>
<feGaussianBlur stdDeviation="4.63364"/>
<feComposite in2="hardAlpha" operator="out"/>
<feColorMatrix type="matrix" values="0 0 0 0 0 0 0 0 0 0 0 0 0 0 0 0 0 0 0.02 0"/>
<feBlend mode="normal" in2="BackgroundImageFix" result="effect1_dropShadow_4611_10186"/>
<feBlend mode="normal" in="SourceGraphic" in2="effect1_dropShadow_4611_10186" result="shape"/>
</filter>
<filter id="filter1_d_4611_10186" x="-1.73012" y="-7.96027" width="593.995" height="398.186" filterUnits="userSpaceOnUse" color-interpolation-filters="sRGB">
<feFlood flood-opacity="0" result="BackgroundImageFix"/>
<feColorMatrix in="SourceAlpha" type="matrix" values="0 0 0 0 0 0 0 0 0 0 0 0 0 0 0 0 0 0 127 0" result="hardAlpha"/>
<feOffset dy="5.49885"/>
<feGaussianBlur stdDeviation="5.49885"/>
<feComposite in2="hardAlpha" operator="out"/>
<feColorMatrix type="matrix" values="0 0 0 0 0 0 0 0 0 0 0 0 0 0 0 0 0 0 0.02 0"/>
<feBlend mode="normal" in2="BackgroundImageFix" result="effect1_dropShadow_4611_10186"/>
<feBlend mode="normal" in="SourceGraphic" in2="effect1_dropShadow_4611_10186" result="shape"/>
</filter>
<filter id="filter2_f_4611_10186" x="-126.528" y="-236.271" width="842.226" height="842.226" filterUnits="userSpaceOnUse" color-interpolation-filters="sRGB">
<feFlood flood-opacity="0" result="BackgroundImageFix"/>
<feBlend mode="normal" in="SourceGraphic" in2="BackgroundImageFix" result="shape"/>
<feGaussianBlur stdDeviation="131.598" result="effect1_foregroundBlur_4611_10186"/>
</filter>
<clipPath id="bgblur_22_4611_10186_clip_path" transform="translate(-181.991 -58.8466)"><path d="M381.971 135.451L381.496 135.725V235.439L295.143 285.151V185.545H295.142V285.344L208.692 235.439L209.155 135.427L209.182 135.442L295.617 85.5479L381.971 135.451Z"/>
</clipPath><filter id="filter4_f_4611_10186" x="179.827" y="69.7463" width="231.529" height="231.529" filterUnits="userSpaceOnUse" color-interpolation-filters="sRGB">
<feFlood flood-opacity="0" result="BackgroundImageFix"/>
<feBlend mode="normal" in="SourceGraphic" in2="BackgroundImageFix" result="shape"/>
<feGaussianBlur stdDeviation="21.5189" result="effect1_foregroundBlur_4611_10186"/>
</filter>
<filter id="filter5_f_4611_10186" x="251.37" y="152.881" width="87.81" height="65.1498" filterUnits="userSpaceOnUse" color-interpolation-filters="sRGB">
<feFlood flood-opacity="0" result="BackgroundImageFix"/>
<feBlend mode="normal" in="SourceGraphic" in2="BackgroundImageFix" result="shape"/>
<feGaussianBlur stdDeviation="4.56871" result="effect1_foregroundBlur_4611_10186"/>
</filter>
<clipPath id="bgblur_24_4611_10186_clip_path" transform="translate(-292.787 -133.249)"><path d="M295.162 185.529V285.146L381.516 235.433V135.625L295.162 185.529Z"/>
</clipPath><filter id="filter7_f_4611_10186" x="290.035" y="129.266" width="98.0701" height="61.7943" filterUnits="userSpaceOnUse" color-interpolation-filters="sRGB">
<feFlood flood-opacity="0" result="BackgroundImageFix"/>
<feBlend mode="normal" in="SourceGraphic" in2="BackgroundImageFix" result="shape"/>
<feGaussianBlur stdDeviation="2.39498" result="effect1_foregroundBlur_4611_10186"/>
</filter>
<filter id="filter8_f_4611_10186" x="203.33" y="129.16" width="98.8416" height="161.723" filterUnits="userSpaceOnUse" color-interpolation-filters="sRGB">
<feFlood flood-opacity="0" result="BackgroundImageFix"/>
<feBlend mode="normal" in="SourceGraphic" in2="BackgroundImageFix" result="shape"/>
<feGaussianBlur stdDeviation="2.39498" result="effect1_foregroundBlur_4611_10186"/>
</filter>
<filter id="filter9_f_4611_10186" x="-48.7116" y="-172.326" width="686.722" height="714.772" filterUnits="userSpaceOnUse" color-interpolation-filters="sRGB">
<feFlood flood-opacity="0" result="BackgroundImageFix"/>
<feBlend mode="normal" in="SourceGraphic" in2="BackgroundImageFix" result="shape"/>
<feGaussianBlur stdDeviation="118.672" result="effect1_foregroundBlur_4611_10186"/>
</filter>
<filter id="filter10_f_4611_10186" x="-48.4489" y="-172.594" width="686.722" height="714.772" filterUnits="userSpaceOnUse" color-interpolation-filters="sRGB">
<feFlood flood-opacity="0" result="BackgroundImageFix"/>
<feBlend mode="normal" in="SourceGraphic" in2="BackgroundImageFix" result="shape"/>
<feGaussianBlur stdDeviation="118.672" result="effect1_foregroundBlur_4611_10186"/>
</filter>
<radialGradient id="paint0_radial_4611_10186" cx="0" cy="0" r="1" gradientUnits="userSpaceOnUse" gradientTransform="translate(286 181) rotate(90) scale(181 286)">
<stop stop-color="#2D134A"/>
<stop offset="1" stop-color="#110625"/>
</radialGradient>
<radialGradient id="paint1_radial_4611_10186" cx="0" cy="0" r="1" gradientUnits="userSpaceOnUse" gradientTransform="translate(295.268 185.634) rotate(90) scale(181 286)">
<stop stop-color="#2D134A"/>
<stop offset="1" stop-color="#110625"/>
</radialGradient>
<radialGradient id="paint2_radial_4611_10186" cx="0" cy="0" r="1" gradientUnits="userSpaceOnUse" gradientTransform="translate(286 188.095) rotate(90) scale(188.095 286)">
<stop stop-color="#2D134A"/>
<stop offset="1" stop-color="#110625"/>
</radialGradient>
<radialGradient id="paint3_radial_4611_10186" cx="0" cy="0" r="1" gradientUnits="userSpaceOnUse" gradientTransform="translate(286 188.095) rotate(90) scale(188.095 286)">
<stop stop-color="#0A0118" stop-opacity="0"/>
<stop offset="1" stop-color="#110624"/>
</radialGradient>
<linearGradient id="paint4_linear_4611_10186" x1="-25.7264" y1="112.978" x2="-25.7264" y2="-1.52797" gradientUnits="userSpaceOnUse">
<stop offset="0.492698" stop-color="#1756FD" stop-opacity="0"/>
<stop offset="1" stop-color="#05FCC1"/>
</linearGradient>
<linearGradient id="paint5_linear_4611_10186" x1="12.904" y1="47.0014" x2="-36.0597" y2="31.3481" gradientUnits="userSpaceOnUse">
<stop stop-color="#DB74FF"/>
<stop offset="1" stop-color="#D245E8"/>
</linearGradient>
<linearGradient id="paint6_linear_4611_10186" x1="72.7783" y1="57.3588" x2="-25.8685" y2="-1.10738" gradientUnits="userSpaceOnUse">
<stop stop-color="#491A86"/>
<stop offset="1" stop-color="#491A86" stop-opacity="0"/>
</linearGradient>
<linearGradient id="paint7_linear_4611_10186" x1="187.81" y1="112.978" x2="187.81" y2="-1.52797" gradientUnits="userSpaceOnUse">
<stop offset="0.492698" stop-color="#1756FD" stop-opacity="0"/>
<stop offset="1" stop-color="#05FCC1"/>
</linearGradient>
<linearGradient id="paint8_linear_4611_10186" x1="226.442" y1="47.0014" x2="177.478" y2="31.3481" gradientUnits="userSpaceOnUse">
<stop stop-color="#DB74FF"/>
<stop offset="1" stop-color="#D245E8"/>
</linearGradient>
<linearGradient id="paint9_linear_4611_10186" x1="126.862" y1="-36.3228" x2="217.866" y2="8.83191" gradientUnits="userSpaceOnUse">
<stop stop-color="#DB74FF"/>
<stop offset="1" stop-color="#8000FF"/>
</linearGradient>
<linearGradient id="paint10_linear_4611_10186" x1="286.316" y1="57.3588" x2="187.67" y2="-1.10738" gradientUnits="userSpaceOnUse">
<stop stop-color="#491A86"/>
<stop offset="1" stop-color="#491A86" stop-opacity="0"/>
</linearGradient>
<linearGradient id="paint11_linear_4611_10186" x1="187.76" y1="112.973" x2="88.875" y2="-58.0465" gradientUnits="userSpaceOnUse">
<stop stop-color="#26193C" stop-opacity="0"/>
<stop offset="1" stop-color="#491A86"/>
</linearGradient>
<linearGradient id="paint12_linear_4611_10186" x1="401.502" y1="113.118" x2="401.502" y2="-1.38881" gradientUnits="userSpaceOnUse">
<stop offset="0.492698" stop-color="#1756FD" stop-opacity="0"/>
<stop offset="1" stop-color="#05FCC1"/>
</linearGradient>
<linearGradient id="paint13_linear_4611_10186" x1="440.134" y1="47.1386" x2="391.171" y2="31.4853" gradientUnits="userSpaceOnUse">
<stop stop-color="#DB74FF"/>
<stop offset="1" stop-color="#D245E8"/>
</linearGradient>
<linearGradient id="paint14_linear_4611_10186" x1="340.558" y1="-36.1855" x2="431.561" y2="8.96911" gradientUnits="userSpaceOnUse">
<stop stop-color="#DB74FF"/>
<stop offset="1" stop-color="#8000FF"/>
</linearGradient>
<linearGradient id="paint15_linear_4611_10186" x1="499.859" y1="57.3588" x2="401.213" y2="-1.10738" gradientUnits="userSpaceOnUse">
<stop stop-color="#491A86"/>
<stop offset="1" stop-color="#491A86" stop-opacity="0"/>
</linearGradient>
<linearGradient id="paint16_linear_4611_10186" x1="401.304" y1="112.973" x2="302.419" y2="-58.0465" gradientUnits="userSpaceOnUse">
<stop stop-color="#26193C" stop-opacity="0"/>
<stop offset="1" stop-color="#491A86"/>
</linearGradient>
<linearGradient id="paint17_linear_4611_10186" x1="615.193" y1="113.118" x2="615.193" y2="-1.38881" gradientUnits="userSpaceOnUse">
<stop offset="0.492698" stop-color="#1756FD" stop-opacity="0"/>
<stop offset="1" stop-color="#05FCC1"/>
</linearGradient>
<linearGradient id="paint18_linear_4611_10186" x1="554.251" y1="-36.1855" x2="645.254" y2="8.96911" gradientUnits="userSpaceOnUse">
<stop stop-color="#DB74FF"/>
<stop offset="1" stop-color="#8000FF"/>
</linearGradient>
<linearGradient id="paint19_linear_4611_10186" x1="614.991" y1="112.973" x2="516.106" y2="-58.0465" gradientUnits="userSpaceOnUse">
<stop stop-color="#26193C" stop-opacity="0"/>
<stop offset="1" stop-color="#491A86"/>
</linearGradient>
<linearGradient id="paint20_linear_4611_10186" x1="81.8917" y1="299.044" x2="81.8917" y2="184.537" gradientUnits="userSpaceOnUse">
<stop offset="0.492698" stop-color="#1756FD" stop-opacity="0"/>
<stop offset="1" stop-color="#05FCC1"/>
</linearGradient>
<linearGradient id="paint21_linear_4611_10186" x1="120.525" y1="233.065" x2="71.5614" y2="217.412" gradientUnits="userSpaceOnUse">
<stop stop-color="#DB74FF"/>
<stop offset="1" stop-color="#D245E8"/>
</linearGradient>
<linearGradient id="paint22_linear_4611_10186" x1="20.9443" y1="149.741" x2="111.948" y2="194.896" gradientUnits="userSpaceOnUse">
<stop stop-color="#DB74FF"/>
<stop offset="1" stop-color="#8000FF"/>
</linearGradient>
<linearGradient id="paint23_linear_4611_10186" x1="81.9053" y1="114.529" x2="81.9053" y2="185.066" gradientUnits="userSpaceOnUse">
<stop stop-color="#D245E8"/>
<stop offset="1" stop-color="#7479FF"/>
</linearGradient>
<linearGradient id="paint24_linear_4611_10186" x1="180.401" y1="243.423" x2="81.7546" y2="184.957" gradientUnits="userSpaceOnUse">
<stop stop-color="#491A86"/>
<stop offset="1" stop-color="#491A86" stop-opacity="0"/>
</linearGradient>
<linearGradient id="paint25_linear_4611_10186" x1="81.7863" y1="184.891" x2="81.7863" y2="70.3946" gradientUnits="userSpaceOnUse">
<stop stop-color="#491A86"/>
<stop offset="1" stop-color="#491A86" stop-opacity="0"/>
</linearGradient>
<linearGradient id="paint26_linear_4611_10186" x1="81.8423" y1="299.037" x2="-17.0429" y2="128.018" gradientUnits="userSpaceOnUse">
<stop stop-color="#26193C" stop-opacity="0"/>
<stop offset="1" stop-color="#491A86"/>
</linearGradient>
<linearGradient id="paint27_linear_4611_10186" x1="508.139" y1="299.044" x2="508.139" y2="184.537" gradientUnits="userSpaceOnUse">
<stop offset="0.492698" stop-color="#1756FD" stop-opacity="0"/>
<stop offset="1" stop-color="#05FCC1"/>
</linearGradient>
<linearGradient id="paint28_linear_4611_10186" x1="546.772" y1="233.065" x2="497.808" y2="217.412" gradientUnits="userSpaceOnUse">
<stop stop-color="#DB74FF"/>
<stop offset="1" stop-color="#D245E8"/>
</linearGradient>
<linearGradient id="paint29_linear_4611_10186" x1="447.192" y1="149.741" x2="538.196" y2="194.896" gradientUnits="userSpaceOnUse">
<stop stop-color="#DB74FF"/>
<stop offset="1" stop-color="#8000FF"/>
</linearGradient>
<linearGradient id="paint30_linear_4611_10186" x1="508.153" y1="114.529" x2="508.153" y2="185.066" gradientUnits="userSpaceOnUse">
<stop stop-color="#D245E8"/>
<stop offset="1" stop-color="#7479FF"/>
</linearGradient>
<linearGradient id="paint31_linear_4611_10186" x1="606.647" y1="243.423" x2="508.001" y2="184.957" gradientUnits="userSpaceOnUse">
<stop stop-color="#491A86"/>
<stop offset="1" stop-color="#491A86" stop-opacity="0"/>
</linearGradient>
<linearGradient id="paint32_linear_4611_10186" x1="508.031" y1="184.891" x2="508.031" y2="70.3946" gradientUnits="userSpaceOnUse">
<stop stop-color="#491A86"/>
<stop offset="1" stop-color="#491A86" stop-opacity="0"/>
</linearGradient>
<linearGradient id="paint33_linear_4611_10186" x1="508.087" y1="299.037" x2="409.202" y2="128.018" gradientUnits="userSpaceOnUse">
<stop stop-color="#26193C" stop-opacity="0"/>
<stop offset="1" stop-color="#491A86"/>
</linearGradient>
<linearGradient id="paint34_linear_4611_10186" x1="12.904" y1="419.344" x2="-36.0597" y2="403.691" gradientUnits="userSpaceOnUse">
<stop stop-color="#DB74FF"/>
<stop offset="1" stop-color="#D245E8"/>
</linearGradient>
<linearGradient id="paint35_linear_4611_10186" x1="-25.7149" y1="300.808" x2="-25.7149" y2="371.345" gradientUnits="userSpaceOnUse">
<stop stop-color="#D245E8"/>
<stop offset="1" stop-color="#7479FF"/>
</linearGradient>
<linearGradient id="paint36_linear_4611_10186" x1="72.7783" y1="429.702" x2="-25.8685" y2="371.235" gradientUnits="userSpaceOnUse">
<stop stop-color="#491A86"/>
<stop offset="1" stop-color="#491A86" stop-opacity="0"/>
</linearGradient>
<linearGradient id="paint37_linear_4611_10186" x1="-25.8328" y1="371.17" x2="-25.8328" y2="256.673" gradientUnits="userSpaceOnUse">
<stop stop-color="#491A86"/>
<stop offset="1" stop-color="#491A86" stop-opacity="0"/>
</linearGradient>
<linearGradient id="paint38_linear_4611_10186" x1="226.442" y1="419.344" x2="177.478" y2="403.691" gradientUnits="userSpaceOnUse">
<stop stop-color="#DB74FF"/>
<stop offset="1" stop-color="#D245E8"/>
</linearGradient>
<linearGradient id="paint39_linear_4611_10186" x1="126.862" y1="336.02" x2="217.866" y2="381.175" gradientUnits="userSpaceOnUse">
<stop stop-color="#DB74FF"/>
<stop offset="1" stop-color="#8000FF"/>
</linearGradient>
<linearGradient id="paint40_linear_4611_10186" x1="187.823" y1="300.808" x2="187.823" y2="371.345" gradientUnits="userSpaceOnUse">
<stop stop-color="#D245E8"/>
<stop offset="1" stop-color="#7479FF"/>
</linearGradient>
<linearGradient id="paint41_linear_4611_10186" x1="286.316" y1="429.702" x2="187.67" y2="371.235" gradientUnits="userSpaceOnUse">
<stop stop-color="#491A86"/>
<stop offset="1" stop-color="#491A86" stop-opacity="0"/>
</linearGradient>
<linearGradient id="paint42_linear_4611_10186" x1="187.704" y1="371.17" x2="187.704" y2="256.673" gradientUnits="userSpaceOnUse">
<stop stop-color="#491A86"/>
<stop offset="1" stop-color="#491A86" stop-opacity="0"/>
</linearGradient>
<linearGradient id="paint43_linear_4611_10186" x1="187.76" y1="485.315" x2="88.875" y2="314.296" gradientUnits="userSpaceOnUse">
<stop stop-color="#26193C" stop-opacity="0"/>
<stop offset="1" stop-color="#491A86"/>
</linearGradient>
<linearGradient id="paint44_linear_4611_10186" x1="440.134" y1="419.481" x2="391.171" y2="403.828" gradientUnits="userSpaceOnUse">
<stop stop-color="#DB74FF"/>
<stop offset="1" stop-color="#D245E8"/>
</linearGradient>
<linearGradient id="paint45_linear_4611_10186" x1="340.558" y1="336.157" x2="431.561" y2="381.312" gradientUnits="userSpaceOnUse">
<stop stop-color="#DB74FF"/>
<stop offset="1" stop-color="#8000FF"/>
</linearGradient>
<linearGradient id="paint46_linear_4611_10186" x1="401.519" y1="300.945" x2="401.519" y2="371.483" gradientUnits="userSpaceOnUse">
<stop stop-color="#D245E8"/>
<stop offset="1" stop-color="#7479FF"/>
</linearGradient>
<linearGradient id="paint47_linear_4611_10186" x1="499.859" y1="429.702" x2="401.213" y2="371.235" gradientUnits="userSpaceOnUse">
<stop stop-color="#491A86"/>
<stop offset="1" stop-color="#491A86" stop-opacity="0"/>
</linearGradient>
<linearGradient id="paint48_linear_4611_10186" x1="401.248" y1="371.17" x2="401.248" y2="256.673" gradientUnits="userSpaceOnUse">
<stop stop-color="#491A86"/>
<stop offset="1" stop-color="#491A86" stop-opacity="0"/>
</linearGradient>
<linearGradient id="paint49_linear_4611_10186" x1="401.304" y1="485.315" x2="302.419" y2="314.296" gradientUnits="userSpaceOnUse">
<stop stop-color="#26193C" stop-opacity="0"/>
<stop offset="1" stop-color="#491A86"/>
</linearGradient>
<linearGradient id="paint50_linear_4611_10186" x1="554.251" y1="336.157" x2="645.254" y2="381.312" gradientUnits="userSpaceOnUse">
<stop stop-color="#DB74FF"/>
<stop offset="1" stop-color="#8000FF"/>
</linearGradient>
<linearGradient id="paint51_linear_4611_10186" x1="615.212" y1="300.945" x2="615.212" y2="371.483" gradientUnits="userSpaceOnUse">
<stop stop-color="#D245E8"/>
<stop offset="1" stop-color="#7479FF"/>
</linearGradient>
<linearGradient id="paint52_linear_4611_10186" x1="614.935" y1="371.17" x2="614.935" y2="256.673" gradientUnits="userSpaceOnUse">
<stop stop-color="#491A86"/>
<stop offset="1" stop-color="#491A86" stop-opacity="0"/>
</linearGradient>
<linearGradient id="paint53_linear_4611_10186" x1="614.991" y1="485.315" x2="516.106" y2="314.296" gradientUnits="userSpaceOnUse">
<stop stop-color="#26193C" stop-opacity="0"/>
<stop offset="1" stop-color="#491A86"/>
</linearGradient>
<radialGradient id="paint54_radial_4611_10186" cx="0" cy="0" r="1" gradientUnits="userSpaceOnUse" gradientTransform="translate(294.911 184.792) rotate(90) scale(113.944 98.6387)">
<stop stop-color="#2D134A"/>
<stop offset="1" stop-color="#110625"/>
</radialGradient>
<linearGradient id="paint55_linear_4611_10186" x1="274.603" y1="68.1157" x2="306.281" y2="51.2888" gradientUnits="userSpaceOnUse">
<stop stop-color="#3A7CFB"/>
<stop offset="0.5" stop-color="#D03AFB"/>
<stop offset="1" stop-color="#FFA04B"/>
</linearGradient>
<linearGradient id="paint56_linear_4611_10186" x1="315.219" y1="301.466" x2="283.54" y2="318.293" gradientUnits="userSpaceOnUse">
<stop stop-color="#3A7CFB"/>
<stop offset="0.5" stop-color="#D03AFB"/>
<stop offset="1" stop-color="#FFA04B"/>
</linearGradient>
<linearGradient id="paint57_linear_4611_10186" x1="183.713" y1="144.043" x2="184.98" y2="108.195" gradientUnits="userSpaceOnUse">
<stop stop-color="#3A7CFB"/>
<stop offset="0.5" stop-color="#D03AFB"/>
<stop offset="1" stop-color="#FFA04B"/>
</linearGradient>
<linearGradient id="paint58_linear_4611_10186" x1="406.109" y1="225.539" x2="404.842" y2="261.387" gradientUnits="userSpaceOnUse">
<stop stop-color="#3A7CFB"/>
<stop offset="0.5" stop-color="#D03AFB"/>
<stop offset="1" stop-color="#FFA04B"/>
</linearGradient>
<linearGradient id="paint59_linear_4611_10186" x1="204.023" y1="260.716" x2="173.612" y2="241.695" gradientUnits="userSpaceOnUse">
<stop stop-color="#3A7CFB"/>
<stop offset="0.5" stop-color="#D03AFB"/>
<stop offset="1" stop-color="#FFA04B"/>
</linearGradient>
<linearGradient id="paint60_linear_4611_10186" x1="385.798" y1="108.866" x2="416.21" y2="127.887" gradientUnits="userSpaceOnUse">
<stop stop-color="#3A7CFB"/>
<stop offset="0.5" stop-color="#D03AFB"/>
<stop offset="1" stop-color="#FFA04B"/>
</linearGradient>
<linearGradient id="paint61_linear_4611_10186" x1="295.141" y1="285.344" x2="208.69" y2="135.631" gradientUnits="userSpaceOnUse">
<stop stop-color="#1756FD" stop-opacity="0.6"/>
<stop offset="1" stop-color="#05FCC1"/>
</linearGradient>
<linearGradient id="paint62_linear_4611_10186" x1="295.59" y1="285.3" x2="295.59" y2="184.996" gradientUnits="userSpaceOnUse">
<stop offset="0.492698" stop-color="#1756FD" stop-opacity="0"/>
<stop offset="1" stop-color="#05FCC1"/>
</linearGradient>
<linearGradient id="paint63_linear_4611_10186" x1="329.416" y1="227.502" x2="286.526" y2="213.79" gradientUnits="userSpaceOnUse">
<stop stop-color="#DB74FF"/>
<stop offset="1" stop-color="#D245E8"/>
</linearGradient>
<linearGradient id="paint64_linear_4611_10186" x1="242.188" y1="154.513" x2="321.904" y2="194.066" gradientUnits="userSpaceOnUse">
<stop stop-color="#DB74FF"/>
<stop offset="1" stop-color="#8000FF"/>
</linearGradient>
<linearGradient id="paint65_linear_4611_10186" x1="295.588" y1="123.672" x2="295.588" y2="185.46" gradientUnits="userSpaceOnUse">
<stop stop-color="#D245E8"/>
<stop offset="1" stop-color="#7479FF"/>
</linearGradient>
<linearGradient id="paint66_linear_4611_10186" x1="381.516" y1="236.685" x2="295.162" y2="185.436" gradientUnits="userSpaceOnUse">
<stop stop-color="#05FCC1"/>
<stop offset="1" stop-color="#1756FD" stop-opacity="0.6"/>
</linearGradient>
<linearGradient id="paint67_linear_4611_10186" x1="295.587" y1="185.545" x2="295.587" y2="85.3807" gradientUnits="userSpaceOnUse">
<stop stop-color="#05FCC1"/>
<stop offset="1" stop-color="#1756FD" stop-opacity="0"/>
</linearGradient>
<linearGradient id="paint68_linear_4611_10186" x1="295.161" y1="285.337" x2="208.712" y2="135.625" gradientUnits="userSpaceOnUse">
<stop stop-color="#1756FD" stop-opacity="0.6"/>
<stop offset="1" stop-color="#05FCC1"/>
</linearGradient>
<linearGradient id="paint69_linear_4611_10186" x1="295.268" y1="4.63379" x2="295.268" y2="366.634" gradientUnits="userSpaceOnUse">
<stop stop-color="#230356"/>
<stop offset="1" stop-color="#8502A8" stop-opacity="0"/>
</linearGradient>
<clipPath id="clip0_4611_10186">
<rect x="9.26758" y="4.63379" width="572" height="362" rx="16" fill="white"/>
</clipPath>
<clipPath id="clip1_4611_10186">
<rect width="572" height="376.191" fill="white" transform="translate(9.26758 -2.46143)"/>
</clipPath>
<clipPath id="clip2_4611_10186">
<rect width="121.924" height="140.842" fill="white" transform="translate(-86.6924 -71.5322)"/>
</clipPath>
<clipPath id="clip3_4611_10186">
<rect width="197.265" height="228.178" fill="white" transform="translate(-124.483 -115.2)"/>
</clipPath>
<clipPath id="clip4_4611_10186">
<rect width="121.924" height="140.842" fill="white" transform="translate(126.844 -71.5322)"/>
</clipPath>
<clipPath id="clip5_4611_10186">
<rect width="197.265" height="228.178" fill="white" transform="translate(89.0527 -115.2)"/>
</clipPath>
<clipPath id="clip6_4611_10186">
<rect width="121.924" height="140.842" fill="white" transform="translate(340.536 -71.3931)"/>
</clipPath>
<clipPath id="clip7_4611_10186">
<rect width="197.265" height="228.178" fill="white" transform="translate(302.59 -115.2)"/>
</clipPath>
<clipPath id="clip8_4611_10186">
<rect width="121.924" height="140.842" fill="white" transform="translate(554.228 -71.3931)"/>
</clipPath>
<clipPath id="clip9_4611_10186">
<rect width="197.265" height="228.178" fill="white" transform="translate(516.281 -115.2)"/>
</clipPath>
<clipPath id="clip10_4611_10186">
<rect width="121.924" height="140.842" fill="white" transform="translate(20.9258 114.533)"/>
</clipPath>
<clipPath id="clip11_4611_10186">
<rect width="197.265" height="228.178" fill="white" transform="translate(-16.8652 70.8657)"/>
</clipPath>
<clipPath id="clip12_4611_10186">
<rect width="121.924" height="140.842" fill="white" transform="translate(447.174 114.533)"/>
</clipPath>
<clipPath id="clip13_4611_10186">
<rect width="197.265" height="228.178" fill="white" transform="translate(409.383 70.8657)"/>
</clipPath>
<clipPath id="clip14_4611_10186">
<rect width="121.924" height="140.842" fill="white" transform="translate(-86.6924 300.811)"/>
</clipPath>
<clipPath id="clip15_4611_10186">
<rect width="197.265" height="228.178" fill="white" transform="translate(-124.483 257.144)"/>
</clipPath>
<clipPath id="clip16_4611_10186">
<rect width="121.924" height="140.842" fill="white" transform="translate(126.844 300.811)"/>
</clipPath>
<clipPath id="clip17_4611_10186">
<rect width="197.265" height="228.178" fill="white" transform="translate(89.0527 257.144)"/>
</clipPath>
<clipPath id="clip18_4611_10186">
<rect width="121.924" height="140.842" fill="white" transform="translate(340.536 300.95)"/>
</clipPath>
<clipPath id="clip19_4611_10186">
<rect width="197.265" height="228.178" fill="white" transform="translate(302.59 257.144)"/>
</clipPath>
<clipPath id="clip20_4611_10186">
<rect width="121.924" height="140.842" fill="white" transform="translate(554.228 300.95)"/>
</clipPath>
<clipPath id="clip21_4611_10186">
<rect width="197.265" height="228.178" fill="white" transform="translate(516.281 257.144)"/>
</clipPath>
<clipPath id="clip23_4611_10186">
<rect width="172.804" height="199.616" fill="white" transform="translate(209.18 85.5513)"/>
</clipPath>
</defs>
</svg>
