<svg width="28" height="28" viewBox="0 0 28 28" fill="none" xmlns="http://www.w3.org/2000/svg">
<path d="M22.166 25.6667H5.83268C5.52326 25.6667 5.22652 25.5438 5.00772 25.325C4.78893 25.1062 4.66602 24.8095 4.66602 24.5C4.66602 24.1906 4.78893 23.8939 5.00772 23.6751C5.22652 23.4563 5.52326 23.3334 5.83268 23.3334H22.166C22.4754 23.3334 22.7722 23.4563 22.991 23.6751C23.2098 23.8939 23.3327 24.1906 23.3327 24.5C23.3327 24.8095 23.2098 25.1062 22.991 25.325C22.7722 25.5438 22.4754 25.6667 22.166 25.6667Z" fill="#4D4DFF"/>
<path d="M13.9998 21C13.8465 21.0001 13.6948 20.97 13.5532 20.9114C13.4117 20.8527 13.2831 20.7666 13.1749 20.6581L8.39394 15.8771C7.28532 14.7684 6.53037 13.3559 6.22454 11.8181C5.91871 10.2804 6.07575 8.68644 6.67578 7.23792C7.27581 5.7894 8.2919 4.55133 9.59556 3.68028C10.8992 2.80922 12.4319 2.3443 13.9998 2.3443C15.5677 2.3443 17.1003 2.80922 18.404 3.68028C19.7076 4.55133 20.7237 5.7894 21.3238 7.23792C21.9238 8.68644 22.0808 10.2804 21.775 11.8181C21.4692 13.3559 20.7142 14.7684 19.6056 15.8771L14.8246 20.6581C14.7164 20.7666 14.5878 20.8527 14.4463 20.9114C14.3047 20.97 14.153 21.0001 13.9998 21Z" fill="#B2B2FF"/>
<path d="M13.9993 12.6058C15.288 12.6058 16.3327 11.5611 16.3327 10.2725C16.3327 8.98382 15.288 7.93915 13.9993 7.93915C12.7107 7.93915 11.666 8.98382 11.666 10.2725C11.666 11.5611 12.7107 12.6058 13.9993 12.6058Z" fill="#4D4DFF"/>
</svg>
