<svg width="24" height="24" viewBox="0 0 24 24" fill="none" xmlns="http://www.w3.org/2000/svg">
<foreignObject x="-22.2222" y="-22.2222" width="68.4444" height="68.4444"><div xmlns="http://www.w3.org/1999/xhtml" style="backdrop-filter:blur(11.11px);clip-path:url(#bgblur_0_4564_4294_clip_path);height:100%;width:100%"></div></foreignObject><g data-figma-bg-blur-radius="22.2222">
<rect width="24" height="24" rx="6" fill="white"/>
<path fill-rule="evenodd" clip-rule="evenodd" d="M9.22907 12.5626C9.08239 12.4159 9 12.2169 9 12.0095C9 11.802 9.08239 11.6031 9.22907 11.4563L13.6549 7.03052C13.7271 6.95579 13.8134 6.89619 13.9088 6.85519C14.0043 6.81419 14.107 6.7926 14.2108 6.7917C14.3147 6.7908 14.4177 6.81059 14.5139 6.84993C14.61 6.88927 14.6974 6.94736 14.7709 7.02082C14.8443 7.09428 14.9024 7.18163 14.9417 7.27778C14.9811 7.37393 15.0009 7.47695 15 7.58083C14.9991 7.68471 14.9775 7.78738 14.9365 7.88283C14.8955 7.97828 14.8359 8.06461 14.7612 8.13678L10.8885 12.0095L14.7612 15.8822C14.9037 16.0297 14.9825 16.2274 14.9807 16.4325C14.979 16.6376 14.8967 16.8338 14.7516 16.9789C14.6066 17.124 14.4103 17.2062 14.2052 17.208C14.0001 17.2098 13.8024 17.1309 13.6549 16.9884L9.22907 12.5626Z" fill="#3A3943"/>
</g>
<defs>
<clipPath id="bgblur_0_4564_4294_clip_path" transform="translate(22.2222 22.2222)"><rect width="24" height="24" rx="6"/>
</clipPath></defs>
</svg>
