<svg preserveAspectRatio="none" width="100%" height="100%" overflow="visible" style="display: block;" viewBox="0 0 45.7143 45.7143" fill="none" xmlns="http://www.w3.org/2000/svg">
<g id="pie-graph">
<path id="Vector" d="M31.6197 20.8582H41.9048C41.3081 11.7172 33.999 4.40814 24.858 3.8114V14.0927C28.3434 14.6172 31.0952 17.369 31.6197 20.8582Z" fill="var(--fill-0, #4D4DFF)"/>
<path id="Vector_2" d="M14.0908 24.8561H3.80952C4.40626 33.9971 11.7153 41.3061 20.8563 41.9029V31.6216C17.3709 31.0971 14.6153 28.3415 14.0908 24.8561Z" fill="var(--fill-0, #4D4DFF)"/>
<path id="Vector_3" d="M3.80952 22.4312H14.0908C14.6153 18.942 17.3709 16.1902 20.8563 15.6657V5.38443C11.7153 5.98116 4.40626 13.2864 3.80952 22.4312Z" fill="var(--fill-0, #4D4DFF)"/>
<path id="Vector_4" d="M23.285 31.6216V41.9029C32.426 41.3061 39.735 33.9933 40.3317 24.8561H30.0467C29.5222 28.3415 26.7704 31.0971 23.285 31.6216Z" fill="var(--fill-0, #4D4DFF)"/>
</g>
</svg>
