<svg width="28" height="28" viewBox="0 0 28 28" fill="none" xmlns="http://www.w3.org/2000/svg">
<path d="M21.6456 6.36652C21.5333 6.25402 21.4 6.16476 21.2532 6.10386C21.1064 6.04297 20.949 6.01162 20.79 6.01162C20.6311 6.01162 20.4737 6.04297 20.3269 6.10386C20.1801 6.16476 20.0467 6.25402 19.9344 6.36652L14 12.2888L8.06555 6.35439C7.9532 6.24203 7.81981 6.15291 7.67301 6.0921C7.52621 6.03129 7.36887 6 7.20997 6C7.05108 6 6.89374 6.03129 6.74694 6.0921C6.60014 6.15291 6.46675 6.24203 6.35439 6.35439C6.24204 6.46675 6.15291 6.60013 6.0921 6.74693C6.0313 6.89373 6 7.05107 6 7.20997C6 7.36887 6.0313 7.5262 6.0921 7.67301C6.15291 7.81981 6.24204 7.95319 6.35439 8.06555L12.2888 14L6.35439 19.9344C6.24204 20.0468 6.15291 20.1802 6.0921 20.327C6.0313 20.4738 6 20.6311 6 20.79C6 20.9489 6.0313 21.1063 6.0921 21.2531C6.15291 21.3999 6.24204 21.5332 6.35439 21.6456C6.46675 21.758 6.60014 21.8471 6.74694 21.9079C6.89374 21.9687 7.05108 22 7.20997 22C7.36887 22 7.52621 21.9687 7.67301 21.9079C7.81981 21.8471 7.9532 21.758 8.06555 21.6456L14 15.7112L19.9344 21.6456C20.0468 21.758 20.1802 21.8471 20.327 21.9079C20.4738 21.9687 20.6311 22 20.79 22C20.9489 22 21.1063 21.9687 21.2531 21.9079C21.3999 21.8471 21.5333 21.758 21.6456 21.6456C21.758 21.5332 21.8471 21.3999 21.9079 21.2531C21.9687 21.1063 22 20.9489 22 20.79C22 20.6311 21.9687 20.4738 21.9079 20.327C21.8471 20.1802 21.758 20.0468 21.6456 19.9344L15.7112 14L21.6456 8.06555C22.1068 7.60439 22.1068 6.82769 21.6456 6.36652Z" fill="currentColor"/>
</svg>
