<svg width="16" height="16" viewBox="0 0 16 16" fill="none" xmlns="http://www.w3.org/2000/svg">
<g clip-path="url(#clip0_4300_5880)">
<mask id="mask0_4300_5880" style="mask-type:luminance" maskUnits="userSpaceOnUse" x="0" y="0" width="16" height="16">
<path d="M0 -1.19209e-07H16V16H0V-1.19209e-07Z" fill="white"/>
</mask>
<g mask="url(#mask0_4300_5880)">
<path d="M15.5759 7.99991C15.5759 12.1856 12.1826 15.5789 7.99692 15.5789C3.81123 15.5789 0.417969 12.1856 0.417969 7.99991C0.417969 3.81423 3.81123 0.420964 7.99692 0.420964C12.1826 0.420964 15.5759 3.81423 15.5759 7.99991Z" fill="#88C9F9"/>
</g>
<mask id="mask1_4300_5880" style="mask-type:luminance" maskUnits="userSpaceOnUse" x="0" y="0" width="16" height="16">
<path d="M0.421875 7.99991C0.421875 12.1856 3.81514 15.5789 8.00082 15.5789C12.1865 15.5789 15.5798 12.1856 15.5798 7.99991C15.5798 3.81423 12.1865 0.420964 8.00082 0.420964C3.81514 0.420964 0.421875 3.81423 0.421875 7.99991Z" fill="white"/>
</mask>
<g mask="url(#mask1_4300_5880)">
<path d="M3.65759 1.21067C4.63654 1.39425 5.10517 1.21067 5.47317 1.34204C5.84159 1.47383 5.4997 1.65783 5.76286 1.81572C6.02601 1.97362 6.10475 1.94751 6.31528 1.86836C6.5258 1.78962 6.6837 1.49404 6.84159 1.6052C6.99949 1.71678 7.55233 1.61741 7.68412 1.81572C7.81549 2.01446 7.99991 2.17025 8.28917 2.02625C8.57886 1.88267 9.68412 1.74793 9.97338 1.92688C10.2631 2.10541 10.9995 2.13741 11.2892 2.18457C11.5784 2.2313 12.3153 2.25614 12.21 2.37825C12.1048 2.50035 12.4997 2.4212 12.2892 2.71088C12.0786 3.00014 11.2626 3.6052 11.1839 3.52646C11.1048 3.4473 11.026 3.07888 10.7629 3.10541C10.4997 3.13151 10.1313 3.05278 10.1052 3.36857C10.0786 3.68436 9.68412 4.07888 9.97338 4.07888C10.2631 4.07888 10.5523 3.78962 10.6311 4.07888C10.7102 4.36857 10.6576 4.52646 10.5784 4.68436C10.4997 4.84225 10.6837 4.84225 10.2631 4.94751C9.84201 5.05278 10.026 4.71088 9.84201 5.05278C9.65759 5.39509 9.23654 5.50036 9.3418 5.78962C9.44707 6.0793 9.52623 6.2372 9.55233 6.47383C9.57886 6.71088 9.28917 7.00014 9.13128 7.21067C8.97338 7.4212 8.78938 7.63172 8.55233 7.68436C8.3157 7.73699 8.13128 7.78962 7.99991 8.13151C7.86812 8.47383 8.14349 8.97362 7.7557 8.92099C7.36833 8.86836 7.1578 8.63172 7.13128 8.4473C7.10517 8.2633 6.71023 7.89488 6.6837 7.78962C6.65759 7.68436 6.15738 7.31593 6.15738 7.31593C6.15738 7.31593 5.84159 7.63172 5.84159 8.00014C5.84159 8.36857 5.94686 8.81572 5.94686 8.81572C5.94686 8.81572 5.81549 9.00014 5.55233 8.78962C5.28917 8.57909 4.99991 8.52646 4.86812 8.23678C4.73675 7.94751 4.57886 7.44772 4.57886 7.2633C4.57886 7.0793 4.26265 6.68436 4.13128 6.68436C3.99949 6.68436 3.3418 6.76351 3.28917 6.86878C3.23654 6.97404 3.07865 7.15804 2.94728 7.28983C2.81549 7.4212 2.44707 7.89488 2.31528 7.81614C2.18391 7.73699 1.65759 7.44772 1.65759 7.18457C1.65759 6.92141 1.28917 7.0793 1.26307 6.65825C1.23654 6.2372 1.05254 5.86878 0.99991 6.2633C0.947278 6.65825 0.973383 6.78962 1.13128 7.2633C1.28917 7.73699 1.39444 7.89488 1.63149 8.00014C1.86812 8.10541 1.73675 8.28941 2.13128 8.23678C2.5258 8.18415 2.76286 8.05278 2.78896 8.21067C2.81549 8.36857 3.02601 8.66541 2.63107 8.92478C2.23654 9.18414 2.28917 9.21067 2.05212 9.4473C1.81549 9.68436 1.57886 9.6052 1.57886 10.1054C1.57886 10.6052 1.57886 10.6844 1.60496 11.1054C1.63149 11.5265 1.68412 11.921 1.3157 12.1315C0.947278 12.342 -0.263669 10.8684 -0.368932 10.0263C-0.474196 9.18414 -0.921354 6.36857 -0.763459 5.71088C-0.605564 5.05278 0.236541 3.02625 0.578857 2.63172C0.920752 2.2372 2.81549 1.05278 3.65759 1.21067ZM7.13128 9.39467C7.13128 9.68393 6.92075 9.99972 7.13128 10.2894C7.3418 10.5791 7.5258 10.5791 7.71023 10.6052C7.89423 10.6317 8.42096 10.6052 7.99991 10.2633C7.57844 9.92099 7.3418 10.1841 7.39444 9.7892C7.44707 9.39467 7.13128 9.39467 7.13128 9.39467Z" fill="#5C913B"/>
<path d="M10.0745 5.18425C10.0745 5.47352 9.86399 5.7893 10.0745 6.07899C10.285 6.36867 9.65347 6.6053 9.83789 6.63183C10.0219 6.65794 10.8114 6.55267 10.3903 6.21078C9.96926 5.86846 10.285 5.97373 10.3377 5.57878C10.3903 5.18425 10.0745 5.18425 10.0745 5.18425ZM8.15452 9.78972C8.33852 9.44194 8.54778 9.44783 8.75831 9.60572C8.96884 9.76362 9.60041 10.0529 9.25852 10.1843C8.9162 10.316 9.01726 10.6053 8.7562 10.316C8.49515 10.0264 7.94526 10.1843 8.15452 9.78972ZM9.81136 10.004C9.9541 10.0777 10.1798 10.316 10.4956 10.2899C10.8114 10.2634 10.7853 10.6205 11.101 10.6129C11.4168 10.6057 11.7061 10.6845 11.8375 10.8424C11.9693 11.0003 12.5465 11.2373 12.2185 11.2634C11.8901 11.2899 11.7587 11.0529 11.4168 10.9476C11.0745 10.8424 11.0484 11.132 10.68 10.9215C10.3112 10.711 9.91662 11.015 9.81136 10.6129C9.7061 10.2108 9.50105 9.84404 9.81136 10.004ZM7.03326 12.0003C7.27494 11.7653 7.44252 11.6057 7.81094 11.4213C8.17936 11.2373 8.81094 10.9737 8.96884 10.9476C9.12673 10.9211 9.31115 10.8487 9.41641 11.0571C9.52168 11.2655 9.65305 11.3426 9.86357 11.2655C10.0741 11.188 10.3213 11.2335 10.4792 11.3666C10.637 11.5 11.0215 11.7371 11.1533 12.0003C11.2846 12.2634 11.5478 12.2108 11.469 12.5266C11.3899 12.8424 11.4952 13.3426 11.2059 13.6057C10.9162 13.8685 10.7322 14.1843 10.4164 14.3421C10.1006 14.5 9.26694 14.1055 9.26694 13.8685C9.26694 13.6318 8.96378 13.4369 8.73305 13.2264C8.50189 13.0158 8.36505 13.0529 8.15452 13.2108C7.94399 13.3687 8.02147 13.5266 7.75831 13.5792C7.49515 13.6318 6.79452 14.1843 6.82105 13.7632C6.84715 13.3426 7.20294 12.6053 7.03326 12.3687C6.86357 12.1316 6.65515 12.3683 7.03326 12.0003Z" fill="#5C913B"/>
</g>
</g>
<defs>
<clipPath id="clip0_4300_5880">
<rect width="16" height="16" fill="white"/>
</clipPath>
</defs>
</svg>
