<svg width="28" height="28" viewBox="0 0 28 28" fill="none" xmlns="http://www.w3.org/2000/svg">
<path d="M20.8008 19.6011C21.4633 19.6013 22.0008 20.1378 22.001 20.8003C22.0009 21.4628 21.4633 22.0003 20.8008 22.0005H7.19922C6.53653 22.0005 5.99911 21.463 5.99902 20.8003C5.9992 20.1377 6.53658 19.6011 7.19922 19.6011H20.8008ZM20.8008 12.8003C21.4634 12.8005 22.001 13.3379 22.001 14.0005C22.0007 14.6629 21.4632 15.1995 20.8008 15.1997H7.19922C6.53664 15.1997 5.99929 14.663 5.99902 14.0005C5.99902 13.3377 6.53648 12.8003 7.19922 12.8003H20.8008ZM20.8008 5.99951C21.4634 5.9997 22.001 6.53708 22.001 7.19971C22.0009 7.86226 21.4633 8.39972 20.8008 8.3999H7.19922C6.53653 8.3999 5.99911 7.86238 5.99902 7.19971C5.99902 6.53697 6.53648 5.99951 7.19922 5.99951H20.8008Z" fill="currentColor"/>
</svg>
