<svg width="16" height="16" viewBox="0 0 16 16" fill="none" xmlns="http://www.w3.org/2000/svg">
<path d="M15.9989 1.8026L15.9952 1.80599L15.6819 2.37158L15.7062 2.06423C15.6314 2.12886 15.5561 2.1918 15.4807 2.25333L15.4169 2.90726C15.4 2.92673 15.3816 2.94762 15.3616 2.96963L15.3018 2.39557C15.1954 2.47827 15.0878 2.55786 14.9795 2.63462L15.0607 3.28037C14.9998 3.33964 14.9332 3.40258 14.8598 3.46947L14.8285 2.73933C14.7274 2.80791 14.6252 2.87424 14.522 2.93831L14.5459 3.74408C14.4824 3.79742 14.4158 3.85217 14.3456 3.90862L14.3616 3.03539C14.2267 3.11526 14.0901 3.19118 13.9507 3.264L14.0024 4.17561C13.9394 4.22302 13.8742 4.27129 13.8065 4.32011L13.8579 3.31198C13.7244 3.37972 13.5883 3.44463 13.4498 3.50672L13.502 4.53574C13.4133 4.59698 13.3216 4.65907 13.2265 4.72201L13.3239 3.56204C13.167 3.62977 13.0067 3.69412 12.8427 3.75508L12.8511 4.96388C12.782 5.00735 12.7114 5.05109 12.6392 5.09512L12.6756 3.81576C12.5401 3.86374 12.4018 3.91003 12.2607 3.95434L12.298 5.29889C12.2254 5.34123 12.1515 5.38384 12.0758 5.42702L12.0849 4.00796C11.9404 4.05114 11.7928 4.09235 11.6418 4.13215L11.7586 5.60427C11.6565 5.66015 11.5517 5.71659 11.4445 5.77332L11.5091 4.16658C11.3096 4.2171 11.1044 4.26508 10.893 4.3108L11.1642 5.91952C11.042 5.98217 10.9167 6.04539 10.7883 6.1089L10.805 4.32971C10.6181 4.36922 10.4265 4.40704 10.2298 4.44316L10.4999 6.24917C10.3802 6.30646 10.258 6.36432 10.133 6.42189L10.1143 4.46405C10.0714 4.47167 10.0285 4.47929 9.98536 4.48691C9.8671 4.50751 9.75224 4.52783 9.63991 4.54759L9.90069 6.52829C9.78582 6.58022 9.6687 6.63244 9.54959 6.68465L9.50218 4.57214C9.32014 4.6046 9.146 4.63593 8.97892 4.66669L9.29389 6.795C9.15757 6.85342 9.01815 6.91185 8.87619 6.97027L8.85728 4.68899C8.66056 4.7254 8.47373 4.76096 8.2962 4.79567L8.58888 7.08993C8.46498 7.14243 8.34249 7.19549 8.22141 7.24883L8.18359 4.81797C8.01087 4.85212 7.84661 4.8857 7.69053 4.91844L7.90842 7.38938C7.78423 7.44611 7.66175 7.5034 7.54095 7.56098L7.60671 4.93622C7.35693 4.98957 7.12692 5.04206 6.91298 5.09427L7.26182 7.69617C7.12325 7.76419 6.98693 7.83305 6.85287 7.9022L6.83424 5.11375C6.64007 5.16201 6.45887 5.21055 6.28728 5.26023L6.45069 8.11444C6.3251 8.18217 6.2012 8.25047 6.07955 8.31877L6.13487 5.3051C5.92348 5.36888 5.72592 5.43465 5.53513 5.50436L5.7485 8.50815C5.60399 8.59254 5.4626 8.67721 5.32374 8.76216L5.45921 5.5323C5.3195 5.58451 5.18319 5.63898 5.04715 5.69656C4.96135 5.73268 4.86539 5.77812 4.76153 5.8309L4.85806 9.0554C4.76887 9.11297 4.68081 9.17083 4.59417 9.2284L4.64215 5.89271C4.43809 6.0008 4.20892 6.13232 3.9679 6.27711L4.08446 9.57781C3.95858 9.66671 3.83553 9.75533 3.71558 9.84395L3.81098 6.37222C3.5739 6.517 3.32892 6.67223 3.08762 6.82831L3.19769 10.2377C3.08592 10.3252 2.97698 10.4124 2.87086 10.499L2.93126 6.92991C2.70576 7.07695 2.4859 7.22315 2.28213 7.36003L2.38429 10.9074C2.25983 11.0149 2.1396 11.1213 2.02332 11.2263L2.08174 7.49522C1.77947 7.70012 1.52546 7.87595 1.35866 7.99223L1.56554 11.6519C0.907375 12.281 0.395124 12.8463 0 13.2897V14.1982C0 14.1982 0.651673 13.2082 1.87853 11.9661L5.04292 13.1475C5.12476 13.0196 5.23681 12.8537 5.37849 12.6626L2.65298 11.2238C2.66765 11.2105 2.68233 11.1973 2.69701 11.184L5.70786 12.2429C5.80607 12.1244 5.91304 12.0013 6.02847 11.8755L3.54652 10.462C3.57362 10.4403 3.60071 10.4186 3.62809 10.3971L6.39876 11.4936C6.51504 11.3804 6.63781 11.2667 6.76707 11.1538L4.39717 9.82137C4.43019 9.79795 4.4635 9.77481 4.4968 9.75138L7.12889 10.8549C7.28638 10.7319 7.45177 10.6119 7.62562 10.4962L5.27237 9.24167C5.30172 9.22361 5.33108 9.20526 5.36071 9.18748L7.97305 10.271C8.1215 10.1773 8.25951 10.0937 8.39019 10.0172L6.0883 8.76667C6.136 8.74014 6.18398 8.7139 6.23224 8.68737L8.75991 9.80867C8.91316 9.72541 9.05851 9.64949 9.20273 9.57583L6.85964 8.35207C6.89605 8.33288 6.93274 8.31397 6.96943 8.29478L9.52984 9.40931C9.63793 9.35428 9.74772 9.29812 9.86174 9.23828L7.59091 7.97699C7.62054 7.96203 7.65046 7.94707 7.68009 7.93211L10.2075 9.05201C10.3054 8.99782 10.4073 8.93996 10.5148 8.87759L8.30495 7.62138C8.33007 7.60896 8.35547 7.59654 8.38059 7.58412L10.8871 8.65491C10.9729 8.60213 11.0618 8.54653 11.1546 8.48755L8.98316 7.28891C9.01223 7.2748 9.04158 7.2604 9.07065 7.24629L11.3686 8.3501C11.4462 8.29958 11.5266 8.24652 11.6096 8.1912L9.62043 6.97732C9.64668 6.96434 9.67293 6.95164 9.69918 6.93866L11.9045 7.99195C11.9689 7.94792 12.0346 7.90248 12.1021 7.85563L10.2137 6.68437C10.2317 6.67534 10.2501 6.6663 10.2682 6.65727L12.3242 7.7004C12.3832 7.65891 12.4433 7.6163 12.5048 7.57255C12.5404 7.54715 12.5757 7.52147 12.6107 7.49578L10.7598 6.41032C10.7914 6.39423 10.8227 6.37843 10.8541 6.36234L12.8675 7.29879C12.9542 7.22964 13.0385 7.15936 13.1207 7.08852L11.3629 6.09902C11.3886 6.08547 11.4143 6.07192 11.4397 6.05866L13.3462 6.88616C13.4424 6.7967 13.5353 6.70638 13.6247 6.61522L11.8721 5.82638C11.9161 5.80239 11.9599 5.7784 12.0033 5.75413L13.7918 6.44024C13.8762 6.34936 13.9572 6.2582 14.0354 6.16647L12.484 5.48121C12.5325 5.45299 12.5805 5.42477 12.6282 5.39626L14.1663 6.00955C14.2544 5.90146 14.3385 5.79308 14.4187 5.68498L13.0964 5.10895C13.1212 5.09314 13.1464 5.07706 13.1709 5.06125L14.5764 5.46569C14.6569 5.35026 14.7328 5.23567 14.8047 5.1225L13.6753 4.72116C13.7038 4.70084 13.7323 4.68052 13.7602 4.6602L14.9766 4.84055C15.0509 4.71383 15.12 4.58936 15.1841 4.46828L14.3091 4.2473L15.3066 4.22867C15.3825 4.07513 15.4499 3.92809 15.5098 3.7898L14.8194 3.76101C14.8533 3.72601 14.8866 3.69073 14.9191 3.65546L15.6627 3.54397L15.7751 3.18836L15.2972 3.18695C15.3125 3.16522 15.3272 3.14349 15.3418 3.12176L15.8569 2.8717L15.9182 2.61628L15.6117 2.6572L15.9862 2.20253L16 1.80176L15.9989 1.8026Z" fill="#4D4DFF"/>
</svg>
