<svg width="150" height="40" viewBox="0 0 150 40" fill="none" xmlns="http://www.w3.org/2000/svg">
<g clip-path="url(#clip0_4353_5433)">
<mask id="mask0_4353_5433" style="mask-type:luminance" maskUnits="userSpaceOnUse" x="0" y="0" width="151" height="39">
<path d="M150.001 0.724609H0.000640869V38.5954H150.001V0.724609Z" fill="white"/>
</mask>
<g mask="url(#mask0_4353_5433)">
<path d="M-0.000572163 11.7704V2.30268C-0.000572163 1.43481 0.709506 0.724731 1.57738 0.724731H36.2923C37.1602 0.724731 37.8703 1.43481 37.8703 2.30268V8.99319C37.8703 9.41924 37.6967 9.81372 37.4126 10.1135L30.8011 16.7252C30.3119 17.2144 30.659 18.0665 31.3533 18.0665H36.2923C37.1602 18.0665 37.8703 18.7923 37.8703 19.6601V37.0176C37.8703 37.8854 37.1602 38.5955 36.2923 38.5955H26.8246C25.9567 38.5955 25.2466 37.8854 25.2466 37.0176V24.1731C25.2466 23.463 24.3945 23.1158 23.9053 23.6208L9.38823 38.1379C8.77284 38.7534 7.77873 38.7534 7.16332 38.1379L0.457034 31.4316C-0.158367 30.8162 -0.158367 29.8221 0.457034 29.2067L14.9742 14.6896C15.4634 14.2004 15.1162 13.3483 14.4219 13.3483H1.57738C0.709506 13.3483 -0.000572163 12.6383 -0.000572163 11.7704Z" fill="#0B0B0C"/>
<path d="M73.328 30.879H73.2806C71.04 35.1552 66.953 37.5853 61.3986 37.5853C51.1262 37.5853 45.1773 30.4056 45.1773 20.0859C45.1773 9.05594 52.4516 1.73425 63.1028 1.73425C71.0873 1.73425 76.6574 5.96316 78.9454 12.1961L72.1918 13.9476C70.8664 10.6655 68.1996 7.90405 63.0081 7.90405C56.8226 7.90405 52.5463 12.5117 52.5463 19.9753C52.5463 27.4391 56.7752 31.4313 62.6295 31.4313C67.1423 31.4313 70.8505 28.9539 72.0971 24.583H62.9135V19.1548H79.7028V36.9856H74.1327L73.328 30.8474V30.879Z" fill="#0B0B0C"/>
<path d="M84.1047 2.30237H101.888C108.31 2.30237 112.161 5.48982 112.161 11.0127C112.161 15.2415 110.015 18.287 106.78 18.9971V19.1864C110.393 19.8492 113.107 22.9419 113.107 27.6915C113.107 33.4984 108.736 37.0173 101.32 37.0173H84.1047V2.30237ZM99.5685 16.6144C102.709 16.6144 104.555 15.6203 104.555 12.5748C104.555 9.71873 103.087 8.4406 99.8525 8.4406H91.2527V16.6144H99.5685ZM99.9473 30.8791C103.75 30.8791 105.517 29.7902 105.517 26.6501C105.517 23.794 103.908 22.4686 100.042 22.4686H91.237V30.8791H99.9314H99.9473Z" fill="#0B0B0C"/>
<path d="M143.625 30.879H143.578C141.337 35.1552 137.25 37.5853 131.695 37.5853C121.423 37.5853 115.474 30.4056 115.474 20.0859C115.474 9.05594 122.749 1.73425 133.4 1.73425C141.384 1.73425 146.955 5.96316 149.242 12.1961L142.489 13.9476C141.163 10.6655 138.496 7.90405 133.305 7.90405C127.119 7.90405 122.843 12.5117 122.843 19.9753C122.843 27.4391 127.072 31.4313 132.926 31.4313C137.439 31.4313 141.147 28.9539 142.394 24.583H133.21V19.1548H150V36.9856H144.43L143.625 30.8474V30.879Z" fill="#0B0B0C"/>
</g>
</g>
<defs>
<clipPath id="clip0_4353_5433">
<rect width="150" height="39.3204" fill="white"/>
</clipPath>
</defs>
</svg>
