<svg width="48" height="48" viewBox="0 0 48 48" fill="none" xmlns="http://www.w3.org/2000/svg">
<rect x="0.326389" y="0.326389" width="47.3472" height="47.3472" rx="7.67361" fill="#E5E5FE"/>
<rect x="0.326389" y="0.326389" width="47.3472" height="47.3472" rx="7.67361" stroke="#E5E5FE" stroke-width="0.652778"/>
<path d="M30.6286 20.2051C32.3745 20.5781 36.7883 21.4588 36.8557 23.4326C36.7106 24.9505 34.0633 25.7431 30.8721 26.1472C30.9187 26.0229 30.9602 25.8986 30.9964 25.769C32.0377 25.5411 33.079 25.2821 34.0685 24.8935C34.6073 24.6863 36.4723 23.9662 35.8869 23.1995C35.5087 22.7021 34.8145 22.4535 34.2446 22.2721C33.3173 21.9717 32.3486 21.8059 31.385 21.6764C31.2969 21.666 31.2088 21.6505 31.1208 21.6401C30.8462 21.6039 30.5613 21.5728 30.2711 21.5417C29.7893 21.4899 29.3024 21.6246 28.9138 21.9147C28.4631 22.2462 28.1678 22.7695 28.1212 23.329C28.0901 23.6761 28.1575 24.0335 28.3077 24.3496C28.5823 24.9298 28.8465 25.5204 29.0952 26.1161C29.1262 26.1835 29.1573 26.256 29.1832 26.3234C29.3956 26.8414 29.6028 27.3595 29.7945 27.8827C29.8152 27.9345 29.836 27.9915 29.8619 28.0537C30.5043 29.8202 32.3382 35.8556 29.0589 35.0423C28.1834 34.7159 27.5099 34.0735 26.8727 33.4518C26.1733 32.7421 25.5309 31.9857 24.9248 31.2035C25.0129 31.1879 25.1009 31.1724 25.189 31.1517C25.9039 31.9546 26.6603 32.7421 27.4995 33.4156C27.9658 33.7886 29.5407 35.0371 29.9448 34.146C30.2297 33.5244 30.038 32.7007 29.8878 32.0686C29.6857 31.2242 29.3853 30.4005 29.0641 29.5975C29.0071 29.4576 28.9501 29.3126 28.8931 29.1727C28.7636 28.8567 28.6444 28.5821 28.5616 28.3749C28.3906 27.9449 28.0694 27.2662 27.6394 26.4322C27.6239 26.3959 27.6031 26.3544 27.5824 26.313C27.4166 25.9918 27.2353 25.6447 27.0436 25.2821C27.0177 25.2354 26.9504 25.2354 26.9245 25.2821C26.7017 25.6706 26.4686 26.0592 26.2251 26.4425C26.2148 26.4632 26.2044 26.4788 26.194 26.4995C25.5102 27.603 24.7694 28.665 23.9819 29.7011C23.9508 29.7425 23.9198 29.7788 23.8939 29.8202C23.5468 30.2761 23.1893 30.7217 22.8215 31.1672C22.7852 31.2086 22.7438 31.2605 22.7023 31.3174C21.4797 32.768 17.185 37.358 16.2525 34.1149C16.0919 33.1928 16.3147 32.2862 16.5374 31.421C16.8016 30.4575 17.1384 29.525 17.5114 28.608C17.5684 28.6753 17.6254 28.7479 17.6875 28.8152C17.3922 29.7063 17.1436 30.6077 16.9674 31.5143C16.8275 32.3173 16.7032 33.1721 16.9001 33.9544C17.4181 35.638 20.0758 32.566 21.2621 31.0377C21.5056 30.7269 21.6869 30.473 21.7802 30.3435C22.0703 29.9705 22.5055 29.3488 23.0235 28.5458C23.0391 28.5251 23.0546 28.5044 23.0701 28.4785C23.438 27.9086 23.842 27.2559 24.2772 26.5461C24.645 25.9348 25.0284 25.2821 25.4169 24.6034C25.8055 23.9248 25.8107 23.0492 25.4066 22.3602C25.0077 21.6816 24.2772 21.2568 23.4898 21.2619C22.7023 21.2671 21.2259 21.293 21.2207 21.293C21.2207 21.293 19.6302 21.3448 18.9568 21.3811C18.9153 21.3811 18.8739 21.3863 18.8324 21.3915C17.8896 21.4484 17.1436 21.5106 16.6825 21.5831C16.4649 21.6142 16.1696 21.6505 15.8329 21.6971C14.8434 21.837 13.8539 22.0028 12.8955 22.2877C12.2635 22.4742 11.3465 22.697 10.9994 23.3238C10.7041 23.8574 11.4242 24.3288 11.8283 24.5671C13.0768 25.2976 14.5895 25.6188 15.9935 25.8986C16.0194 25.9866 16.0505 26.0747 16.0815 26.1628C15.1024 26.0332 14.1285 25.8623 13.1597 25.6188C12.2997 25.3805 11.4035 25.1266 10.6782 24.5361C8.32622 22.1219 14.4134 20.6558 16.2939 20.3139C16.3613 20.3035 16.4235 20.2932 16.4856 20.2828C17.0399 20.1844 17.5943 20.0963 18.1486 20.0238C18.2211 20.0082 18.2936 20.0031 18.3662 19.9927C19.6406 19.8217 20.9254 19.7078 22.2102 19.656C22.2309 19.656 22.2464 19.6508 22.2723 19.656C22.7179 19.6352 23.1634 19.6249 23.6089 19.6249C23.6607 19.6249 23.6918 19.5679 23.6607 19.5264C23.4535 19.2001 23.2463 18.8789 23.0339 18.5629C23.008 18.5318 22.9821 18.4955 22.9613 18.4592C21.9511 16.9517 20.915 15.5633 19.9722 14.5013C19.6665 14.1594 19.3349 13.8434 18.9878 13.5377C18.5838 13.1802 18.0605 12.6933 17.5114 12.6363C16.8742 12.5689 16.8016 13.3771 16.7913 13.8485C16.7602 15.3095 17.2575 16.817 17.7031 18.1899C17.615 18.2883 17.5269 18.3867 17.444 18.4851C16.18 15.5322 15.522 12.8435 16.7602 11.9524C18.5061 11.0199 21.4849 14.3666 22.6971 15.698C23.0132 16.014 23.2929 16.3611 23.5675 16.7134L24.3964 17.7858C24.6088 18.0603 24.9921 18.6354 25.1994 18.9203C25.4273 19.2363 25.7381 19.4954 26.1111 19.6249C27.0954 19.9616 28.1316 19.485 28.5253 18.5836C28.6444 18.3142 28.7584 18.0448 28.8672 17.7858C29.3076 16.7186 29.722 15.6151 29.9137 14.4754C29.9914 13.9988 30.1416 13.3046 29.8774 12.8642C29.5718 12.341 28.8724 12.6984 28.4735 12.9212C27.2146 13.6309 26.1785 14.7914 25.2201 15.8586C25.0906 15.8275 24.9611 15.8016 24.8264 15.7809C26.7432 13.1595 28.7429 11.2427 30.1313 11.8696C31.8098 12.9108 30.3955 17.1693 29.8567 18.8841C29.836 18.941 29.8204 18.9928 29.8049 19.0447C29.7013 19.3451 29.5925 19.6404 29.4785 19.9357C29.463 19.972 29.4785 20.0082 29.52 20.0134C29.8722 20.0652 30.5716 20.1947 30.6286 20.2051Z" fill="#4D4DFF"/>
</svg>
