<svg width="37" height="36" viewBox="0 0 37 36" fill="none" xmlns="http://www.w3.org/2000/svg">
<path d="M27.8919 13.5133C30.2692 14.0212 36.2796 15.2205 36.3713 17.9082C36.1737 19.9752 32.5689 21.0545 28.2234 21.6047C28.2869 21.4354 28.3434 21.2661 28.3927 21.0898C29.8107 20.7794 31.2286 20.4266 32.576 19.8976C33.3097 19.6154 35.8492 18.6348 35.0521 17.5908C34.5371 16.9135 33.5918 16.5749 32.8158 16.328C31.5531 15.9189 30.2339 15.6931 28.9218 15.5168C28.8019 15.5027 28.682 15.4815 28.562 15.4674C28.1882 15.418 27.8002 15.3757 27.4051 15.3334C26.7491 15.2628 26.0859 15.4462 25.5569 15.8413C24.9431 16.2928 24.541 17.0053 24.4775 17.7671C24.4352 18.2398 24.5269 18.7265 24.7315 19.1568C25.1054 19.9469 25.4652 20.7511 25.8038 21.5624C25.8461 21.6541 25.8884 21.7529 25.9237 21.8446C26.2129 22.55 26.4951 23.2555 26.7561 23.9679C26.7843 24.0385 26.8125 24.1161 26.8478 24.2007C27.7226 26.6063 30.2198 34.8247 25.7544 33.7171C24.5622 33.2727 23.6451 32.398 22.7774 31.5514C21.8251 30.585 20.9503 29.555 20.125 28.4898C20.2449 28.4687 20.3648 28.4475 20.4847 28.4193C21.4583 29.5127 22.4882 30.585 23.631 31.502C24.2659 32.01 26.4104 33.7101 26.9607 32.4967C27.3487 31.6502 27.0877 30.5285 26.8831 29.6679C26.608 28.518 26.1988 27.3964 25.7614 26.303C25.6838 26.1125 25.6062 25.915 25.5286 25.7245C25.3523 25.2942 25.19 24.9203 25.0772 24.6381C24.8444 24.0526 24.407 23.1285 23.8215 21.9927C23.8003 21.9433 23.7721 21.8869 23.7439 21.8305C23.5181 21.3931 23.2712 20.9204 23.0102 20.4266C22.975 20.3632 22.8832 20.3632 22.848 20.4266C22.5446 20.9557 22.2272 21.4848 21.8956 22.0068C21.8815 22.035 21.8674 22.0562 21.8533 22.0844C20.9221 23.587 19.9133 25.0332 18.8411 26.444C18.7987 26.5005 18.7564 26.5499 18.7211 26.6063C18.2485 27.2271 17.7617 27.8338 17.2609 28.4404C17.2115 28.4969 17.1551 28.5674 17.0986 28.645C15.4338 30.6202 9.5857 36.8704 8.31591 32.4544C8.09722 31.1987 8.40056 29.9642 8.7039 28.7861C9.06367 27.474 9.52221 26.2042 10.0301 24.9556C10.1077 25.0473 10.1853 25.146 10.27 25.2377C9.86787 26.4511 9.52926 27.6786 9.28941 28.9131C9.09894 30.0065 8.92964 31.1705 9.19771 32.2357C9.90315 34.5284 13.5221 30.3451 15.1375 28.2641C15.4691 27.8408 15.716 27.4951 15.843 27.3188C16.238 26.8109 16.8306 25.9643 17.536 24.8709C17.5572 24.8427 17.5783 24.8145 17.5995 24.7792C18.1004 24.0032 18.6506 23.1144 19.2432 22.1479C19.744 21.3155 20.2661 20.4266 20.7951 19.5025C21.3242 18.5784 21.3313 17.3862 20.781 16.448C20.2378 15.5238 19.2432 14.9454 18.1709 14.9524C17.0986 14.9595 15.0881 14.9948 15.0811 14.9948C15.0811 14.9948 12.9154 15.0653 11.9983 15.1147C11.9419 15.1147 11.8854 15.1217 11.829 15.1288C10.5451 15.2064 9.52926 15.291 8.90142 15.3898C8.60514 15.4321 8.20303 15.4815 7.7445 15.545C6.39711 15.7355 5.04972 15.9612 3.74465 16.3492C2.88402 16.6032 1.63539 16.9065 1.16274 17.7601C0.760641 18.4867 1.7412 19.1286 2.29145 19.4531C3.99156 20.4478 6.05144 20.8852 7.96318 21.2661C7.99846 21.386 8.04078 21.506 8.08311 21.6259C6.74983 21.4495 5.4236 21.2167 4.10443 20.8852C2.9334 20.5607 1.71299 20.215 0.725369 19.4108C-2.47733 16.1235 5.81159 14.1271 8.37234 13.6615C8.46405 13.6474 8.5487 13.6333 8.63335 13.6191C9.38817 13.4851 10.143 13.3652 10.8978 13.2664C10.9966 13.2453 11.0953 13.2382 11.1941 13.2241C12.9295 12.9913 14.679 12.8361 16.4285 12.7656C16.4567 12.7656 16.4778 12.7585 16.5131 12.7656C17.1198 12.7373 17.7265 12.7232 18.3332 12.7232C18.4037 12.7232 18.446 12.6456 18.4037 12.5892C18.1215 12.1448 17.8393 11.7074 17.5501 11.2771C17.5148 11.2348 17.4796 11.1854 17.4514 11.136C16.0757 9.08316 14.6649 7.19258 13.381 5.74643C12.9648 5.28084 12.5133 4.85052 12.0406 4.43431C11.4904 3.94756 10.7779 3.28444 10.0301 3.20685C9.16243 3.11514 9.06367 4.21562 9.04956 4.85758C9.00724 6.84692 9.68446 8.89975 10.2911 10.7692C10.1712 10.9032 10.0513 11.0372 9.93842 11.1713C8.21714 7.15026 7.32123 3.48902 9.00724 2.27566C11.3846 1.00587 15.4409 5.56302 17.0916 7.376C17.5219 7.80632 17.9028 8.27896 18.2767 8.75866L19.4054 10.2189C19.6947 10.5928 20.2167 11.3758 20.4989 11.7638C20.8093 12.1942 21.2325 12.5469 21.7404 12.7232C23.0808 13.1818 24.4916 12.5328 25.0278 11.3053C25.19 10.9385 25.3452 10.5716 25.4934 10.2189C26.093 8.76571 26.6573 7.26313 26.9184 5.71116C27.0242 5.06215 27.2288 4.11686 26.869 3.51724C26.4528 2.80474 25.5004 3.2915 24.9572 3.59484C23.243 4.56129 21.8321 6.14148 20.5271 7.59468C20.3507 7.55236 20.1744 7.51708 19.9909 7.48887C22.6011 3.91934 25.3241 1.30921 27.2146 2.16279C29.5003 3.58073 27.5744 9.37945 26.8408 11.7145C26.8125 11.7921 26.7914 11.8626 26.7702 11.9331C26.6291 12.3423 26.481 12.7444 26.3258 13.1465C26.3046 13.1959 26.3258 13.2453 26.3822 13.2523C26.8619 13.3229 27.8143 13.4992 27.8919 13.5133Z" fill="#4D4DFF"/>
</svg>
