<svg width="1190" height="238" viewBox="0 0 1190 238" fill="none" xmlns="http://www.w3.org/2000/svg">
<g clip-path="url(#clip0_4355_7414)">
<path d="M207.446 85.6302C225.127 89.4077 269.83 98.3275 270.512 118.317C269.042 133.691 242.231 141.718 209.912 145.81C210.384 144.551 210.804 143.292 211.171 141.98C221.717 139.672 232.263 137.048 242.284 133.113C247.741 131.015 266.628 123.721 260.7 115.957C256.87 110.919 249.839 108.401 244.068 106.565C234.676 103.522 224.865 101.842 215.106 100.531C214.214 100.426 213.322 100.269 212.43 100.164C209.65 99.7964 206.764 99.4818 203.825 99.1672C198.946 98.6421 194.014 100.006 190.079 102.945C185.514 106.303 182.524 111.602 182.051 117.268C181.737 120.784 182.419 124.403 183.941 127.604C186.721 133.48 189.397 139.461 191.916 145.495C192.23 146.177 192.545 146.912 192.808 147.594C194.958 152.841 197.057 158.088 198.998 163.386C199.208 163.911 199.418 164.488 199.681 165.118C206.187 183.009 224.76 244.134 191.548 235.896C182.681 232.591 175.86 226.085 169.407 219.789C162.324 212.601 155.818 204.94 149.68 197.018C150.571 196.861 151.463 196.703 152.355 196.494C159.596 204.626 167.256 212.601 175.756 219.421C180.478 223.199 196.427 235.844 200.52 226.819C203.406 220.523 201.465 212.181 199.943 205.78C197.897 197.228 194.854 188.886 191.6 180.754C191.023 179.337 190.446 177.868 189.869 176.451C188.558 173.251 187.351 170.47 186.512 168.371C184.78 164.016 181.527 157.143 177.172 148.696C177.015 148.328 176.805 147.909 176.595 147.489C174.916 144.236 173.08 140.72 171.138 137.048C170.877 136.576 170.194 136.576 169.932 137.048C167.675 140.983 165.315 144.918 162.849 148.801C162.744 149.01 162.639 149.168 162.534 149.378C155.608 160.553 148.105 171.309 140.131 181.802C139.815 182.222 139.501 182.59 139.238 183.009C135.723 187.627 132.103 192.139 128.378 196.65C128.011 197.071 127.591 197.595 127.171 198.172C114.789 212.863 71.2936 259.349 61.8496 226.505C60.2231 217.165 62.4792 207.984 64.7353 199.222C67.411 189.463 70.8214 180.019 74.5989 170.732C75.176 171.414 75.7532 172.148 76.3831 172.83C73.3923 181.855 70.8739 190.985 69.09 200.166C67.6734 208.298 66.4142 216.956 68.408 224.878C73.6547 241.93 100.571 210.817 112.585 195.339C115.051 192.191 116.888 189.62 117.832 188.309C120.77 184.531 125.178 178.234 130.424 170.102C130.582 169.893 130.739 169.683 130.896 169.42C134.622 163.649 138.714 157.038 143.121 149.85C146.846 143.659 150.729 137.048 154.664 130.175C158.599 123.302 158.652 114.435 154.559 107.457C150.519 100.583 143.121 96.2814 135.146 96.3335C127.171 96.3863 112.218 96.6488 112.166 96.6488C112.166 96.6488 96.0583 97.1732 89.2374 97.5406C88.8179 97.5406 88.3977 97.5926 87.9782 97.6455C78.4292 98.2226 70.8739 98.8518 66.2043 99.5866C64.0007 99.9012 61.01 100.269 57.5997 100.741C47.5785 102.158 37.5573 103.836 27.8508 106.722C21.4499 108.611 12.1632 110.867 8.64788 117.216C5.65727 122.62 12.9502 127.394 17.0427 129.807C29.6872 137.206 45.0076 140.459 59.2262 143.292C59.4886 144.183 59.8033 145.076 60.1181 145.968C50.2019 144.656 40.338 142.924 30.5267 140.459C21.8172 138.045 12.7404 135.474 5.39493 129.493C-18.4251 105.044 43.2237 90.1953 62.2693 86.7324C62.9514 86.6275 63.581 86.5227 64.2105 86.4171C69.8245 85.4204 75.4386 84.5287 81.0524 83.7939C81.7872 83.6369 82.5213 83.5841 83.2561 83.4792C96.1632 81.7478 109.175 80.5935 122.187 80.0692C122.397 80.0692 122.554 80.0163 122.816 80.0692C127.329 79.8587 131.841 79.7538 136.353 79.7538C136.878 79.7538 137.192 79.1767 136.878 78.7572C134.779 75.452 132.68 72.1988 130.529 68.9983C130.266 68.6835 130.005 68.3162 129.795 67.9489C119.563 52.681 109.07 38.6198 99.5212 27.8641C96.4257 24.4012 93.0677 21.2007 89.552 18.1052C85.4598 14.485 80.1606 9.55302 74.5989 8.97595C68.1456 8.29385 67.411 16.4787 67.3061 21.2533C66.9913 36.049 72.0282 51.3169 76.5401 65.2206C75.6483 66.2176 74.7565 67.2144 73.917 68.2113C61.115 38.3051 54.4517 11.0746 66.9913 2.05026C84.673 -7.39383 114.842 26.5 127.119 39.984C130.319 43.1845 133.152 46.6998 135.933 50.2675L144.328 61.1282C146.479 63.9089 150.362 69.7328 152.461 72.6185C154.769 75.8194 157.917 78.4426 161.694 79.7538C171.663 83.1646 182.156 78.3377 186.144 69.2082C187.351 66.4799 188.505 63.7516 189.607 61.1282C194.067 50.32 198.264 39.1445 200.206 27.6018C200.992 22.7747 202.514 15.7441 199.838 11.2845C196.743 5.98529 189.659 9.60553 185.619 11.8616C172.87 19.0496 162.376 30.8023 152.67 41.6104C151.358 41.2957 150.047 41.0333 148.682 40.8235C168.096 14.2751 188.348 -5.13774 202.409 1.21078C219.408 11.7567 205.085 54.8847 199.628 72.2512C199.418 72.8284 199.261 73.3531 199.103 73.8777C198.054 76.9209 196.952 79.9115 195.798 82.9021C195.64 83.2695 195.798 83.6369 196.218 83.689C199.785 84.2141 206.869 85.5253 207.446 85.6302Z" fill="#4D4DFF"/>
<path d="M326.276 154.43C341.389 174.003 357.742 180.94 380.041 180.94C406.551 180.94 416.214 170.287 416.214 157.898C416.214 146.005 408.533 141.298 385.739 137.582L354.769 132.627C323.799 127.671 304.473 112.806 304.473 82.3314C304.473 46.1579 337.178 25.5938 375.829 25.5938C403.082 25.5938 431.823 34.7609 449.414 60.7758L423.647 81.0923C410.515 63.7489 393.172 56.8116 375.581 56.8116C355.264 56.8116 340.894 65.9788 340.894 79.6055C340.894 91.9934 347.832 96.4537 367.404 99.4265L395.65 103.886C428.849 109.089 452.634 120.487 452.634 154.43C452.634 191.098 422.903 212.406 379.049 212.406C343.124 212.406 321.817 204.973 300.262 176.728L326.276 154.43Z" fill="#0C0C0E"/>
<path d="M595.049 174.25C584.643 201.256 557.389 212.158 530.631 212.158C489.007 212.158 464.479 186.638 464.479 148.235C464.479 108.346 489.75 81.0918 532.613 81.0918C573.494 81.0918 598.517 110.328 596.04 154.925H501.643C504.368 174.25 515.765 184.904 534.1 184.904C549.213 184.904 560.362 179.205 564.822 165.083L595.049 174.25ZM502.634 132.131H559.619C557.142 115.035 546.24 107.354 531.87 107.354C516.756 107.354 506.103 115.778 502.634 132.131Z" fill="#0C0C0E"/>
<path d="M611.397 209.432V28.5664H648.561V209.432H611.397Z" fill="#0C0C0E"/>
<path d="M659.888 84.0648H682.435L691.107 47.3965H715.139V84.0648H748.093V111.319H715.139V163.844C715.139 179.205 719.104 184.161 732.235 184.161C737.19 184.161 742.641 183.417 748.837 182.179V208.441C739.172 210.671 730.996 211.91 718.856 211.91C691.602 211.91 677.975 200.018 677.975 175.736V111.319H659.888V84.0648Z" fill="#0C0C0E"/>
<path d="M801.502 212.158C774.497 212.158 757.405 196.796 757.405 177.471C757.405 157.402 773.009 148.483 792.339 142.784L846.596 126.928C845.852 113.796 835.202 107.602 822.811 107.602C809.929 107.602 795.307 113.053 786.635 133.865L757.651 122.468C770.778 90.7546 796.794 81.0918 825.533 81.0918C863.442 81.0918 883.017 99.6736 883.017 130.644V169.295C883.017 178.957 885.739 183.169 893.422 183.169C896.888 183.169 901.351 182.426 904.571 180.939V207.202C898.629 209.928 892.188 211.91 881.53 211.91C863.695 211.91 853.037 202.247 850.56 190.602H849.571C840.155 204.229 824.544 212.158 801.502 212.158ZM795.061 173.506C795.061 179.949 801.011 184.656 811.907 184.656C828.508 184.656 842.877 176.975 846.596 161.119V149.226L808.687 161.862C800.758 164.587 795.061 167.065 795.061 173.506Z" fill="#0C0C0E"/>
<path d="M1003.88 115.779C1001.15 115.036 997.19 114.293 993.717 114.293C968.452 114.293 952.595 128.911 952.595 164.589V209.433H915.43V84.0657H951.851V107.851H952.342C955.815 98.9318 963 91.7464 971.174 87.5346C977.615 84.0657 984.799 82.332 991.739 82.332C996.937 82.332 1000.66 82.8274 1003.88 83.818V115.779Z" fill="#0C0C0E"/>
<path d="M1015 209.432V84.0646H1052.16V209.432H1015ZM1015 65.7306V28.5664H1052.16V65.7306H1015Z" fill="#0C0C0E"/>
<path d="M1090.49 167.312C1097.68 178.462 1109.57 186.638 1129.39 186.638C1144.5 186.638 1156.15 181.931 1156.15 173.011C1156.15 165.33 1147.48 162.605 1137.57 161.614L1107.84 158.889C1091.48 157.402 1068.94 148.483 1069.19 121.972C1069.68 95.7095 1093.71 81.0918 1127.16 81.0918C1149.71 81.0918 1172.25 87.2857 1186.38 105.372L1165.31 122.963C1154.66 111.071 1141.28 106.859 1126.92 106.859C1112.3 106.859 1101.89 111.071 1101.89 118.752C1101.89 126.185 1109.57 128.91 1118.49 129.653L1144.5 132.131C1162.09 133.865 1188.61 140.555 1188.61 170.038C1188.61 197.787 1163.34 212.405 1128.65 212.405C1096.19 212.405 1076.62 201.008 1064.23 179.453L1090.49 167.312Z" fill="#0C0C0E"/>
</g>
<defs>
<clipPath id="clip0_4355_7414">
<rect width="1190" height="238" fill="white"/>
</clipPath>
</defs>
</svg>
