<svg preserveAspectRatio="none" width="100%" height="100%" overflow="visible" style="display: block;" viewBox="0 0 15.1191 15.1191" fill="none" xmlns="http://www.w3.org/2000/svg">
<g id="Group">
<g id="Vector">
</g>
<path id="Vector_2" fill-rule="evenodd" clip-rule="evenodd" d="M13.5732 3.21947C13.7503 3.39667 13.8498 3.63698 13.8498 3.88754C13.8498 4.13811 13.7503 4.37841 13.5732 4.55562L6.49051 11.6383C6.39691 11.7319 6.28579 11.8062 6.16349 11.8568C6.04118 11.9075 5.91009 11.9336 5.77771 11.9336C5.64533 11.9336 5.51424 11.9075 5.39194 11.8568C5.26963 11.8062 5.15851 11.7319 5.06491 11.6383L1.54594 8.11994C1.45569 8.03277 1.3837 7.9285 1.33418 7.81322C1.28466 7.69793 1.25859 7.57393 1.2575 7.44847C1.25641 7.323 1.28032 7.19857 1.32783 7.08244C1.37534 6.96631 1.44551 6.8608 1.53423 6.77208C1.62295 6.68336 1.72846 6.61319 1.84459 6.56568C1.96072 6.51817 2.08515 6.49426 2.21062 6.49535C2.33609 6.49644 2.46008 6.52251 2.57537 6.57203C2.69065 6.62155 2.79492 6.69354 2.88209 6.78379L5.7774 9.6791L12.2364 3.21947C12.3241 3.13166 12.4283 3.062 12.543 3.01447C12.6577 2.96695 12.7806 2.94249 12.9048 2.94249C13.0289 2.94249 13.1519 2.96695 13.2665 3.01447C13.3812 3.062 13.4854 3.13166 13.5732 3.21947Z" fill="var(--fill-0, white)"/>
</g>
</svg>
