<svg width="14" height="14" viewBox="0 0 14 14" fill="none" xmlns="http://www.w3.org/2000/svg">
<g clip-path="url(#clip0_4632_25070)">
<g clip-path="url(#clip1_4632_25070)">
<path d="M13.3002 1.4V4.305C13.2999 6.35711 12.7046 8.36512 11.5865 10.0858C10.4683 11.8066 8.87526 13.1662 7.00019 14C5.12513 13.1662 3.53205 11.8066 2.4139 10.0858C1.29574 8.36512 0.700476 6.35711 0.700195 4.305V1.4H1.0712C3.12962 1.40168 5.15994 0.922264 7.00019 0C8.84045 0.922264 10.8708 1.40168 12.9292 1.4H13.3002Z" fill="#3A3943"/>
<path d="M6.46918 8.76288C6.33126 8.76315 6.19849 8.71054 6.09818 8.61588L4.50218 7.04788C4.40831 6.94927 4.35641 6.81805 4.35744 6.68191C4.35847 6.54576 4.41235 6.41534 4.5077 6.31817C4.60306 6.22099 4.73244 6.16466 4.86855 6.16106C5.00465 6.15747 5.13682 6.20688 5.23718 6.29888L6.46918 7.50288L9.46518 4.55588C9.56362 4.45757 9.69706 4.40234 9.83618 4.40234C9.97531 4.40234 10.1087 4.45757 10.2072 4.55588C10.3055 4.65432 10.3607 4.78776 10.3607 4.92688C10.3607 5.06601 10.3055 5.19944 10.2072 5.29788L6.84018 8.60888C6.74182 8.70737 6.60838 8.76276 6.46918 8.76288Z" fill="white"/>
</g>
</g>
<defs>
<clipPath id="clip0_4632_25070">
<rect width="14" height="14" fill="white"/>
</clipPath>
<clipPath id="clip1_4632_25070">
<rect width="14" height="14" fill="white"/>
</clipPath>
</defs>
</svg>
