<svg width="14" height="14" viewBox="0 0 14 14" fill="none" xmlns="http://www.w3.org/2000/svg">
<g clip-path="url(#clip0_4632_25077)">
<path d="M6.99966 0.700684C3.90566 0.700684 1.39966 1.95368 1.39966 3.50068C1.39966 5.04768 3.90566 6.30068 6.99966 6.30068C10.0937 6.30068 12.5997 5.04768 12.5997 3.50068C12.5997 1.95368 10.0937 0.700684 6.99966 0.700684ZM1.39966 4.90068V7.00068C1.39966 8.54768 3.90566 9.80068 6.99966 9.80068C10.0937 9.80068 12.5997 8.54768 12.5997 7.00068V4.90068C12.5997 6.44768 10.0937 7.70068 6.99966 7.70068C3.90566 7.70068 1.39966 6.44768 1.39966 4.90068ZM1.39966 8.40068V10.5007C1.39966 12.0477 3.90566 13.3007 6.99966 13.3007C10.0937 13.3007 12.5997 12.0477 12.5997 10.5007V8.40068C12.5997 9.94768 10.0937 11.2007 6.99966 11.2007C3.90566 11.2007 1.39966 9.94768 1.39966 8.40068Z" fill="#3A3943"/>
</g>
<defs>
<clipPath id="clip0_4632_25077">
<rect width="14" height="14" fill="white"/>
</clipPath>
</defs>
</svg>
