<svg width="60" height="60" viewBox="0 0 60 60" fill="none" xmlns="http://www.w3.org/2000/svg">
<rect width="60" height="60" rx="12" fill="white"/>
<path d="M36.698 28.5009H44.4118C43.9642 21.6451 38.4825 16.1634 31.6267 15.7158V23.4268C34.2407 23.8202 36.3046 25.884 36.698 28.5009Z" fill="#0BA4A4"/>
<path d="M23.5513 31.4993H15.8403C16.2879 38.355 21.7696 43.8368 28.6254 44.2843V36.5734C26.0114 36.18 23.9447 34.1133 23.5513 31.4993Z" fill="#0BA4A4"/>
<path d="M15.8403 29.6806H23.5513C23.9447 27.0637 26.0114 24.9999 28.6254 24.6065V16.8955C21.7696 17.3431 16.2879 22.822 15.8403 29.6806Z" fill="#0BA4A4"/>
<path d="M30.4469 36.5734V44.2843C37.3027 43.8368 42.7844 38.3522 43.232 31.4993H35.5182C35.1248 34.1133 33.0609 36.18 30.4469 36.5734Z" fill="#0BA4A4"/>
</svg>
