<svg width="16" height="16" viewBox="0 0 16 16" fill="none" xmlns="http://www.w3.org/2000/svg">
<g clip-path="url(#clip0_4632_25090)">
<path d="M11.2207 7.26672H15.0008C14.7815 3.9071 12.0952 1.22078 8.7356 1.00146V4.78018C10.0166 4.97296 11.028 5.98434 11.2207 7.26672Z" fill="#3A3943"/>
<path d="M4.77797 8.73633H0.999268C1.21859 12.096 3.90489 14.7823 7.26452 15.0016V11.2229C5.98353 11.0301 4.97075 10.0173 4.77797 8.73633Z" fill="#3A3943"/>
<path d="M0.999268 7.84436H4.77797C4.97075 6.56198 5.98353 5.5506 7.26452 5.35782V1.5791C3.90489 1.79842 1.21859 4.48334 0.999268 7.84436Z" fill="#3A3943"/>
<path d="M8.15723 11.2229V15.0016C11.5169 14.7823 14.2032 12.0946 14.4225 8.73633H10.6424C10.4496 10.0173 9.43821 11.0301 8.15723 11.2229Z" fill="#3A3943"/>
</g>
<defs>
<clipPath id="clip0_4632_25090">
<rect width="16" height="16" fill="white"/>
</clipPath>
</defs>
</svg>
