<svg width="14" height="14" viewBox="0 0 14 14" fill="none" xmlns="http://www.w3.org/2000/svg">
<g clip-path="url(#clip0_4632_25061)">
<path d="M0 6.6765C0 4.92432 1.42188 3.50244 3.17406 3.50244C4.01625 3.50244 4.82344 3.83713 5.41844 4.43213L7 6.0115L8.57938 4.43213C9.17656 3.83713 9.98375 3.50244 10.8259 3.50244C12.5781 3.50244 14 4.92432 14 6.6765V7.32619C14 9.08057 12.5781 10.5024 10.8259 10.5024C9.98375 10.5024 9.17656 10.1678 8.58156 9.57275L7 7.99338L5.42062 9.57275C4.82344 10.1678 4.01625 10.5024 3.17406 10.5024C1.42188 10.5024 0 9.08057 0 7.32838V6.67869V6.6765ZM6.00906 7.00244L4.42969 5.42307C4.09719 5.09057 3.64438 4.90244 3.17406 4.90244C2.19406 4.90244 1.4 5.6965 1.4 6.6765V7.32619C1.4 8.30619 2.19406 9.10025 3.17406 9.10025C3.64438 9.10025 4.09719 8.91432 4.42969 8.57963L6.00906 7.00244ZM7.98875 7.00244L9.56812 8.58182C9.90062 8.91432 10.3534 9.10244 10.8237 9.10244C11.8037 9.10244 12.5978 8.30838 12.5978 7.32838V6.67869C12.5978 5.69869 11.8037 4.90463 10.8237 4.90463C10.3534 4.90463 9.90062 5.09057 9.56812 5.42525L7.99094 7.00244H7.98875Z" fill="#3A3943"/>
</g>
<defs>
<clipPath id="clip0_4632_25061">
<rect width="14" height="14" fill="white"/>
</clipPath>
</defs>
</svg>
