<svg width="14" height="14" viewBox="0 0 14 14" fill="none" xmlns="http://www.w3.org/2000/svg">
<path d="M7.99793 7L10.7912 4.20674C10.9238 4.0744 10.9983 3.89483 10.9985 3.70751C10.9987 3.5202 10.9244 3.34049 10.7921 3.20793C10.6597 3.07536 10.4802 3.00079 10.2929 3.00062C10.1055 3.00046 9.92583 3.07471 9.79326 3.20704L7 6.00031L4.20674 3.20704C4.07417 3.07448 3.89437 3 3.70689 3C3.51941 3 3.33961 3.07448 3.20704 3.20704C3.07448 3.33961 3 3.51941 3 3.70689C3 3.89437 3.07448 4.07417 3.20704 4.20674L6.00031 7L3.20704 9.79326C3.07448 9.92583 3 10.1056 3 10.2931C3 10.4806 3.07448 10.6604 3.20704 10.793C3.33961 10.9255 3.51941 11 3.70689 11C3.89437 11 4.07417 10.9255 4.20674 10.793L7 7.99969L9.79326 10.793C9.92583 10.9255 10.1056 11 10.2931 11C10.4806 11 10.6604 10.9255 10.793 10.793C10.9255 10.6604 11 10.4806 11 10.2931C11 10.1056 10.9255 9.92583 10.793 9.79326L7.99793 7Z" fill="#0F2459"/>
</svg>
