<svg width="48" height="48" viewBox="0 0 48 48" fill="none" xmlns="http://www.w3.org/2000/svg">
<g filter="url(#filter0_i_4103_30302)">
<rect width="48" height="48" rx="12" fill="url(#paint0_linear_4103_30302)"/>
</g>
<rect x="0.5" y="0.5" width="47" height="47" rx="11.5" stroke="url(#paint1_linear_4103_30302)"/>
<path d="M31.205 20.635C32.988 21.0159 37.4958 21.9154 37.5646 23.9312C37.4164 25.4814 34.7128 26.2909 31.4537 26.7035C31.5013 26.5766 31.5436 26.4496 31.5807 26.3173C32.6441 26.0845 33.7076 25.82 34.7181 25.4232C35.2684 25.2115 37.1731 24.4761 36.5752 23.6931C36.189 23.1852 35.48 22.9312 34.898 22.746C33.951 22.4392 32.9616 22.2699 31.9775 22.1376C31.8875 22.127 31.7976 22.1111 31.7077 22.1005C31.4272 22.0635 31.1363 22.0318 30.84 22C30.3479 21.9471 29.8506 22.0847 29.4538 22.381C28.9935 22.7196 28.6919 23.2539 28.6443 23.8253C28.6125 24.1798 28.6813 24.5449 28.8348 24.8676C29.1152 25.4602 29.385 26.0634 29.639 26.6718C29.6707 26.7406 29.7024 26.8147 29.7289 26.8834C29.9458 27.4125 30.1575 27.9416 30.3532 28.476C30.3744 28.5289 30.3955 28.5871 30.422 28.6506C31.0781 30.4547 32.951 36.6185 29.6019 35.7878C28.7078 35.4545 28.02 34.7985 27.3692 34.1636C26.6549 33.4387 25.9989 32.6663 25.3799 31.8674C25.4698 31.8515 25.5598 31.8356 25.6497 31.8145C26.3798 32.6345 27.1523 33.4387 28.0094 34.1265C28.4856 34.5075 30.094 35.7826 30.5066 34.8725C30.7976 34.2376 30.6019 33.3964 30.4485 32.7509C30.2421 31.8885 29.9352 31.0473 29.6072 30.2272C29.549 30.0844 29.4908 29.9362 29.4326 29.7934C29.3003 29.4706 29.1787 29.1902 29.094 28.9786C28.9194 28.5395 28.5914 27.8464 28.1522 26.9945C28.1364 26.9575 28.1152 26.9152 28.094 26.8729C27.9247 26.5448 27.7396 26.1903 27.5438 25.82C27.5173 25.7724 27.4486 25.7724 27.4221 25.82C27.1946 26.2168 26.9565 26.6136 26.7079 27.0051C26.6973 27.0263 26.6867 27.0422 26.6761 27.0633C25.9777 28.1903 25.2211 29.2749 24.4169 30.333C24.3852 30.3754 24.3534 30.4124 24.327 30.4547C23.9725 30.9203 23.6074 31.3753 23.2318 31.8303C23.1948 31.8727 23.1524 31.9256 23.1101 31.9838C21.8615 33.4652 17.4754 38.1528 16.5231 34.8408C16.359 33.899 16.5866 32.9731 16.8141 32.0896C17.0839 31.1055 17.4278 30.1531 17.8087 29.2167C17.8669 29.2855 17.9251 29.3595 17.9886 29.4283C17.687 30.3383 17.4331 31.2589 17.2532 32.1848C17.1103 33.0049 16.9834 33.8779 17.1844 34.6768C17.7135 36.3963 20.4277 33.2588 21.6393 31.6981C21.8879 31.3806 22.0731 31.1214 22.1683 30.9891C22.4646 30.6082 22.9091 29.9733 23.4381 29.1532C23.454 29.132 23.4699 29.1109 23.4858 29.0844C23.8614 28.5024 24.2741 27.8358 24.7185 27.1109C25.0942 26.4866 25.4857 25.82 25.8825 25.1269C26.2793 24.4338 26.2846 23.5396 25.8719 22.836C25.4645 22.1429 24.7185 21.709 23.9143 21.7143C23.1101 21.7196 21.6022 21.7461 21.5969 21.7461C21.5969 21.7461 19.9727 21.799 19.2849 21.836C19.2425 21.836 19.2002 21.8413 19.1579 21.8466C18.195 21.9048 17.4331 21.9683 16.9622 22.0423C16.74 22.0741 16.4384 22.1111 16.0945 22.1587C15.084 22.3016 14.0734 22.4709 13.0946 22.7619C12.4491 22.9524 11.5127 23.1799 11.1582 23.8201C10.8566 24.365 11.592 24.8465 12.0047 25.0899C13.2798 25.8359 14.8247 26.1639 16.2585 26.4496C16.285 26.5395 16.3167 26.6295 16.3485 26.7194C15.3485 26.5871 14.3538 26.4126 13.3645 26.1639C12.4862 25.9205 11.5709 25.6613 10.8302 25.0581C8.42814 22.5926 14.6448 21.0953 16.5654 20.7461C16.6342 20.7355 16.6977 20.7249 16.7611 20.7144C17.3273 20.6138 17.8934 20.5239 18.4595 20.4498C18.5336 20.4339 18.6076 20.4287 18.6817 20.4181C19.9832 20.2435 21.2954 20.1271 22.6075 20.0742C22.6286 20.0742 22.6445 20.0689 22.671 20.0742C23.126 20.053 23.581 20.0424 24.036 20.0424C24.0889 20.0424 24.1207 19.9842 24.0889 19.9419C23.8773 19.6086 23.6656 19.2806 23.4487 18.9578C23.4223 18.9261 23.3958 18.889 23.3747 18.852C22.3429 17.3124 21.2848 15.8944 20.3219 14.8098C20.0097 14.4606 19.6711 14.1379 19.3166 13.8257C18.9039 13.4607 18.3696 12.9633 17.8087 12.9051C17.158 12.8364 17.0839 13.6617 17.0733 14.1432C17.0416 15.6352 17.5495 17.1748 18.0045 18.5769C17.9145 18.6774 17.8246 18.7779 17.7399 18.8784C16.449 15.8627 15.7771 13.1168 17.0416 12.2067C18.8246 11.2544 21.8668 14.6723 23.1048 16.032C23.4276 16.3547 23.7133 16.7092 23.9937 17.069L24.8402 18.1642C25.0571 18.4446 25.4486 19.0319 25.6603 19.3229C25.8931 19.6456 26.2105 19.9102 26.5915 20.0424C27.5967 20.3863 28.6549 19.8996 29.057 18.979C29.1787 18.7039 29.2951 18.4287 29.4062 18.1642C29.8559 17.0743 30.2791 15.9473 30.4749 14.7834C30.5543 14.2966 30.7077 13.5876 30.4379 13.1379C30.1257 12.6036 29.4115 12.9686 29.0041 13.1961C27.7184 13.921 26.6602 15.1061 25.6814 16.196C25.5492 16.1643 25.4169 16.1378 25.2793 16.1167C27.2369 13.4395 29.2792 11.4819 30.6971 12.1221C32.4113 13.1855 30.9669 17.5346 30.4167 19.2858C30.3955 19.344 30.3797 19.3969 30.3638 19.4499C30.258 19.7567 30.1469 20.0583 30.0305 20.3599C30.0146 20.3969 30.0305 20.4339 30.0728 20.4392C30.4326 20.4921 31.1468 20.6244 31.205 20.635Z" fill="white"/>
<defs>
<filter id="filter0_i_4103_30302" x="0" y="0" width="48" height="52" filterUnits="userSpaceOnUse" color-interpolation-filters="sRGB">
<feFlood flood-opacity="0" result="BackgroundImageFix"/>
<feBlend mode="normal" in="SourceGraphic" in2="BackgroundImageFix" result="shape"/>
<feColorMatrix in="SourceAlpha" type="matrix" values="0 0 0 0 0 0 0 0 0 0 0 0 0 0 0 0 0 0 127 0" result="hardAlpha"/>
<feOffset dy="4"/>
<feGaussianBlur stdDeviation="3"/>
<feComposite in2="hardAlpha" operator="arithmetic" k2="-1" k3="1"/>
<feColorMatrix type="matrix" values="0 0 0 0 1 0 0 0 0 1 0 0 0 0 1 0 0 0 0.6 0"/>
<feBlend mode="normal" in2="shape" result="effect1_innerShadow_4103_30302"/>
</filter>
<linearGradient id="paint0_linear_4103_30302" x1="5.8" y1="6" x2="47.5" y2="47" gradientUnits="userSpaceOnUse">
<stop stop-color="#121214"/>
<stop offset="0.248493" stop-color="#505256"/>
<stop offset="0.706174" stop-color="#212124"/>
<stop offset="0.885" stop-color="#5D6064"/>
</linearGradient>
<linearGradient id="paint1_linear_4103_30302" x1="24" y1="0" x2="24" y2="41" gradientUnits="userSpaceOnUse">
<stop stop-color="white" stop-opacity="0.53"/>
<stop offset="1" stop-color="white" stop-opacity="0"/>
</linearGradient>
</defs>
</svg>
