<svg width="60" height="60" viewBox="0 0 60 60" fill="none" xmlns="http://www.w3.org/2000/svg">
<rect width="60" height="60" rx="12" fill="white"/>
<g clip-path="url(#clip0_4615_6224)">
<path d="M22.0755 18.4695C23.0308 18.4695 23.947 18.849 24.6225 19.5245C25.298 20.2 25.6775 21.1162 25.6775 22.0715C25.6775 23.0269 25.298 23.9431 24.6225 24.6186C23.947 25.2941 23.0308 25.6736 22.0755 25.6736C21.1202 25.6736 20.204 25.2941 19.5285 24.6186C18.8529 23.9431 18.4734 23.0269 18.4734 22.0715C18.4734 21.1162 18.8529 20.2 19.5285 19.5245C20.204 18.849 21.1202 18.4695 22.0755 18.4695ZM38.6449 18.4695C39.6002 18.4695 40.5164 18.849 41.192 19.5245C41.8675 20.2 42.247 21.1162 42.247 22.0715C42.247 23.0269 41.8675 23.9431 41.192 24.6186C40.5164 25.2941 39.6002 25.6736 38.6449 25.6736C37.6896 25.6736 36.7734 25.2941 36.0979 24.6186C35.4224 23.9431 35.0429 23.0269 35.0429 22.0715C35.0429 21.1162 35.4224 20.2 36.0979 19.5245C36.7734 18.849 37.6896 18.4695 38.6449 18.4695ZM15.5918 31.9186C15.5918 29.2666 17.744 27.1144 20.396 27.1144H22.3186C23.0345 27.1144 23.7144 27.272 24.3268 27.5512C24.2682 27.8753 24.2412 28.213 24.2412 28.5552C24.2412 30.2752 24.9977 31.8196 26.1908 32.8777H16.5508C16.024 32.8777 15.5918 32.4454 15.5918 31.9186ZM33.8407 32.8777H33.8092C35.0069 31.8196 35.7588 30.2752 35.7588 28.5552C35.7588 28.213 35.7273 27.8798 35.6732 27.5512C36.2856 27.2675 36.9655 27.1144 37.6814 27.1144H39.604C42.256 27.1144 44.4082 29.2666 44.4082 31.9186C44.4082 32.4499 43.976 32.8777 43.4492 32.8777H33.8452H33.8407ZM25.6775 28.5552C25.6775 27.4088 26.1329 26.3094 26.9436 25.4988C27.7542 24.6882 28.8536 24.2328 30 24.2328C31.1464 24.2328 32.2458 24.6882 33.0564 25.4988C33.8671 26.3094 34.3225 27.4088 34.3225 28.5552C34.3225 29.7016 33.8671 30.801 33.0564 31.6117C32.2458 32.4223 31.1464 32.8777 30 32.8777C28.8536 32.8777 27.7542 32.4223 26.9436 31.6117C26.1329 30.801 25.6775 29.7016 25.6775 28.5552ZM21.3551 40.3204C21.3551 37.0065 24.0431 34.3185 27.357 34.3185H32.6385C35.9569 34.3185 38.6449 37.0065 38.6449 40.3204C38.6449 40.9823 38.1091 41.5226 37.4427 41.5226H22.5528C21.8909 41.5226 21.3506 40.9868 21.3506 40.3204H21.3551Z" fill="#564DE0"/>
</g>
<defs>
<clipPath id="clip0_4615_6224">
<rect width="28.8164" height="28.8164" fill="white" transform="translate(15.5918 15.5898)"/>
</clipPath>
</defs>
</svg>
