<svg width="60" height="60" viewBox="0 0 60 60" fill="none" xmlns="http://www.w3.org/2000/svg">
<rect width="60" height="60" rx="12" fill="#000040"/>
<path d="M30.4985 12.9982C26.4034 13.0226 23.1206 16.4065 23.1206 20.5021V23.6179C23.1206 24.0434 23.5302 24.349 23.938 24.2274C24.3891 24.0928 24.8384 23.9548 25.2769 23.8173C25.5422 23.7344 25.7217 23.4884 25.7217 23.2106V20.4823C25.7217 17.8278 27.8411 15.6254 30.4956 15.5999C33.1757 15.5743 35.3638 17.7465 35.3638 20.4209V23.2112C35.3638 23.489 35.5439 23.7344 35.8086 23.8179C36.2471 23.9553 36.6965 24.0939 37.1481 24.2286C37.5554 24.3501 37.9649 24.0445 37.9649 23.619V20.4209C37.9649 16.3128 34.6112 12.9743 30.4985 12.9982Z" fill="url(#paint0_linear_4615_6219)"/>
<g clip-path="url(#paint1_angular_4615_6219_clip_path)" data-figma-skip-parse="true"><g transform="matrix(0 -0.0118016 0.0114555 0 30.5433 35.2293)"><foreignObject x="-1036.19" y="-1036.19" width="2072.39" height="2072.39"><div xmlns="http://www.w3.org/1999/xhtml" style="background:conic-gradient(from 90deg,rgba(5, 252, 193, 1) 0deg,rgba(23, 86, 253, 1) 177.371deg,rgba(5, 252, 193, 1) 360deg);height:100%;width:100%;opacity:1"></div></foreignObject></g></g><path d="M41.9613 29.5288C41.9709 34.7134 41.2427 41.4869 32.3595 46.5192C31.796 46.8385 31.17 46.9981 30.5434 46.9981C29.9169 46.9981 29.2909 46.8379 28.7274 46.5192C19.8442 41.4869 19.1159 34.7134 19.1256 29.5282C19.129 27.8587 20.2594 26.4022 21.8755 25.9842C22.2817 25.8791 22.6992 25.766 23.1213 25.6467C23.9898 25.4019 24.8771 25.1332 25.7224 24.8668C27.1476 24.418 28.453 23.9767 29.3443 23.6682C29.7328 23.5342 30.1378 23.4666 30.5434 23.4666C30.949 23.4666 31.354 23.5342 31.7426 23.6682C32.6339 23.9767 33.9392 24.418 35.3645 24.8668C36.2092 25.1332 37.0965 25.4019 37.9656 25.6467C38.3877 25.766 38.8052 25.8796 39.2119 25.9847C40.8274 26.4028 41.9579 27.8593 41.9613 29.5288Z" data-figma-gradient-fill="{&#34;type&#34;:&#34;GRADIENT_ANGULAR&#34;,&#34;stops&#34;:[{&#34;color&#34;:{&#34;r&#34;:0.090196080505847931,&#34;g&#34;:0.33725491166114807,&#34;b&#34;:0.99215686321258545,&#34;a&#34;:1.0},&#34;position&#34;:0.4926980733871460},{&#34;color&#34;:{&#34;r&#34;:0.019607843831181526,&#34;g&#34;:0.98823529481887817,&#34;b&#34;:0.75686275959014893,&#34;a&#34;:1.0},&#34;position&#34;:1.0}],&#34;stopsVar&#34;:[{&#34;color&#34;:{&#34;r&#34;:0.090196080505847931,&#34;g&#34;:0.33725491166114807,&#34;b&#34;:0.99215686321258545,&#34;a&#34;:1.0},&#34;position&#34;:0.4926980733871460},{&#34;color&#34;:{&#34;r&#34;:0.019607843831181526,&#34;g&#34;:0.98823529481887817,&#34;b&#34;:0.75686275959014893,&#34;a&#34;:1.0},&#34;position&#34;:1.0}],&#34;transform&#34;:{&#34;m00&#34;:3.3335687725857821e-13,&#34;m01&#34;:22.911006927490234,&#34;m02&#34;:19.087749481201172,&#34;m10&#34;:-23.603172302246094,&#34;m11&#34;:-5.2711990328191405e-09,&#34;m12&#34;:47.030845642089844},&#34;opacity&#34;:1.0,&#34;blendMode&#34;:&#34;NORMAL&#34;,&#34;visible&#34;:true}"/>
<path d="M31.869 31.4061C32.3302 31.8668 32.5353 32.545 32.3529 33.2136C32.2632 33.5403 32.0933 33.8249 31.869 34.0487L31.8655 34.0521C31.6412 34.2759 31.385 34.8905 31.385 34.8905C31.2026 35.5591 31.4077 36.2374 31.8655 36.6952L31.8718 36.7015C32.0899 36.919 32.2598 37.1974 32.3461 37.5206C32.3683 37.5945 32.3847 37.674 32.3972 37.7575C32.4069 37.8376 32.4131 37.9205 32.4131 38.004C32.4166 38.1671 32.3938 38.3369 32.349 38.5033C32.3075 38.6664 32.2433 38.8203 32.1632 38.9578C32.0797 39.0987 31.9837 39.2265 31.8684 39.3418L31.865 39.3452C31.7497 39.4543 31.6213 39.5565 31.4838 39.6366C31.4134 39.6752 31.3429 39.7133 31.2657 39.7457C31.189 39.7775 31.1055 39.803 31.0254 39.8258C30.9391 39.8479 30.859 39.8644 30.772 39.8741C30.6698 39.8865 30.567 39.8934 30.4647 39.8865C30.4039 39.8831 30.3398 39.8769 30.2818 39.8706C29.8779 39.8133 29.5064 39.6275 29.2213 39.3429C28.9935 39.1157 28.8242 38.8311 28.7344 38.5045C28.6992 38.367 28.6771 38.2227 28.6737 38.079C28.6674 37.983 28.6737 37.887 28.6867 37.791C28.6964 37.7047 28.7123 37.6246 28.735 37.5382C28.7543 37.4553 28.7833 37.3752 28.8151 37.2979C28.8469 37.2213 28.8855 37.1508 28.9242 37.0804C29.0077 36.9395 29.1037 36.8117 29.219 36.6964C29.4434 36.4726 29.6132 36.1874 29.703 35.8613C29.8825 35.1893 29.6774 34.5111 29.219 34.0538C28.7577 33.5931 28.5527 32.9148 28.735 32.2457C28.8248 31.9191 28.9946 31.6345 29.219 31.4106C29.674 30.9562 30.3562 30.7483 31.026 30.9244C31.356 31.0107 31.6446 31.1834 31.869 31.4078V31.4061Z" fill="#1409FF"/>
<defs>
<clipPath id="paint1_angular_4615_6219_clip_path"><path d="M41.9613 29.5288C41.9709 34.7134 41.2427 41.4869 32.3595 46.5192C31.796 46.8385 31.17 46.9981 30.5434 46.9981C29.9169 46.9981 29.2909 46.8379 28.7274 46.5192C19.8442 41.4869 19.1159 34.7134 19.1256 29.5282C19.129 27.8587 20.2594 26.4022 21.8755 25.9842C22.2817 25.8791 22.6992 25.766 23.1213 25.6467C23.9898 25.4019 24.8771 25.1332 25.7224 24.8668C27.1476 24.418 28.453 23.9767 29.3443 23.6682C29.7328 23.5342 30.1378 23.4666 30.5434 23.4666C30.949 23.4666 31.354 23.5342 31.7426 23.6682C32.6339 23.9767 33.9392 24.418 35.3645 24.8668C36.2092 25.1332 37.0965 25.4019 37.9656 25.6467C38.3877 25.766 38.8052 25.8796 39.2119 25.9847C40.8274 26.4028 41.9579 27.8593 41.9613 29.5288Z"/></clipPath><linearGradient id="paint0_linear_4615_6219" x1="30.544" y1="12.9988" x2="30.1528" y2="24.2395" gradientUnits="userSpaceOnUse">
<stop stop-color="#00CBFF"/>
<stop offset="0.5" stop-color="#05FCC1"/>
</linearGradient>
</defs>
</svg>
