<svg width="48" height="48" viewBox="0 0 48 48" fill="none" xmlns="http://www.w3.org/2000/svg">
<g filter="url(#filter0_i_4103_30243)">
<rect width="48" height="48" rx="12" fill="url(#paint0_linear_4103_30243)"/>
<rect x="0.5" y="0.5" width="47" height="47" rx="11.5" stroke="url(#paint1_linear_4103_30243)"/>
<path d="M32.4923 20.0742C34.5725 20.5186 39.8315 21.5679 39.9118 23.9197C39.7389 25.7283 36.5847 26.6727 32.7824 27.1541C32.838 27.006 32.8873 26.8579 32.9306 26.7035C34.1712 26.4319 35.4119 26.1233 36.5909 25.6604C37.2329 25.4135 39.455 24.5555 38.7575 23.6419C38.3069 23.0494 37.4798 22.7531 36.8008 22.537C35.6959 22.179 34.5416 21.9815 33.3935 21.8272C33.2886 21.8148 33.1836 21.7963 33.0787 21.784C32.7515 21.7408 32.4121 21.7037 32.0664 21.6667C31.4923 21.605 30.9121 21.7655 30.4492 22.1111C29.9122 22.5062 29.5603 23.1296 29.5048 23.7962C29.4677 24.2098 29.548 24.6357 29.727 25.0122C30.0541 25.7036 30.3689 26.4073 30.6652 27.1171C30.7022 27.1973 30.7393 27.2838 30.7701 27.364C31.0232 27.9813 31.2701 28.5985 31.4985 29.222C31.5232 29.2837 31.5479 29.3516 31.5788 29.4257C32.3442 31.5305 34.5293 38.7216 30.622 37.7525C29.5788 37.3636 28.7764 36.5982 28.0172 35.8575C27.1839 35.0119 26.4185 34.1107 25.6963 33.1786C25.8012 33.1601 25.9061 33.1416 26.0111 33.1169C26.8629 34.0736 27.7641 35.0119 28.764 35.8143C29.3196 36.2587 31.1961 37.7463 31.6775 36.6846C32.017 35.9439 31.7886 34.9625 31.6096 34.2094C31.3689 33.2033 31.0109 32.2218 30.6282 31.2651C30.5603 31.0984 30.4924 30.9256 30.4245 30.7589C30.2702 30.3824 30.1282 30.0553 30.0294 29.8084C29.8257 29.296 29.443 28.4874 28.9307 27.4936C28.9122 27.4504 28.8875 27.401 28.8628 27.3517C28.6653 26.969 28.4492 26.5554 28.2209 26.1233C28.19 26.0678 28.1098 26.0678 28.0789 26.1233C27.8135 26.5863 27.5357 27.0492 27.2456 27.506C27.2332 27.5307 27.2209 27.5492 27.2086 27.5739C26.3938 28.8886 25.5111 30.154 24.5729 31.3885C24.5358 31.4379 24.4988 31.4811 24.4679 31.5305C24.0544 32.0737 23.6284 32.6045 23.1902 33.1354C23.147 33.1848 23.0976 33.2465 23.0482 33.3144C21.5915 35.0427 16.4744 40.5116 15.3633 36.6476C15.172 35.5489 15.4374 34.4687 15.7028 33.4378C16.0176 32.2897 16.4188 31.1787 16.8633 30.0861C16.9312 30.1664 16.9991 30.2528 17.0731 30.333C16.7213 31.3947 16.425 32.4687 16.2151 33.549C16.0485 34.5057 15.9003 35.5242 16.1349 36.4562C16.7522 38.4623 19.9187 34.802 21.3322 32.9811C21.6223 32.6107 21.8384 32.3083 21.9495 32.1539C22.2952 31.7095 22.8137 30.9688 23.4309 30.012C23.4494 29.9874 23.468 29.9627 23.4865 29.9318C23.9247 29.2528 24.4062 28.4751 24.9247 27.6294C25.3629 26.9011 25.8197 26.1233 26.2827 25.3147C26.7456 24.5061 26.7518 23.4629 26.2703 22.642C25.795 21.8334 24.9247 21.3272 23.9865 21.3334C23.0482 21.3395 21.289 21.3704 21.2829 21.3704C21.2829 21.3704 19.3879 21.4321 18.5854 21.4753C18.536 21.4753 18.4867 21.4815 18.4373 21.4877C17.3139 21.5556 16.425 21.6297 15.8757 21.7161C15.6164 21.7531 15.2646 21.7963 14.8634 21.8519C13.6844 22.0185 12.5054 22.2161 11.3635 22.5555C10.6104 22.7778 9.51788 23.0432 9.10431 23.7901C8.75247 24.4258 9.61047 24.9876 10.0919 25.2715C11.5795 26.1418 13.3819 26.5245 15.0547 26.8579C15.0856 26.9628 15.1226 27.0677 15.1596 27.1727C13.993 27.0183 12.8326 26.8146 11.6783 26.5245C10.6536 26.2406 9.58578 25.9381 8.72161 25.2345C5.91925 22.358 13.1721 20.6112 15.4127 20.2038C15.493 20.1914 15.567 20.1791 15.6411 20.1667C16.3016 20.0495 16.962 19.9445 17.6225 19.8581C17.7089 19.8396 17.7953 19.8334 17.8818 19.8211C19.4002 19.6174 20.931 19.4816 22.4618 19.4199C22.4865 19.4199 22.505 19.4137 22.5359 19.4199C23.0667 19.3952 23.5976 19.3828 24.1284 19.3828C24.1902 19.3828 24.2272 19.3149 24.1902 19.2656C23.9432 18.8767 23.6963 18.494 23.4433 18.1174C23.4124 18.0804 23.3815 18.0372 23.3569 17.994C22.1532 16.1978 20.9187 14.5435 19.7953 13.2781C19.4311 12.8707 19.036 12.4942 18.6225 12.13C18.141 11.7041 17.5176 11.1239 16.8633 11.056C16.104 10.9757 16.0176 11.9387 16.0053 12.5004C15.9682 14.2411 16.5608 16.0373 17.0917 17.673C16.9867 17.7903 16.8818 17.9076 16.783 18.0249C15.2769 14.5065 14.493 11.3029 15.9682 10.2412C18.0484 9.13014 21.5977 13.1176 23.042 14.704C23.4186 15.0805 23.7519 15.4941 24.079 15.9138L25.0667 17.1916C25.3197 17.5187 25.7765 18.2039 26.0234 18.5434C26.295 18.9199 26.6654 19.2285 27.1098 19.3828C28.2826 19.784 29.5171 19.2162 29.9862 18.1421C30.1282 17.8212 30.264 17.5002 30.3936 17.1916C30.9183 15.92 31.4121 14.6052 31.6405 13.2473C31.7331 12.6794 31.9121 11.8523 31.5973 11.3276C31.2331 10.7042 30.3998 11.1301 29.9245 11.3955C28.4246 12.2411 27.19 13.6238 26.0481 14.8953C25.8938 14.8583 25.7395 14.8274 25.579 14.8028C27.8629 11.6794 30.2455 9.39556 31.8997 10.1424C33.8997 11.3831 32.2145 16.457 31.5726 18.5001C31.5479 18.568 31.5294 18.6298 31.5109 18.6915C31.3874 19.0495 31.2578 19.4013 31.122 19.7532C31.1035 19.7964 31.122 19.8396 31.1714 19.8458C31.5911 19.9075 32.4244 20.0618 32.4923 20.0742Z" fill="white"/>
</g>
<defs>
<filter id="filter0_i_4103_30243" x="0" y="0" width="48" height="52" filterUnits="userSpaceOnUse" color-interpolation-filters="sRGB">
<feFlood flood-opacity="0" result="BackgroundImageFix"/>
<feBlend mode="normal" in="SourceGraphic" in2="BackgroundImageFix" result="shape"/>
<feColorMatrix in="SourceAlpha" type="matrix" values="0 0 0 0 0 0 0 0 0 0 0 0 0 0 0 0 0 0 127 0" result="hardAlpha"/>
<feOffset dy="4"/>
<feGaussianBlur stdDeviation="3"/>
<feComposite in2="hardAlpha" operator="arithmetic" k2="-1" k3="1"/>
<feColorMatrix type="matrix" values="0 0 0 0 1 0 0 0 0 1 0 0 0 0 1 0 0 0 0.6 0"/>
<feBlend mode="normal" in2="shape" result="effect1_innerShadow_4103_30243"/>
</filter>
<linearGradient id="paint0_linear_4103_30243" x1="0" y1="0" x2="43.2" y2="46.8" gradientUnits="userSpaceOnUse">
<stop stop-color="#11C4F5"/>
<stop offset="0.241554" stop-color="#0A45DA"/>
<stop offset="0.784386" stop-color="#1181F5"/>
<stop offset="1" stop-color="#0A64DA"/>
</linearGradient>
<linearGradient id="paint1_linear_4103_30243" x1="24" y1="0" x2="24" y2="41" gradientUnits="userSpaceOnUse">
<stop stop-color="white" stop-opacity="0.53"/>
<stop offset="1" stop-color="white" stop-opacity="0"/>
</linearGradient>
</defs>
</svg>
