<svg width="16" height="16" viewBox="0 0 16 16" fill="none" xmlns="http://www.w3.org/2000/svg">
<g clip-path="url(#clip0_4632_25067)">
<path d="M3.6 1.60156C4.13043 1.60156 4.63914 1.81228 5.01421 2.18735C5.38929 2.56242 5.6 3.07113 5.6 3.60156C5.6 4.132 5.38929 4.6407 5.01421 5.01578C4.63914 5.39085 4.13043 5.60156 3.6 5.60156C3.06957 5.60156 2.56086 5.39085 2.18579 5.01578C1.81071 4.6407 1.6 4.132 1.6 3.60156C1.6 3.07113 1.81071 2.56242 2.18579 2.18735C2.56086 1.81228 3.06957 1.60156 3.6 1.60156ZM12.8 1.60156C13.3304 1.60156 13.8391 1.81228 14.2142 2.18735C14.5893 2.56242 14.8 3.07113 14.8 3.60156C14.8 4.132 14.5893 4.6407 14.2142 5.01578C13.8391 5.39085 13.3304 5.60156 12.8 5.60156C12.2696 5.60156 11.7609 5.39085 11.3858 5.01578C11.0107 4.6407 10.8 4.132 10.8 3.60156C10.8 3.07113 11.0107 2.56242 11.3858 2.18735C11.7609 1.81228 12.2696 1.60156 12.8 1.60156ZM0 9.06906C0 7.59656 1.195 6.40156 2.6675 6.40156H3.735C4.1325 6.40156 4.51 6.48906 4.85 6.64406C4.8175 6.82406 4.8025 7.01156 4.8025 7.20156C4.8025 8.15656 5.2225 9.01406 5.885 9.60156H0.5325C0.24 9.60156 0 9.36156 0 9.06906ZM10.1325 9.60156H10.115C10.78 9.01406 11.1975 8.15656 11.1975 7.20156C11.1975 7.01156 11.18 6.82656 11.15 6.64406C11.49 6.48656 11.8675 6.40156 12.265 6.40156H13.3325C14.805 6.40156 16 7.59656 16 9.06906C16 9.36406 15.76 9.60156 15.4675 9.60156H10.135H10.1325ZM5.6 7.20156C5.6 6.56504 5.85286 5.95459 6.30294 5.50451C6.75303 5.05442 7.36348 4.80156 8 4.80156C8.63652 4.80156 9.24697 5.05442 9.69706 5.50451C10.1471 5.95459 10.4 6.56504 10.4 7.20156C10.4 7.83808 10.1471 8.44853 9.69706 8.89862C9.24697 9.34871 8.63652 9.60156 8 9.60156C7.36348 9.60156 6.75303 9.34871 6.30294 8.89862C5.85286 8.44853 5.6 7.83808 5.6 7.20156ZM3.2 13.7341C3.2 11.8941 4.6925 10.4016 6.5325 10.4016H9.465C11.3075 10.4016 12.8 11.8941 12.8 13.7341C12.8 14.1016 12.5025 14.4016 12.1325 14.4016H3.865C3.4975 14.4016 3.1975 14.1041 3.1975 13.7341H3.2Z" fill="#3A3943"/>
</g>
<defs>
<clipPath id="clip0_4632_25067">
<rect width="16" height="16" fill="white"/>
</clipPath>
</defs>
</svg>
