<svg width="60" height="60" viewBox="0 0 60 60" fill="none" xmlns="http://www.w3.org/2000/svg">
<g clip-path="url(#clip0_4642_16036)">
<path d="M48 0H12C5.37258 0 0 5.37258 0 12V48C0 54.6274 5.37258 60 12 60H48C54.6274 60 60 54.6274 60 48V12C60 5.37258 54.6274 0 48 0Z" fill="white"/>
<g clip-path="url(#clip1_4642_16036)">
<path d="M29.9987 17.0327C23.6295 17.0327 18.4707 19.6121 18.4707 22.7967C18.4707 25.9813 23.6295 28.5607 29.9987 28.5607C36.3679 28.5607 41.5267 25.9813 41.5267 22.7967C41.5267 19.6121 36.3679 17.0327 29.9987 17.0327ZM18.4707 25.6787V30.0017C18.4707 33.1863 23.6295 35.7657 29.9987 35.7657C36.3679 35.7657 41.5267 33.1863 41.5267 30.0017V25.6787C41.5267 28.8633 36.3679 31.4427 29.9987 31.4427C23.6295 31.4427 18.4707 28.8633 18.4707 25.6787ZM18.4707 32.8837V37.2067C18.4707 40.3913 23.6295 42.9707 29.9987 42.9707C36.3679 42.9707 41.5267 40.3913 41.5267 37.2067V32.8837C41.5267 36.0683 36.3679 38.6477 29.9987 38.6477C23.6295 38.6477 18.4707 36.0683 18.4707 32.8837Z" fill="#FF5B32"/>
</g>
</g>
<defs>
<clipPath id="clip0_4642_16036">
<rect width="60" height="60" fill="white"/>
</clipPath>
<clipPath id="clip1_4642_16036">
<rect width="28.82" height="28.82" fill="white" transform="translate(15.5898 15.5903)"/>
</clipPath>
</defs>
</svg>
