<svg width="44" height="44" viewBox="0 0 44 44" fill="none" xmlns="http://www.w3.org/2000/svg">
<foreignObject x="2.74742" y="16.409" width="17.8604" height="17.8604"><div xmlns="http://www.w3.org/1999/xhtml" style="backdrop-filter:blur(0.17px);clip-path:url(#bgblur_0_4596_9537_clip_path);height:100%;width:100%"></div></foreignObject><path data-figma-bg-blur-radius="0.348776" d="M7.17352 32.6422C11.2068 35.1297 16.493 33.8766 18.9806 29.8433C21.4681 25.81 20.215 20.5238 16.1817 18.0363C12.1484 15.5487 6.86218 16.8018 4.37464 20.8351C1.8871 24.8685 3.1402 30.1547 7.17352 32.6422Z" fill="url(#paint0_linear_4596_9537)"/>
<foreignObject x="25.0085" y="17.0306" width="16.1192" height="16.1192"><div xmlns="http://www.w3.org/1999/xhtml" style="backdrop-filter:blur(0.17px);clip-path:url(#bgblur_1_4596_9537_clip_path);height:100%;width:100%"></div></foreignObject><path data-figma-bg-blur-radius="0.348776" d="M29.021 31.6523C32.6451 33.8875 37.3951 32.7615 39.6302 29.1374C41.8654 25.5132 40.7394 20.7633 37.1153 18.5281C33.4912 16.293 28.7412 17.4189 26.5061 21.0431C24.2709 24.6672 25.3968 29.4171 29.021 31.6523Z" fill="url(#paint1_linear_4596_9537)"/>
<foreignObject x="5.499" y="4.858" width="32.8763" height="33.0005"><div xmlns="http://www.w3.org/1999/xhtml" style="backdrop-filter:blur(1.97px);clip-path:url(#bgblur_2_4596_9537_clip_path);height:100%;width:100%"></div></foreignObject><path data-figma-bg-blur-radius="3.93912" d="M15.3768 32.0482C21.2514 35.6894 28.9509 33.8551 32.5741 27.9513C36.1972 22.0474 34.3721 14.3097 28.4974 10.6685C22.6228 7.02729 14.9234 8.86154 11.3002 14.7654C7.67704 20.6692 9.50221 28.407 15.3768 32.0482Z" fill="url(#paint2_linear_4596_9537)"/>
<path d="M17.1906 17.473C17.1949 15.0465 19.179 13.0839 21.6098 13.1096C24.0062 13.1354 25.9517 15.1067 25.9388 17.5031C25.9302 19.2897 24.8523 20.8229 23.3105 21.4971L23.2761 30.9068H22.3957C21.9319 30.9068 21.4981 30.6963 21.2018 30.3399L19.806 28.6564C19.7803 28.622 19.7631 28.5833 19.7631 28.5404V27.6128C19.7631 27.514 19.8447 27.4324 19.9435 27.4324H20.7165V26.8612H19.9349C19.8404 26.8612 19.7631 26.7839 19.7631 26.6894V25.882C19.7631 25.7875 19.8404 25.7102 19.9349 25.7102H20.5877L20.2226 25.3022C19.9692 25.0231 19.9907 24.5893 20.2656 24.3359L20.6907 23.9408H20.2269C19.9735 23.9408 19.7717 23.7347 19.7717 23.4813L19.7888 21.4842C18.2599 20.8057 17.1863 19.2639 17.1906 17.473ZM21.5754 14.5097C20.9398 14.5097 20.4202 15.0208 20.4202 15.6607C20.4202 16.2963 20.9312 16.8159 21.5711 16.8159C22.2067 16.8159 22.7264 16.3049 22.7264 15.665C22.7264 15.0293 22.2153 14.5097 21.5754 14.5097Z" fill="#003BDA"/>
<path d="M17.9384 17.4823C17.947 15.0558 19.9269 13.0931 22.3577 13.1189C24.7541 13.1447 26.6996 15.1159 26.6867 17.5124C26.6781 19.2989 25.6001 20.8321 24.0583 21.5064L24.024 30.1172C24.024 30.5553 23.6632 30.9118 23.2252 30.9118H23.1994C22.7012 30.9118 22.2288 30.6884 21.9067 30.3019L20.5496 28.6613C20.5238 28.627 20.5067 28.5883 20.5067 28.5454V27.6177C20.5067 27.519 20.5883 27.4374 20.687 27.4374H21.4601V26.8662H20.6784C20.584 26.8662 20.5067 26.7889 20.5067 26.6944V25.887C20.5067 25.7925 20.584 25.7152 20.6784 25.7152H21.3312L20.9662 25.3072C20.7128 25.028 20.7343 24.5943 21.0091 24.3409L21.4343 23.9458H20.9705C20.7171 23.9458 20.5152 23.7396 20.5152 23.4863L20.5324 21.4892C18.9949 20.8064 17.9213 19.2646 17.9255 17.4737L17.9384 17.4823ZM22.3233 14.519C21.6877 14.519 21.168 15.03 21.168 15.6699C21.168 16.3056 21.6791 16.8252 22.319 16.8252C22.9546 16.8252 23.4743 16.3141 23.4743 15.6742C23.4743 15.0386 22.9632 14.519 22.3233 14.519Z" fill="url(#paint3_linear_4596_9537)"/>
<path d="M22.6267 20.7894C22.7685 20.7894 22.8844 20.6519 22.8844 20.7894L22.7556 28.902C22.7556 29.0437 22.6353 29.1597 22.4936 29.1554C22.3519 29.1554 22.2359 29.0351 22.2402 28.8934L22.3691 20.8624C22.3691 20.7206 22.485 20.7808 22.6267 20.7851V20.7894Z" fill="#109DE4"/>
<path d="M22.2508 20.9203C24.149 20.9418 25.708 19.4129 25.7251 17.5147C25.7466 15.6164 24.2177 14.0574 22.3195 14.0403C20.4212 14.0188 18.8623 15.5477 18.8451 17.4459C18.8236 19.3442 20.3525 20.9032 22.2508 20.9203ZM22.3195 14.3108C24.0674 14.328 25.4761 15.7667 25.4589 17.5147C25.4417 19.2626 24.003 20.6712 22.255 20.6541C20.5071 20.6369 19.0985 19.1982 19.1156 17.4502C19.1328 15.7023 20.5715 14.2936 22.3195 14.3108Z" fill="#109DE4"/>
<defs>
<clipPath id="bgblur_0_4596_9537_clip_path" transform="translate(-2.74742 -16.409)"><path d="M7.17352 32.6422C11.2068 35.1297 16.493 33.8766 18.9806 29.8433C21.4681 25.81 20.215 20.5238 16.1817 18.0363C12.1484 15.5487 6.86218 16.8018 4.37464 20.8351C1.8871 24.8685 3.1402 30.1547 7.17352 32.6422Z"/>
</clipPath><clipPath id="bgblur_1_4596_9537_clip_path" transform="translate(-25.0085 -17.0306)"><path d="M29.021 31.6523C32.6451 33.8875 37.3951 32.7615 39.6302 29.1374C41.8654 25.5132 40.7394 20.7633 37.1153 18.5281C33.4912 16.293 28.7412 17.4189 26.5061 21.0431C24.2709 24.6672 25.3968 29.4171 29.021 31.6523Z"/>
</clipPath><clipPath id="bgblur_2_4596_9537_clip_path" transform="translate(-5.499 -4.858)"><path d="M15.3768 32.0482C21.2514 35.6894 28.9509 33.8551 32.5741 27.9513C36.1972 22.0474 34.3721 14.3097 28.4974 10.6685C22.6228 7.02729 14.9234 8.86154 11.3002 14.7654C7.67704 20.6692 9.50221 28.407 15.3768 32.0482Z"/>
</clipPath><linearGradient id="paint0_linear_4596_9537" x1="4.28278" y1="18.5686" x2="18.0836" y2="32.6661" gradientUnits="userSpaceOnUse">
<stop stop-color="#1756FD" stop-opacity="0.6"/>
<stop offset="1" stop-color="#1756FD" stop-opacity="0"/>
</linearGradient>
<linearGradient id="paint1_linear_4596_9537" x1="26.4235" y1="19.0065" x2="38.8243" y2="31.6738" gradientUnits="userSpaceOnUse">
<stop stop-color="#1756FD" stop-opacity="0.6"/>
<stop offset="1" stop-color="#1756FD" stop-opacity="0"/>
</linearGradient>
<linearGradient id="paint2_linear_4596_9537" x1="11.1664" y1="11.4477" x2="31.3695" y2="31.9829" gradientUnits="userSpaceOnUse">
<stop stop-color="#1756FD" stop-opacity="0.6"/>
<stop offset="1" stop-color="#1756FD" stop-opacity="0"/>
</linearGradient>
<linearGradient id="paint3_linear_4596_9537" x1="22.1" y1="31.2253" x2="22.3877" y2="12.8397" gradientUnits="userSpaceOnUse">
<stop offset="0.49" stop-color="#1756FD"/>
<stop offset="1" stop-color="#05FCC1"/>
</linearGradient>
</defs>
</svg>
