<svg width="44" height="44" viewBox="0 0 44 44" fill="none" xmlns="http://www.w3.org/2000/svg">
<g clip-path="url(#clip0_4596_9542)">
<path d="M26.1024 38.0002C26.043 37.9911 25.9882 37.9911 25.9243 37.9956C24.8146 37.9637 23.7459 37.37 23.1522 36.3424C22.8919 35.8903 22.7458 35.4016 22.7138 34.913C22.7138 34.8399 22.7092 34.7623 22.7092 34.6892C22.7092 34.607 22.7138 34.5248 22.7184 34.4426C22.6864 33.5018 22.4215 32.5611 21.9237 31.6933C21.7639 31.4193 21.5858 31.1545 21.3849 30.9124C21.12 30.5836 20.8231 30.2913 20.5034 30.0356C19.4576 29.1816 18.1515 28.7203 16.818 28.7066H16.6581C15.5393 28.6792 14.4661 28.0855 13.8632 27.0534C13.6029 26.5967 13.4568 26.1081 13.4248 25.6194C13.4202 25.4642 13.4202 25.3134 13.4248 25.1673C13.5024 24.1032 14.087 23.0939 15.078 22.5185C15.5758 22.2308 16.1193 22.0892 16.6581 22.071H16.8363C17.9506 22.1029 19.0146 22.7012 19.6083 23.7333C19.8687 24.19 20.0148 24.6787 20.0468 25.1627V25.1719C20.0376 25.3134 20.0376 25.4596 20.0468 25.5966V25.6057C20.0742 26.5556 20.339 27.501 20.8414 28.3778C21.0012 28.6518 21.1793 28.9121 21.3803 29.1542C21.6406 29.483 21.9374 29.7798 22.2617 30.0356C23.271 30.853 24.5177 31.3189 25.801 31.3645H26.1983C27.1574 31.3371 28.1255 31.0723 29.0161 30.5653C29.2901 30.4055 29.5504 30.232 29.7879 30.031C30.1167 29.7707 30.4135 29.4739 30.6693 29.1542C31.4913 28.1495 31.9571 26.8936 31.9982 25.6103C31.9937 25.4596 31.9937 25.3134 31.9982 25.1764V25.1673C32.0759 24.0987 32.6604 23.0894 33.6514 22.514C34.1492 22.2262 34.6927 22.0847 35.2316 22.0664H35.4097C36.5194 22.1029 37.5881 22.6966 38.1818 23.7287C38.4421 24.1809 38.5882 24.6695 38.6202 25.1582V25.1673C38.6065 25.318 38.6065 25.4733 38.6156 25.6286C38.538 26.6881 37.9534 27.6836 36.967 28.2545C36.4692 28.5468 35.9212 28.6838 35.3823 28.7021H35.2224C34.2314 28.7112 33.2313 28.9715 32.3134 29.5013C32.0393 29.6611 31.779 29.8346 31.5416 30.0356C31.2127 30.2959 30.9159 30.5927 30.6601 30.9124C29.8381 31.9171 29.3723 33.173 29.3312 34.4563V34.4654C29.3221 34.607 29.3221 34.7531 29.3312 34.8902C29.3266 34.8947 29.3266 34.8993 29.3312 34.9039C29.2536 35.9679 28.669 36.9772 27.678 37.5526C27.1802 37.8403 26.6367 37.9819 26.1024 38.0002Z" fill="url(#paint0_linear_4596_9542)"/>
<path d="M32.2388 10.9869C32.2617 11.0417 32.2891 11.0919 32.3256 11.1422C32.8508 12.1195 32.8736 13.3388 32.2799 14.3709C32.0196 14.823 31.668 15.193 31.2615 15.467C31.1976 15.5035 31.1337 15.5446 31.0697 15.5811C30.9966 15.6222 30.9236 15.6588 30.8505 15.6953C30.0604 16.1931 29.3708 16.8918 28.8685 17.7595C28.7086 18.0336 28.5716 18.3213 28.462 18.6135C28.3113 19.0109 28.2063 19.4082 28.1424 19.8146C27.9277 21.1482 28.1789 22.5091 28.832 23.6691L28.9096 23.8061C29.4439 24.7879 29.4713 26.0164 28.8731 27.0531C28.6082 27.5052 28.2611 27.8751 27.8546 28.1492C27.7222 28.2314 27.5943 28.3044 27.4665 28.3729C26.5074 28.8387 25.3429 28.8342 24.3473 28.2633C23.8495 27.9756 23.4522 27.5783 23.1736 27.1216L23.0823 26.9663C22.5571 25.9845 22.5388 24.7651 23.1325 23.733C23.3974 23.2809 23.7445 22.911 24.1509 22.6369H24.1601C24.2879 22.5684 24.4112 22.4999 24.53 22.4177H24.5391V22.4086C25.3429 21.9108 26.0325 21.2121 26.5394 20.3353C26.6992 20.0612 26.8317 19.7735 26.9413 19.4812C27.0965 19.0885 27.2016 18.6866 27.2655 18.2756C27.4665 16.9923 27.2473 15.6816 26.649 14.5445L26.4526 14.202C25.9503 13.3845 25.2378 12.6766 24.3519 12.1606C24.0733 12.0007 23.7947 11.8683 23.507 11.7587C23.1142 11.6034 22.7124 11.4984 22.3059 11.4344C21.0226 11.2244 19.7028 11.4481 18.5702 12.051C18.4423 12.1286 18.319 12.2017 18.1912 12.2702H18.182V12.2793C17.223 12.7451 16.0584 12.7406 15.0629 12.1697C14.5651 11.882 14.1678 11.4847 13.8892 11.028L13.7978 10.8727C13.2772 9.8954 13.2544 8.67149 13.8481 7.63937C14.1084 7.18725 14.46 6.81734 14.8665 6.54333H14.8756C15.0126 6.47482 15.1451 6.39719 15.2775 6.31498C16.232 5.85373 17.392 5.86286 18.3784 6.42916C18.8808 6.71687 19.2735 7.11875 19.5567 7.57544L19.6343 7.71244C20.1366 8.56645 20.8628 9.30171 21.7807 9.83147C22.0547 9.99131 22.3379 10.1237 22.6256 10.2334C23.0183 10.3886 23.4202 10.4937 23.8267 10.5576C25.11 10.7677 26.4298 10.5439 27.5624 9.94107H27.5715C27.6994 9.87257 27.8227 9.80407 27.9414 9.72186C27.946 9.72186 27.9505 9.72186 27.9551 9.71273C28.9142 9.24691 30.0787 9.25148 31.0743 9.82233C31.5721 10.11 31.9694 10.5074 32.248 10.964L32.2388 10.9869Z" fill="url(#paint1_linear_4596_9542)"/>
<path d="M5.78279 19.1204C5.81933 19.0747 5.8513 19.0245 5.8787 18.9697C6.46326 18.0289 7.50907 17.3941 8.70102 17.3941C9.22164 17.3941 9.71943 17.5128 10.1578 17.7275C10.2218 17.764 10.2903 17.8005 10.3542 17.8325C10.4273 17.8736 10.4958 17.9193 10.5643 17.9649C11.3909 18.4034 12.3362 18.65 13.3364 18.65C13.6561 18.65 13.9712 18.6271 14.2817 18.5723C14.7019 18.5084 15.0992 18.3942 15.4828 18.2481C16.7433 17.7686 17.7982 16.8689 18.4787 15.7226L18.5563 15.5856C19.1409 14.6311 20.1912 13.9963 21.3878 13.9963C21.9129 13.9963 22.4062 14.1151 22.8492 14.3297C22.9862 14.4028 23.114 14.4759 23.2373 14.5535C24.1187 15.1518 24.6987 16.1656 24.7033 17.3119C24.7033 17.8873 24.5572 18.4262 24.3014 18.9011L24.2101 19.0564C23.6255 20.0018 22.5751 20.6274 21.3878 20.6274C20.8626 20.6274 20.3694 20.5087 19.9309 20.294H19.9218C19.8031 20.2118 19.6798 20.1388 19.5519 20.0748H19.5427V20.0657C18.7116 19.6181 17.7571 19.3715 16.7478 19.367C16.4281 19.367 16.1176 19.3944 15.8071 19.4446C15.3915 19.5085 14.9896 19.6136 14.6014 19.7689C13.3866 20.2347 12.3636 21.0795 11.6786 22.1665L11.4822 22.509C11.0301 23.3538 10.7698 24.322 10.7652 25.3496C10.7652 25.6692 10.7881 25.9798 10.8429 26.2812C10.9068 26.6968 11.0119 27.0987 11.1626 27.4823C11.6238 28.6971 12.4778 29.7292 13.5647 30.4051C13.6972 30.4781 13.825 30.5466 13.9438 30.6243H13.9529V30.6334C14.8343 31.2317 15.4143 32.2455 15.4189 33.3918C15.4189 33.9672 15.2727 34.5061 15.017 34.9811L14.9257 35.1363C14.3365 36.0771 13.2907 36.7073 12.1033 36.7073C11.5827 36.7073 11.0849 36.5886 10.6465 36.374H10.6374C10.5141 36.2826 10.3816 36.205 10.2401 36.1365C9.35865 35.5382 8.79236 34.5335 8.78779 33.3918C8.78779 32.8164 8.9385 32.2729 9.19424 31.798L9.27188 31.661C9.76053 30.7978 10.03 29.8022 10.0345 28.7427C10.0345 28.4231 10.0117 28.1125 9.95691 27.8111C9.89297 27.3955 9.78793 26.9936 9.63722 26.61C9.17597 25.3952 8.32197 24.3631 7.23506 23.6872H7.22592C7.10718 23.605 6.98388 23.5319 6.85601 23.468C6.85601 23.4634 6.85144 23.4589 6.84231 23.4589C5.9609 22.8606 5.38091 21.8468 5.37634 20.7005C5.37634 20.1251 5.52248 19.5862 5.77823 19.1112L5.78279 19.1204Z" fill="url(#paint2_linear_4596_9542)"/>
</g>
<defs>
<linearGradient id="paint0_linear_4596_9542" x1="11.4538" y1="26.9236" x2="32.3204" y2="41.6449" gradientUnits="userSpaceOnUse">
<stop stop-color="#D03AFB"/>
<stop offset="1" stop-color="#FFA04B"/>
</linearGradient>
<linearGradient id="paint1_linear_4596_9542" x1="23.0636" y1="5.98535" x2="23.0636" y2="28.7022" gradientUnits="userSpaceOnUse">
<stop stop-color="#A739FE"/>
<stop offset="1" stop-color="#FE39BD"/>
</linearGradient>
<linearGradient id="paint2_linear_4596_9542" x1="9.97602" y1="14.4767" x2="20.2891" y2="28.0043" gradientUnits="userSpaceOnUse">
<stop stop-color="#1756FD"/>
<stop offset="1" stop-color="#A050FF"/>
</linearGradient>
<clipPath id="clip0_4596_9542">
<rect width="33.2376" height="32" fill="white" transform="translate(5.38123 6)"/>
</clipPath>
</defs>
</svg>
