<svg width="44" height="44" viewBox="0 0 44 44" fill="none" xmlns="http://www.w3.org/2000/svg">
<path d="M29.3167 20.3304H37.9029C37.4047 12.6993 31.303 6.59753 23.6719 6.09937V14.6824C26.5815 15.1203 28.8788 17.4176 29.3167 20.3304Z" fill="#4D4DFF"/>
<path d="M14.6828 23.6687H6.09973C6.5979 31.2998 12.6996 37.4015 20.3307 37.8997V29.3167C17.4211 28.8788 15.1206 26.5784 14.6828 23.6687Z" fill="#4D4DFF"/>
<path d="M6.09973 21.6429H14.6828C15.1206 18.7301 17.4211 16.4328 20.3307 15.9949V7.41187C12.6996 7.91003 6.5979 14.0086 6.09973 21.6429Z" fill="#4D4DFF"/>
<path d="M22.3583 29.3167V37.8997C29.9894 37.4015 36.0911 31.2966 36.5893 23.6687H28.0031C27.5652 26.5784 25.2679 28.8788 22.3583 29.3167Z" fill="#4D4DFF"/>
</svg>
