<svg width="44" height="44" viewBox="0 0 44 44" fill="none" xmlns="http://www.w3.org/2000/svg">
<g clip-path="url(#clip0_4596_9641)">
<path d="M29.3166 20.3314H37.9028C37.4046 12.7003 31.3029 6.59851 23.6718 6.10034V14.6834C26.5814 15.1213 28.8787 17.4185 29.3166 20.3314Z" fill="#18E3FC"/>
<path d="M14.683 23.6687H6.09998C6.59814 31.2998 12.6999 37.4015 20.331 37.8997V29.3167C17.4213 28.8788 15.1209 26.5784 14.683 23.6687Z" fill="#18E3FC"/>
<path d="M6.09998 21.6439H14.683C15.1209 18.731 17.4213 16.4338 20.331 15.9959V7.41284C12.6999 7.91101 6.59814 14.0096 6.09998 21.6439Z" fill="url(#paint0_linear_4596_9641)"/>
<path d="M22.3589 29.3167V37.8997C29.99 37.4015 36.0918 31.2966 36.5899 23.6687H28.0037C27.5658 26.5784 25.2685 28.8788 22.3589 29.3167Z" fill="url(#paint1_linear_4596_9641)"/>
</g>
<defs>
<linearGradient id="paint0_linear_4596_9641" x1="13.2155" y1="7.41284" x2="13.2155" y2="21.6439" gradientUnits="userSpaceOnUse">
<stop stop-color="#0F5699"/>
<stop offset="1" stop-color="#19E8FF"/>
</linearGradient>
<linearGradient id="paint1_linear_4596_9641" x1="29.4744" y1="23.6687" x2="29.4744" y2="37.8997" gradientUnits="userSpaceOnUse">
<stop stop-color="#0F5699"/>
<stop offset="1" stop-color="#19E8FF"/>
</linearGradient>
<clipPath id="clip0_4596_9641">
<rect width="32" height="32" fill="white" transform="translate(6 6)"/>
</clipPath>
</defs>
</svg>
