<svg width="44" height="44" viewBox="0 0 44 44" fill="none" xmlns="http://www.w3.org/2000/svg">
<path d="M20.9128 31.3435C20.9128 30.3512 20.4807 29.4634 19.7922 28.8652C19.7114 28.7987 19.626 28.7322 19.5453 28.661C19.5215 28.6373 19.4978 28.623 19.474 28.5993C19.3838 28.5186 19.2983 28.4331 19.2129 28.3429C18.5671 27.6498 18.2062 26.7144 18.2062 25.7696C18.2062 23.6806 19.9061 21.9809 22.0001 21.9809C24.0941 21.9809 25.794 23.6806 25.794 25.7696C25.794 26.686 26.5347 27.4314 27.4559 27.4314C28.3771 27.4314 29.1178 26.686 29.1178 25.7696C29.1178 21.848 25.9222 18.6575 22.0001 18.6575C18.078 18.6575 14.8824 21.848 14.8824 25.7696C14.8824 26.7952 15.1056 27.8112 15.533 28.737C15.6944 29.1026 15.8891 29.4492 16.117 29.7815C16.4826 30.318 16.9337 30.8498 17.4418 31.2581C17.9261 31.6474 18.5671 31.8895 18.8852 32.4593C19.0704 32.8058 19.0989 33.2284 18.9755 33.6035C18.8235 34.0687 18.4484 34.4486 17.9783 34.5957C17.8549 34.6385 17.7219 34.6622 17.589 34.6622C19.4265 34.6622 20.9128 33.1762 20.9128 31.3435Z" fill="url(#paint0_linear_4596_9521)"/>
<path d="M21.9996 9.32344C31.0688 9.32344 38.4524 16.7015 38.4524 25.7697C38.4524 27.3602 38.2197 28.9507 37.7687 30.4795C37.4078 31.6902 36.9235 33.295 36.026 34.2208C35.4088 34.8617 34.3404 34.7953 33.7944 34.0878C33.5379 33.7602 33.4287 33.3282 33.5 32.9199C33.5902 32.3691 33.9653 31.9181 34.1932 31.4196C34.4496 30.8688 34.6585 30.2801 34.8342 29.7009C35.2236 28.4285 35.423 27.0991 35.423 25.7697C35.423 18.3727 29.4022 12.3525 21.9996 12.3525C14.5971 12.3525 8.581 18.3727 8.581 25.7697C8.581 30.2611 10.8127 34.4344 14.5448 36.9318C14.5496 36.9365 14.5591 36.9365 14.5638 36.9412C14.8535 37.1407 15.1621 37.3306 15.542 37.5395L15.7414 37.6344C16.3159 37.8671 16.9237 37.981 17.5315 37.981C18.1393 37.981 18.7186 37.8718 19.2884 37.6534C22.1801 36.5567 23.3197 32.7537 21.4251 30.2706C20.974 29.6771 20.352 29.3021 19.7917 28.8653C20.4802 29.4635 20.9123 30.3513 20.9123 31.3436C20.9123 33.1763 19.4261 34.6623 17.5885 34.6623H17.5695C17.503 34.6623 17.4318 34.6576 17.3653 34.6481C17.3131 34.6433 17.2609 34.6291 17.2086 34.6148C17.0044 34.5579 16.824 34.4487 16.6483 34.3395C15.8269 33.8125 15.0909 33.1763 14.4641 32.4593C12.845 30.6315 11.9048 28.2623 11.9048 25.7697C11.9048 20.2053 16.4347 15.676 21.9996 15.676C27.5646 15.676 32.0992 20.2053 32.0992 25.7697C32.0992 26.857 31.9235 27.9395 31.5769 28.9697C31.2398 29.9858 30.6225 30.8831 30.3376 31.9276C29.5162 34.9519 31.8666 38 34.9957 38C36.4154 38 37.7687 37.3401 38.6803 36.2528C39.8009 34.9092 40.4752 33.0433 40.9643 31.3816C41.5008 29.5632 41.7762 27.6641 41.7762 25.7697C41.7762 14.8688 32.9017 6 21.9996 6C16.3444 6 11.24 8.38813 7.63135 12.2053L10.2524 14.2706C13.2391 11.2226 17.3986 9.32344 21.9996 9.32344Z" fill="url(#paint1_linear_4596_9521)"/>
<path d="M5.92753 37.2926C6.25517 37.7436 6.76323 37.9857 7.28079 37.9857C7.61792 37.9857 7.95505 37.886 8.24944 37.6724C8.99492 37.1359 9.16586 36.1009 8.6293 35.3555C6.61129 32.5495 5.54767 29.2356 5.54767 25.7697C5.54767 21.2973 7.34727 17.238 10.2532 14.2706L7.63217 12.2053C4.28463 15.7472 2.22388 20.5187 2.22388 25.7697C2.22388 29.9335 3.50591 33.9216 5.92753 37.2926Z" fill="url(#paint2_linear_4596_9521)"/>
<defs>
<linearGradient id="paint0_linear_4596_9521" x1="27.5105" y1="33.5336" x2="19.4366" y2="19.8419" gradientUnits="userSpaceOnUse">
<stop stop-color="#6609FF" stop-opacity="0"/>
<stop offset="1" stop-color="#F04BFC"/>
</linearGradient>
<linearGradient id="paint1_linear_4596_9521" x1="33.4626" y1="2.37253" x2="18.354" y2="20.395" gradientUnits="userSpaceOnUse">
<stop stop-color="#FF13FB" stop-opacity="0"/>
<stop offset="0.513812" stop-color="#EC4AF2"/>
<stop offset="1" stop-color="#6609FF"/>
</linearGradient>
<linearGradient id="paint2_linear_4596_9521" x1="8.73523" y1="14.4664" x2="7.10335" y2="41.045" gradientUnits="userSpaceOnUse">
<stop stop-color="#6609FF"/>
<stop offset="1" stop-color="#521697" stop-opacity="0"/>
</linearGradient>
</defs>
</svg>
