<svg width="44" height="44" viewBox="0 0 44 44" fill="none" xmlns="http://www.w3.org/2000/svg">
<mask id="mask0_4596_9572" style="mask-type:luminance" maskUnits="userSpaceOnUse" x="5" y="6" width="34" height="32">
<path d="M38.0101 6H5.99048V38H38.0101V6Z" fill="white"/>
</mask>
<g mask="url(#mask0_4596_9572)">
<path d="M5.99023 22C5.99023 27.7024 9.05698 33.0128 13.9952 35.864C16.4642 37.2848 19.2272 38 22 38C24.7729 38 27.5359 37.2848 30.005 35.864C34.9431 33.0128 38.0098 27.7024 38.0098 22C38.0098 16.2976 34.9431 10.9871 30.005 8.13595C25.0668 5.28476 18.9333 5.28476 13.9952 8.13595C9.05698 10.9871 5.99023 16.2976 5.99023 22ZM9.68408 14.289L23.9596 18.5903C24.7827 18.8352 24.8905 19.9522 24.136 20.3539L8.95899 28.4078C7.98904 26.4384 7.45993 24.2535 7.45993 22C7.45993 19.237 8.26335 16.5719 9.68408 14.289ZM26.076 16.0625C26.3895 16.8071 25.6939 17.5909 24.9198 17.3558L10.5756 13.0251C11.7024 11.5848 12.6528 10.4189 14.2107 9.3607C17.3166 7.25412 22.4214 7.45989 22.4214 7.45989L26.0858 16.0625H26.076ZM33.8163 13.564L29.4465 17.0618C28.9369 17.4635 28.1923 17.2676 27.9572 16.6601L24.4887 7.68524C26.1446 7.96934 27.7612 8.53762 29.2603 9.40966C31.0827 10.4678 32.621 11.8983 33.8163 13.564ZM36.5303 22C36.5303 23.7244 36.2168 25.4097 35.6289 26.9871L30.103 20.3343C29.5738 19.7073 29.6718 18.7666 30.6418 17.9927L34.6197 14.8083C35.8543 16.9639 36.5401 19.4427 36.5401 22H36.5303ZM29.2603 34.5903C27.4967 35.6093 25.5665 36.2167 23.5971 36.4323L27.771 22.7152C28.0453 21.804 29.2211 21.5689 29.8384 22.3037C31.7685 24.6258 34.9921 28.5058 34.9921 28.5058C33.738 31.014 31.7685 33.15 29.2701 34.5903H29.2603ZM14.7202 34.5903C12.6234 33.3851 10.9088 31.6803 9.66442 29.6914C9.66442 29.6914 20.305 24.038 24.861 21.6179C25.6155 21.2161 26.4678 21.9314 26.2229 22.7446L22.0294 36.5303C19.5016 36.5303 16.9737 35.8934 14.7202 34.5903Z" fill="url(#paint0_radial_4596_9572)"/>
<path d="M30.005 8.13595C25.0668 5.28476 18.9333 5.28476 13.9952 8.13595C9.05698 10.9871 5.99023 16.2976 5.99023 22C5.99023 27.7024 9.05698 33.0128 13.9952 35.864C16.4642 37.2848 19.2272 38 22 38C24.7729 38 27.5359 37.2848 30.005 35.864C34.9431 33.0128 38.0098 27.7024 38.0098 22C38.0098 16.2976 34.9431 10.9871 30.005 8.13595ZM36.5401 22C36.5401 23.5579 36.2854 25.0863 35.8151 26.5266C35.482 27.5456 34.3356 28.0257 33.395 27.526L19.8739 20.3539C19.1195 19.9522 19.2272 18.8352 20.0503 18.5903L32.3368 14.8867C33.5616 14.5144 34.8745 15.1218 35.384 16.2976C36.1482 18.071 36.5597 20.0012 36.5597 21.9902L36.5401 22ZM20.9223 9.0177C21.324 8.06733 22.3136 7.50884 23.3326 7.646C24.9296 7.87135 27.3301 8.37109 29.2701 9.40966C30.3381 9.97794 31.2787 10.7127 32.1213 11.5456C32.7679 12.1922 32.4936 13.3092 31.6118 13.5738L19.0704 17.3558C18.2964 17.5909 17.591 16.8071 17.9143 16.0625L20.9223 9.0177ZM14.73 9.40966C15.749 8.8218 16.8267 8.37109 17.9241 8.04775C18.5806 7.86156 19.1782 8.51804 18.9333 9.16472L16.0331 16.6601C15.7979 17.2676 15.0435 17.4635 14.5438 17.0618L11.3203 14.4752C10.6736 13.9559 10.5756 12.9957 11.1145 12.3686C12.1335 11.2027 13.3485 10.1935 14.73 9.39987V9.40966ZM10.6736 15.8469L13.3583 17.9927C14.3282 18.7666 14.4164 19.7073 13.8972 20.3343L9.65463 25.439C9.08635 26.1249 7.96938 25.8506 7.79306 24.9785C7.58729 24.0086 7.47951 23.0092 7.47951 21.9902C7.47951 20.011 7.88126 18.0906 8.63565 16.327C8.97857 15.5236 10.0073 15.2884 10.6932 15.8371L10.6736 15.8469ZM9.99756 27.3203C11.1047 25.9877 12.9076 23.8224 14.1617 22.3037C14.7691 21.5689 15.9449 21.8138 16.229 22.7152L19.8543 34.6393C20.109 35.4721 19.3644 36.3049 18.5217 36.0992C17.2089 35.7758 15.9351 35.2762 14.7398 34.5805C12.7214 33.4146 11.0558 31.8077 9.83103 29.9069C9.31171 29.1035 9.39991 28.0453 10.0073 27.3105L9.99756 27.3203ZM29.2701 34.5903C27.5261 35.5995 25.6155 36.2069 23.6755 36.4323C22.6957 36.5499 21.7747 35.9032 21.4808 34.9626L17.7673 22.7446C17.5224 21.9314 18.3748 21.2259 19.1293 21.6179L32.5622 28.7507C33.5322 29.27 33.7771 30.5535 33.0717 31.3962C32.0135 32.6503 30.73 33.7379 29.2701 34.5805V34.5903Z" fill="url(#paint1_linear_4596_9572)"/>
</g>
<defs>
<radialGradient id="paint0_radial_4596_9572" cx="0" cy="0" r="1" gradientUnits="userSpaceOnUse" gradientTransform="translate(27.1875 19.2014) rotate(105.427) scale(19.5012 19.5117)">
<stop stop-color="#DFCAFF"/>
<stop offset="1" stop-color="white"/>
</radialGradient>
<linearGradient id="paint1_linear_4596_9572" x1="22.0003" y1="5.99752" x2="22.0003" y2="37.9613" gradientUnits="userSpaceOnUse">
<stop stop-color="#1756FD"/>
<stop offset="0.5" stop-color="#D03AFB"/>
<stop offset="1" stop-color="#FFA04B"/>
</linearGradient>
</defs>
</svg>
