<svg width="44" height="44" viewBox="0 0 44 44" fill="none" xmlns="http://www.w3.org/2000/svg">
<path d="M31.1047 17.8042C33.3352 18.2778 38.9711 19.4075 39.0588 21.9265C38.8764 23.8666 35.4921 24.8806 31.4203 25.3928C31.4799 25.2349 31.5325 25.077 31.5816 24.9121C33.6999 24.4455 37.7261 23.4246 38.0067 21.93C37.5016 20.7687 34.9941 20.0565 31.7394 19.639C31.3747 19.5934 30.9994 19.5478 30.6137 19.5092C29.5861 19.404 28.6111 19.9583 28.1657 20.8915C28.1517 20.9196 28.1376 20.9477 28.1236 20.9757C27.8115 21.6283 27.8115 22.3861 28.1236 23.0387C28.4848 23.8 28.8285 24.5718 29.1547 25.3507C29.1933 25.4384 29.2319 25.5296 29.2669 25.6173C29.5405 26.2769 29.8 26.94 30.049 27.6101C30.0736 27.6767 30.1016 27.7504 30.1332 27.8311C30.9539 30.0905 33.2966 37.7949 29.1056 36.7564C27.9868 36.3424 27.1276 35.5215 26.3104 34.7216C25.4196 33.8129 24.5989 32.8516 23.8239 31.8517C23.9361 31.8342 24.0483 31.8131 24.1606 31.785C25.6125 33.4129 28.555 36.4582 30.0595 35.8933C31.0205 34.7707 29.7334 31.2939 28.8917 29.2555C28.7268 28.8485 28.576 28.5012 28.4673 28.2381C28.2464 27.6873 27.8395 26.8207 27.2924 25.7541C27.2714 25.705 27.2433 25.6559 27.2188 25.6033C26.9873 25.1507 26.7313 24.663 26.4542 24.1473C26.1456 24.6911 25.8229 25.2314 25.4862 25.7612C25.4757 25.7857 25.4617 25.8103 25.4442 25.8313C24.5709 27.2382 23.624 28.5994 22.6209 29.9186C22.5824 29.9712 22.5438 30.0203 22.5052 30.0694C22.0598 30.6518 21.6039 31.2237 21.1374 31.7885C21.0918 31.8447 21.0392 31.9078 20.9831 31.978C19.4224 33.8304 13.9373 39.6929 12.7484 35.5495C12.545 34.3742 12.829 33.2165 13.1096 32.1113C13.4498 30.8834 13.8742 29.687 14.3511 28.5187C14.4213 28.6064 14.4984 28.6942 14.5791 28.7819C14.2003 29.9186 13.8847 31.0693 13.6567 32.2306C13.4779 33.2586 13.32 34.3497 13.5726 35.346C14.2354 37.5002 17.6268 33.5743 19.1454 31.6201C19.4575 31.2202 19.689 30.9009 19.8047 30.736C20.1765 30.2624 20.7306 29.4625 21.3899 28.4416C21.411 28.4135 21.4285 28.3854 21.4496 28.3538C21.916 27.6276 22.4386 26.7926 22.9892 25.8839C23.5012 25.0349 24.0343 24.1227 24.5744 23.172C24.9988 22.4247 24.9953 21.509 24.5639 20.7652C24.4797 20.6214 24.3955 20.474 24.3079 20.3267C23.873 19.5864 23.0804 19.1303 22.2211 19.1303C21.1339 19.1303 20.0783 19.1444 19.0893 19.1689C19.1454 19.0707 19.205 18.9724 19.2611 18.8707C19.198 18.9689 19.1384 19.0672 19.0822 19.1689C18.0301 19.197 17.0516 19.2356 16.1924 19.2847C16.1398 19.2882 16.0872 19.2917 16.0346 19.2952C14.8316 19.3654 13.8777 19.4496 13.2885 19.5373C13.0079 19.5759 12.6362 19.6215 12.2013 19.6811C10.0269 19.9899 6.37243 20.6319 5.88845 22.0353C6.16551 23.614 10.2583 24.6139 12.4082 25.0454C12.4433 25.1577 12.4783 25.27 12.5204 25.3822C11.2684 25.2174 10.0233 24.9963 8.78884 24.6876C7.69111 24.3824 6.54428 24.0561 5.62191 23.3018C2.61631 20.2179 10.3951 18.348 12.794 17.9059C12.8817 17.8919 12.9623 17.8778 13.036 17.8638C13.7409 17.741 14.4493 17.6287 15.1578 17.534C15.249 17.5165 15.3437 17.5059 15.4348 17.4919C17.0656 17.2744 18.7035 17.1305 20.3448 17.0639C20.3694 17.0604 20.3939 17.0569 20.422 17.0604C21.0392 17.0323 21.6565 17.0183 22.2772 17.0183C21.9861 16.5587 21.6915 16.1061 21.3969 15.6605C21.3654 15.6184 21.3338 15.5728 21.3058 15.5272C20.5552 14.4045 19.7942 13.3345 19.0507 12.3697C17.0446 9.76997 15.1613 7.96666 13.9127 8.12103H13.9092C12.7659 9.1139 13.9163 13.1099 14.5896 15.1799C14.4739 15.3027 14.3617 15.429 14.2564 15.5553C12.6397 11.7803 11.8015 8.34556 13.3832 7.20885C15.6102 6.016 19.4154 10.2962 20.9586 11.9908C21.0147 12.0469 21.0638 12.103 21.1094 12.1522C21.5723 12.6889 22.0212 13.2362 22.4561 13.7906C22.5824 13.9555 22.7086 14.1204 22.8384 14.2852C23.3118 14.8922 23.7362 15.5377 24.1886 16.1622C24.6025 16.7306 25.2478 17.0884 25.9527 17.1376H25.9808C27.0118 17.2112 27.9798 16.6218 28.3972 15.6746C28.548 15.3272 28.6953 14.9869 28.832 14.6536C30.0806 11.6154 30.6978 9.07881 29.9438 8.0684C28.4989 7.57723 25.6335 10.5664 24.1781 12.1837C24.0133 12.1451 23.8449 12.1136 23.6766 12.0855C26.1386 8.79814 28.6918 6.3528 30.4664 7.15271C32.6127 8.48239 30.8066 13.9204 30.1156 16.1131C30.0911 16.1868 30.0701 16.2534 30.049 16.3201C29.9052 16.7306 29.7579 17.1376 29.5966 17.5445C30.028 17.6077 30.4558 17.6814 30.8872 17.7585C30.9539 17.7726 31.0275 17.7866 31.1012 17.8042H31.1047Z" fill="#4D4DFF"/>
</svg>
