<svg width="208" height="126" viewBox="0 0 208 126" fill="none" xmlns="http://www.w3.org/2000/svg">
<rect width="208" height="126" fill="white"/>
<g id="design-made-simple-animation">
<g id="foreground floating">
<rect x="0.5" y="0.5" width="206.25" height="124.062" rx="11.5" fill="white"/>
<rect x="0.5" y="0.5" width="206.25" height="124.062" rx="11.5" stroke="#E2E2E6"/>
<g id="content">
<path d="M17.9375 12.3711H189.312C192.387 12.3711 194.879 14.8633 194.879 17.9375V35.75C194.879 38.8242 192.387 41.3164 189.312 41.3164H17.9375C14.8633 41.3164 12.3711 38.8242 12.3711 35.75V17.9375C12.3711 14.8633 14.8633 12.3711 17.9375 12.3711Z" stroke="#E2E2E6" stroke-width="0.742185"/>
<path id="Address Line 1" d="M22.0852 30.3437H21.1619L23.8324 23.071H24.7415L27.4119 30.3437H26.4886L24.3153 24.2215H24.2585L22.0852 30.3437ZM22.4261 27.5028H26.1477V28.284H22.4261V27.5028ZM30.4908 30.4573C30.0362 30.4573 29.6349 30.3425 29.2869 30.1129C28.9389 29.8809 28.6667 29.5542 28.4702 29.1328C28.2737 28.709 28.1754 28.2083 28.1754 27.6306C28.1754 27.0577 28.2737 26.5605 28.4702 26.1391C28.6667 25.7177 28.9401 25.3922 29.2905 25.1626C29.6409 24.9329 30.0457 24.8181 30.505 24.8181C30.8601 24.8181 31.1406 24.8773 31.3466 24.9957C31.5549 25.1117 31.7135 25.2443 31.8224 25.3934C31.9337 25.5402 32.0201 25.6609 32.0817 25.7556H32.1527V23.071H32.9908V30.3437H32.1811V29.5056H32.0817C32.0201 29.6051 31.9325 29.7305 31.8189 29.882C31.7053 30.0312 31.5431 30.1649 31.3324 30.2833C31.1217 30.3993 30.8411 30.4573 30.4908 30.4573ZM30.6044 29.7045C30.9406 29.7045 31.2247 29.6169 31.4567 29.4417C31.6887 29.2641 31.8651 29.0191 31.9858 28.7066C32.1065 28.3917 32.1669 28.0283 32.1669 27.6164C32.1669 27.2092 32.1077 26.8529 31.9893 26.5475C31.871 26.2398 31.6958 26.0006 31.4638 25.8302C31.2318 25.6574 30.9453 25.571 30.6044 25.571C30.2493 25.571 29.9534 25.6621 29.7166 25.8444C29.4822 26.0243 29.3059 26.2694 29.1875 26.5795C29.0715 26.8872 29.0135 27.2329 29.0135 27.6164C29.0135 28.0047 29.0727 28.3574 29.1911 28.6747C29.3118 28.9895 29.4893 29.2405 29.7237 29.4275C29.9605 29.6122 30.254 29.7045 30.6044 29.7045ZM36.7017 30.4573C36.2472 30.4573 35.8459 30.3425 35.4979 30.1129C35.1499 29.8809 34.8776 29.5542 34.6811 29.1328C34.4846 28.709 34.3864 28.2083 34.3864 27.6306C34.3864 27.0577 34.4846 26.5605 34.6811 26.1391C34.8776 25.7177 35.151 25.3922 35.5014 25.1626C35.8518 24.9329 36.2566 24.8181 36.7159 24.8181C37.071 24.8181 37.3516 24.8773 37.5575 24.9957C37.7659 25.1117 37.9245 25.2443 38.0334 25.3934C38.1446 25.5402 38.2311 25.6609 38.2926 25.7556H38.3636V23.071H39.2017V30.3437H38.392V29.5056H38.2926C38.2311 29.6051 38.1435 29.7305 38.0298 29.882C37.9162 30.0312 37.754 30.1649 37.5433 30.2833C37.3326 30.3993 37.0521 30.4573 36.7017 30.4573ZM36.8153 29.7045C37.1515 29.7045 37.4356 29.6169 37.6676 29.4417C37.8996 29.2641 38.076 29.0191 38.1967 28.7066C38.3175 28.3917 38.3778 28.0283 38.3778 27.6164C38.3778 27.2092 38.3187 26.8529 38.2003 26.5475C38.0819 26.2398 37.9067 26.0006 37.6747 25.8302C37.4427 25.6574 37.1563 25.571 36.8153 25.571C36.4602 25.571 36.1643 25.6621 35.9276 25.8444C35.6932 26.0243 35.5168 26.2694 35.3984 26.5795C35.2824 26.8872 35.2244 27.2329 35.2244 27.6164C35.2244 28.0047 35.2836 28.3574 35.402 28.6747C35.5227 28.9895 35.7003 29.2405 35.9347 29.4275C36.1714 29.6122 36.465 29.7045 36.8153 29.7045ZM40.853 30.3437V24.8891H41.6626V25.713H41.7195C41.8189 25.4431 41.9988 25.2241 42.2592 25.056C42.5196 24.888 42.8132 24.8039 43.1399 24.8039C43.2015 24.8039 43.2784 24.8051 43.3707 24.8075C43.4631 24.8098 43.5329 24.8134 43.5803 24.8181V25.6704C43.5518 25.6633 43.4867 25.6526 43.3849 25.6384C43.2855 25.6219 43.1802 25.6136 43.0689 25.6136C42.8037 25.6136 42.567 25.6692 42.3587 25.7805C42.1527 25.8894 41.9893 26.0409 41.8686 26.235C41.7502 26.4268 41.6911 26.6458 41.6911 26.892V30.3437H40.853ZM46.6946 30.4573C46.169 30.4573 45.7157 30.3413 45.3345 30.1093C44.9557 29.8749 44.6634 29.5482 44.4574 29.1292C44.2538 28.7078 44.152 28.2177 44.152 27.659C44.152 27.1003 44.2538 26.6079 44.4574 26.1818C44.6634 25.7533 44.9498 25.4194 45.3168 25.1803C45.6861 24.9389 46.117 24.8181 46.6094 24.8181C46.8935 24.8181 47.174 24.8655 47.451 24.9602C47.728 25.0549 47.9801 25.2087 48.2074 25.4218C48.4347 25.6325 48.6158 25.9119 48.7507 26.2599C48.8857 26.6079 48.9531 27.0364 48.9531 27.5454V27.9005H44.7486V27.1761H48.1009C48.1009 26.8683 48.0393 26.5937 47.9162 26.3522C47.7955 26.1107 47.6226 25.9202 47.3977 25.7805C47.1752 25.6408 46.9124 25.571 46.6094 25.571C46.2756 25.571 45.9867 25.6538 45.7429 25.8195C45.5014 25.9829 45.3156 26.196 45.1854 26.4587C45.0552 26.7215 44.9901 27.0033 44.9901 27.3039V27.7869C44.9901 28.1988 45.0611 28.548 45.2031 28.8345C45.3475 29.1185 45.5476 29.3352 45.8033 29.4843C46.0589 29.6311 46.3561 29.7045 46.6946 29.7045C46.9148 29.7045 47.1136 29.6737 47.2912 29.6122C47.4711 29.5482 47.6262 29.4535 47.7564 29.3281C47.8866 29.2002 47.9872 29.0416 48.0582 28.8522L48.8679 29.0795C48.7827 29.3541 48.6394 29.5956 48.4382 29.8039C48.237 30.0099 47.9884 30.1709 47.6925 30.2869C47.3965 30.4005 47.0639 30.4573 46.6946 30.4573ZM54.0916 26.1107L53.3388 26.3238C53.2914 26.1983 53.2216 26.0764 53.1293 25.958C53.0393 25.8373 52.9162 25.7379 52.7599 25.6597C52.6037 25.5816 52.4036 25.5426 52.1598 25.5426C51.826 25.5426 51.5478 25.6195 51.3253 25.7734C51.1051 25.9249 50.995 26.1178 50.995 26.3522C50.995 26.5605 51.0708 26.7251 51.2223 26.8458C51.3738 26.9666 51.6106 27.0672 51.9325 27.1477L52.7422 27.3465C53.2299 27.4649 53.5933 27.646 53.8324 27.8899C54.0715 28.1313 54.1911 28.4426 54.1911 28.8238C54.1911 29.1363 54.1011 29.4157 53.9212 29.6619C53.7436 29.9081 53.495 30.1022 53.1754 30.2443C52.8558 30.3863 52.4841 30.4573 52.0604 30.4573C51.504 30.4573 51.0436 30.3366 50.679 30.0951C50.3144 29.8536 50.0836 29.5009 49.9865 29.0369L50.782 28.838C50.8577 29.1316 51.0009 29.3517 51.2116 29.4985C51.4247 29.6453 51.7029 29.7187 52.0462 29.7187C52.4368 29.7187 52.7469 29.6358 52.9766 29.4701C53.2086 29.302 53.3246 29.1008 53.3246 28.8664C53.3246 28.677 53.2583 28.5184 53.1257 28.3906C52.9931 28.2604 52.7895 28.1633 52.5149 28.0994L51.6058 27.8863C51.1063 27.7679 50.7393 27.5845 50.505 27.3359C50.273 27.0849 50.157 26.7712 50.157 26.3948C50.157 26.0871 50.2434 25.8148 50.4162 25.5781C50.5914 25.3413 50.8293 25.1555 51.13 25.0205C51.433 24.8856 51.7763 24.8181 52.1598 24.8181C52.6996 24.8181 53.1233 24.9365 53.4311 25.1732C53.7412 25.41 53.9614 25.7225 54.0916 26.1107ZM59.3162 26.1107L58.5634 26.3238C58.516 26.1983 58.4462 26.0764 58.3539 25.958C58.2639 25.8373 58.1408 25.7379 57.9846 25.6597C57.8283 25.5816 57.6283 25.5426 57.3844 25.5426C57.0506 25.5426 56.7724 25.6195 56.5499 25.7734C56.3297 25.9249 56.2196 26.1178 56.2196 26.3522C56.2196 26.5605 56.2954 26.7251 56.4469 26.8458C56.5984 26.9666 56.8352 27.0672 57.1571 27.1477L57.9668 27.3465C58.4545 27.4649 58.8179 27.646 59.057 27.8899C59.2961 28.1313 59.4157 28.4426 59.4157 28.8238C59.4157 29.1363 59.3257 29.4157 59.1458 29.6619C58.9682 29.9081 58.7196 30.1022 58.4 30.2443C58.0804 30.3863 57.7087 30.4573 57.285 30.4573C56.7286 30.4573 56.2682 30.3366 55.9036 30.0951C55.539 29.8536 55.3082 29.5009 55.2111 29.0369L56.0066 28.838C56.0823 29.1316 56.2256 29.3517 56.4363 29.4985C56.6493 29.6453 56.9275 29.7187 57.2708 29.7187C57.6614 29.7187 57.9715 29.6358 58.2012 29.4701C58.4332 29.302 58.5492 29.1008 58.5492 28.8664C58.5492 28.677 58.4829 28.5184 58.3503 28.3906C58.2177 28.2604 58.0141 28.1633 57.7395 28.0994L56.8304 27.8863C56.3309 27.7679 55.964 27.5845 55.7296 27.3359C55.4976 27.0849 55.3816 26.7712 55.3816 26.3948C55.3816 26.0871 55.468 25.8148 55.6408 25.5781C55.816 25.3413 56.0539 25.1555 56.3546 25.0205C56.6576 24.8856 57.0009 24.8181 57.3844 24.8181C57.9242 24.8181 58.348 24.9365 58.6557 25.1732C58.9658 25.41 59.186 25.7225 59.3162 26.1107ZM63.6033 30.3437V23.071H64.484V29.5624H67.8647V30.3437H63.6033ZM69.1147 30.3437V24.8891H69.9528V30.3437H69.1147ZM69.5408 23.9801C69.3775 23.9801 69.2366 23.9244 69.1183 23.8131C69.0022 23.7019 68.9442 23.5681 68.9442 23.4119C68.9442 23.2556 69.0022 23.1219 69.1183 23.0106C69.2366 22.8993 69.3775 22.8437 69.5408 22.8437C69.7042 22.8437 69.8439 22.8993 69.9599 23.0106C70.0782 23.1219 70.1374 23.2556 70.1374 23.4119C70.1374 23.5681 70.0782 23.7019 69.9599 23.8131C69.8439 23.9244 69.7042 23.9801 69.5408 23.9801ZM72.3258 27.0624V30.3437H71.4877V24.8891H72.2974V25.7414H72.3684C72.4963 25.4644 72.6904 25.2419 72.9508 25.0738C73.2112 24.9033 73.5474 24.8181 73.9593 24.8181C74.3287 24.8181 74.6518 24.8939 74.9288 25.0454C75.2058 25.1945 75.4212 25.4218 75.5751 25.7272C75.729 26.0302 75.8059 26.4138 75.8059 26.8778V30.3437H74.9679V26.9346C74.9679 26.5061 74.8566 26.1723 74.6341 25.9332C74.4115 25.6917 74.1061 25.571 73.7179 25.571C73.4503 25.571 73.2112 25.629 73.0005 25.745C72.7922 25.861 72.6277 26.0302 72.5069 26.2528C72.3862 26.4753 72.3258 26.7452 72.3258 27.0624ZM79.6243 30.4573C79.0987 30.4573 78.6454 30.3413 78.2642 30.1093C77.8854 29.8749 77.593 29.5482 77.3871 29.1292C77.1835 28.7078 77.0817 28.2177 77.0817 27.659C77.0817 27.1003 77.1835 26.6079 77.3871 26.1818C77.593 25.7533 77.8795 25.4194 78.2464 25.1803C78.6158 24.9389 79.0466 24.8181 79.5391 24.8181C79.8232 24.8181 80.1037 24.8655 80.3807 24.9602C80.6577 25.0549 80.9098 25.2087 81.1371 25.4218C81.3643 25.6325 81.5455 25.9119 81.6804 26.2599C81.8153 26.6079 81.8828 27.0364 81.8828 27.5454V27.9005H77.6783V27.1761H81.0305C81.0305 26.8683 80.969 26.5937 80.8459 26.3522C80.7251 26.1107 80.5523 25.9202 80.3274 25.7805C80.1049 25.6408 79.8421 25.571 79.5391 25.571C79.2053 25.571 78.9164 25.6538 78.6726 25.8195C78.4311 25.9829 78.2453 26.196 78.1151 26.4587C77.9848 26.7215 77.9197 27.0033 77.9197 27.3039V27.7869C77.9197 28.1988 77.9908 28.548 78.1328 28.8345C78.2772 29.1185 78.4773 29.3352 78.733 29.4843C78.9886 29.6311 79.2857 29.7045 79.6243 29.7045C79.8445 29.7045 80.0433 29.6737 80.2209 29.6122C80.4008 29.5482 80.5559 29.4535 80.6861 29.3281C80.8163 29.2002 80.9169 29.0416 80.9879 28.8522L81.7976 29.0795C81.7124 29.3541 81.5691 29.5956 81.3679 29.8039C81.1667 30.0099 80.9181 30.1709 80.6222 30.2869C80.3262 30.4005 79.9936 30.4573 79.6243 30.4573ZM88.5128 23.071V30.3437H87.6321V23.9943H87.5895L85.8139 25.1732V24.2783L87.6321 23.071H88.5128Z" fill="#3A3943"/>
<path id="Vector" fill-rule="evenodd" clip-rule="evenodd" d="M183.668 28.4398C183.583 28.5243 183.469 28.5718 183.349 28.5718C183.23 28.5718 183.115 28.5243 183.031 28.4398L180.481 25.8905C180.438 25.8489 180.404 25.7992 180.38 25.7442C180.357 25.6892 180.344 25.6301 180.344 25.5702C180.343 25.5104 180.355 25.4511 180.377 25.3957C180.4 25.3403 180.433 25.29 180.476 25.2477C180.518 25.2053 180.568 25.1719 180.624 25.1492C180.679 25.1266 180.738 25.1152 180.798 25.1157C180.858 25.1162 180.917 25.1286 180.972 25.1522C181.027 25.1759 181.077 25.2102 181.119 25.2532L183.349 27.484L185.58 25.2532C185.665 25.1712 185.779 25.1257 185.897 25.1268C186.015 25.1278 186.128 25.1752 186.212 25.2587C186.295 25.3423 186.343 25.4553 186.344 25.5735C186.345 25.6916 186.299 25.8055 186.217 25.8905L183.668 28.4398Z" fill="#3A3943"/>
</g>
<g id="content_2">
<path d="M17.9375 48.0585H189.312C192.387 48.0585 194.879 50.5506 194.879 53.6249V71.4374C194.879 74.5116 192.387 77.0038 189.312 77.0038H17.9375C14.8633 77.0038 12.3711 74.5116 12.3711 71.4374V53.6249C12.3711 50.5506 14.8633 48.0585 17.9375 48.0585Z" stroke="#E2E2E6" stroke-width="0.742185"/>
<path id="Locality" d="M21.7869 66.0311V58.7583H22.6676V65.2498H26.0483V66.0311H21.7869ZM29.5142 66.1447C29.0218 66.1447 28.5897 66.0275 28.218 65.7931C27.8487 65.5588 27.5599 65.2309 27.3516 64.8095C27.1456 64.3881 27.0426 63.8957 27.0426 63.3322C27.0426 62.764 27.1456 62.268 27.3516 61.8443C27.5599 61.4205 27.8487 61.0914 28.218 60.8571C28.5897 60.6227 29.0218 60.5055 29.5142 60.5055C30.0066 60.5055 30.4375 60.6227 30.8068 60.8571C31.1785 61.0914 31.4673 61.4205 31.6733 61.8443C31.8816 62.268 31.9858 62.764 31.9858 63.3322C31.9858 63.8957 31.8816 64.3881 31.6733 64.8095C31.4673 65.2309 31.1785 65.5588 30.8068 65.7931C30.4375 66.0275 30.0066 66.1447 29.5142 66.1447ZM29.5142 65.3919C29.8883 65.3919 30.196 65.296 30.4375 65.1042C30.679 64.9125 30.8577 64.6603 30.9737 64.3478C31.0897 64.0353 31.1477 63.6968 31.1477 63.3322C31.1477 62.9676 31.0897 62.6279 30.9737 62.313C30.8577 61.9982 30.679 61.7437 30.4375 61.5495C30.196 61.3554 29.8883 61.2583 29.5142 61.2583C29.1402 61.2583 28.8324 61.3554 28.5909 61.5495C28.3494 61.7437 28.1707 61.9982 28.0547 62.313C27.9387 62.6279 27.8807 62.9676 27.8807 63.3322C27.8807 63.6968 27.9387 64.0353 28.0547 64.3478C28.1707 64.6603 28.3494 64.9125 28.5909 65.1042C28.8324 65.296 29.1402 65.3919 29.5142 65.3919ZM35.481 66.1447C34.9696 66.1447 34.5293 66.024 34.16 65.7825C33.7907 65.541 33.5066 65.2084 33.3077 64.7846C33.1088 64.3608 33.0094 63.8767 33.0094 63.3322C33.0094 62.7782 33.1112 62.2894 33.3148 61.8656C33.5208 61.4394 33.8072 61.1068 34.1742 60.8677C34.5435 60.6262 34.9744 60.5055 35.4668 60.5055C35.8503 60.5055 36.196 60.5765 36.5037 60.7186C36.8115 60.8606 37.0636 61.0595 37.2601 61.3152C37.4566 61.5708 37.5785 61.8691 37.6259 62.21H36.7878C36.7239 61.9615 36.5819 61.7413 36.3617 61.5495C36.1439 61.3554 35.8503 61.2583 35.481 61.2583C35.1543 61.2583 34.8678 61.3436 34.6216 61.514C34.3778 61.6821 34.1872 61.92 34.0499 62.2278C33.915 62.5332 33.8475 62.8919 33.8475 63.3038C33.8475 63.7252 33.9138 64.0921 34.0463 64.4046C34.1813 64.7171 34.3707 64.9598 34.6145 65.1326C34.8607 65.3055 35.1496 65.3919 35.481 65.3919C35.6988 65.3919 35.8965 65.354 36.074 65.2782C36.2516 65.2025 36.4019 65.0936 36.525 64.9515C36.6481 64.8095 36.7357 64.639 36.7878 64.4402H37.6259C37.5785 64.7621 37.4614 65.0521 37.2743 65.3102C37.0897 65.5659 36.8446 65.7695 36.5392 65.921C36.2362 66.0701 35.8835 66.1447 35.481 66.1447ZM40.4561 66.1589C40.1105 66.1589 39.7968 66.0938 39.5151 65.9636C39.2334 65.831 39.0096 65.6404 38.8439 65.3919C38.6782 65.1409 38.5953 64.8379 38.5953 64.4828C38.5953 64.1703 38.6569 63.917 38.78 63.7228C38.9031 63.5263 39.0676 63.3724 39.2736 63.2612C39.4796 63.1499 39.7069 63.0671 39.9554 63.0126C40.2064 62.9558 40.4585 62.9108 40.7118 62.8777C41.0433 62.835 41.312 62.8031 41.5179 62.7818C41.7263 62.7581 41.8778 62.719 41.9725 62.6646C42.0695 62.6101 42.1181 62.5154 42.1181 62.3805V62.3521C42.1181 62.0017 42.0222 61.7295 41.8304 61.5353C41.641 61.3412 41.3534 61.2441 40.9675 61.2441C40.5674 61.2441 40.2537 61.3317 40.0265 61.5069C39.7992 61.6821 39.6394 61.8691 39.5471 62.068L38.7516 61.7839C38.8936 61.4525 39.083 61.1944 39.3198 61.0098C39.5589 60.8227 39.8193 60.6925 40.101 60.6191C40.3851 60.5434 40.6645 60.5055 40.9391 60.5055C41.1143 60.5055 41.3155 60.5268 41.5428 60.5694C41.7724 60.6097 41.9938 60.6937 42.2069 60.8215C42.4223 60.9494 42.601 61.1423 42.7431 61.4004C42.8851 61.6584 42.9561 62.0041 42.9561 62.4373V66.0311H42.1181V65.2924H42.0755C42.0186 65.4108 41.9239 65.5375 41.7914 65.6724C41.6588 65.8073 41.4824 65.9222 41.2623 66.0169C41.0421 66.1116 40.7734 66.1589 40.4561 66.1589ZM40.584 65.4061C40.9154 65.4061 41.1948 65.341 41.4221 65.2108C41.6517 65.0805 41.8245 64.9125 41.9405 64.7065C42.0589 64.5005 42.1181 64.2839 42.1181 64.0566V63.2896C42.0826 63.3322 42.0044 63.3713 41.8837 63.4068C41.7653 63.4399 41.628 63.4695 41.4718 63.4956C41.3179 63.5192 41.1676 63.5405 41.0208 63.5595C40.8764 63.576 40.7592 63.5903 40.6692 63.6021C40.4514 63.6305 40.2478 63.6767 40.0584 63.7406C39.8714 63.8021 39.7199 63.8957 39.6039 64.0211C39.4902 64.1442 39.4334 64.3123 39.4334 64.5254C39.4334 64.8166 39.5411 65.0367 39.7566 65.1859C39.9744 65.3327 40.2502 65.4061 40.584 65.4061ZM45.3239 58.7583V66.0311H44.4858V58.7583H45.3239ZM46.8588 66.0311V60.5765H47.6969V66.0311H46.8588ZM47.285 59.6674C47.1216 59.6674 46.9808 59.6118 46.8624 59.5005C46.7464 59.3893 46.6884 59.2555 46.6884 59.0992C46.6884 58.943 46.7464 58.8092 46.8624 58.698C46.9808 58.5867 47.1216 58.5311 47.285 58.5311C47.4483 58.5311 47.588 58.5867 47.704 58.698C47.8224 58.8092 47.8816 58.943 47.8816 59.0992C47.8816 59.2555 47.8224 59.3893 47.704 59.5005C47.588 59.6118 47.4483 59.6674 47.285 59.6674ZM51.604 60.5765V61.2867H48.7773V60.5765H51.604ZM49.6012 59.2697H50.4393V64.4686C50.4393 64.7053 50.4736 64.8829 50.5423 65.0012C50.6133 65.1172 50.7032 65.1954 50.8121 65.2356C50.9234 65.2735 51.0406 65.2924 51.1637 65.2924C51.256 65.2924 51.3318 65.2877 51.391 65.2782C51.4502 65.2664 51.4975 65.2569 51.533 65.2498L51.7035 66.0027C51.6467 66.024 51.5674 66.0453 51.4656 66.0666C51.3638 66.0903 51.2347 66.1021 51.0785 66.1021C50.8417 66.1021 50.6097 66.0512 50.3825 65.9494C50.1576 65.8476 49.9705 65.6925 49.8214 65.4842C49.6746 65.2759 49.6012 65.0131 49.6012 64.6958V59.2697ZM53.4045 68.0765C53.2624 68.0765 53.1358 68.0647 53.0245 68.041C52.9132 68.0197 52.8363 67.9984 52.7937 67.9771L53.0067 67.2385C53.2103 67.2905 53.3903 67.3095 53.5465 67.2953C53.7028 67.2811 53.8413 67.2112 53.962 67.0858C54.0851 66.9626 54.1976 66.7626 54.2994 66.4856L54.4556 66.0595L52.4386 60.5765H53.3477L54.8533 64.9231H54.9102L56.4158 60.5765H57.3249L55.0096 66.8265C54.9054 67.1082 54.7764 67.3414 54.6225 67.5261C54.4686 67.7131 54.2899 67.8516 54.0863 67.9416C53.8851 68.0315 53.6578 68.0765 53.4045 68.0765Z" fill="#3A3943"/>
<path id="Vector_2" fill-rule="evenodd" clip-rule="evenodd" d="M183.668 64.1272C183.583 64.2117 183.469 64.2591 183.349 64.2591C183.23 64.2591 183.115 64.2117 183.031 64.1272L180.481 61.5778C180.438 61.5363 180.404 61.4865 180.38 61.4316C180.357 61.3766 180.344 61.3174 180.344 61.2576C180.343 61.1978 180.355 61.1384 180.377 61.083C180.4 61.0277 180.433 60.9773 180.476 60.935C180.518 60.8927 180.568 60.8593 180.624 60.8366C180.679 60.8139 180.738 60.8025 180.798 60.8031C180.858 60.8036 180.917 60.816 180.972 60.8396C181.027 60.8632 181.077 60.8976 181.119 60.9406L183.349 63.1714L185.58 60.9406C185.665 60.8585 185.779 60.8131 185.897 60.8141C186.015 60.8152 186.128 60.8626 186.212 60.9461C186.295 61.0297 186.343 61.1427 186.344 61.2609C186.345 61.379 186.299 61.4928 186.217 61.5778L183.668 64.1272Z" fill="#3A3943"/>
</g>
<g id="content_3">
<path d="M17.9375 83.7458H189.312C192.387 83.7458 194.879 86.238 194.879 89.3123V107.125C194.879 110.199 192.387 112.691 189.312 112.691H17.9375C14.8633 112.691 12.3711 110.199 12.3711 107.125V89.3123C12.3711 86.238 14.8633 83.7458 17.9375 83.7458Z" stroke="#E2E2E6" stroke-width="0.742185"/>
<path id="State" d="M25.7642 96.2639C25.7216 95.9041 25.5488 95.6247 25.2457 95.4258C24.9427 95.227 24.571 95.1275 24.1307 95.1275C23.8087 95.1275 23.527 95.1796 23.2855 95.2838C23.0464 95.388 22.8594 95.5312 22.7244 95.7135C22.5919 95.8958 22.5256 96.1029 22.5256 96.3349C22.5256 96.5291 22.5717 96.696 22.6641 96.8356C22.7588 96.9729 22.8795 97.0878 23.0263 97.1801C23.1731 97.2701 23.3269 97.3446 23.4879 97.4038C23.6489 97.4606 23.7969 97.5068 23.9318 97.5423L24.6705 97.7412C24.8598 97.7909 25.0705 97.8595 25.3026 97.9471C25.5369 98.0347 25.7607 98.1543 25.9737 98.3058C26.1892 98.455 26.3667 98.6467 26.5064 98.8811C26.6461 99.1155 26.7159 99.4031 26.7159 99.744C26.7159 100.137 26.6129 100.492 26.407 100.809C26.2034 101.127 25.9051 101.379 25.5121 101.566C25.1214 101.753 24.6468 101.846 24.0881 101.846C23.5672 101.846 23.1162 101.762 22.7351 101.594C22.3563 101.426 22.058 101.192 21.8402 100.891C21.6248 100.59 21.5028 100.241 21.4744 99.8434H22.3835C22.4072 100.118 22.4995 100.345 22.6605 100.525C22.8239 100.703 23.0298 100.835 23.2784 100.923C23.5294 101.008 23.7992 101.051 24.0881 101.051C24.4242 101.051 24.7261 100.996 24.9936 100.887C25.2611 100.776 25.473 100.622 25.6293 100.426C25.7855 100.227 25.8636 99.995 25.8636 99.7298C25.8636 99.4883 25.7962 99.2918 25.6612 99.1403C25.5263 98.9888 25.3487 98.8657 25.1286 98.771C24.9084 98.6763 24.6705 98.5934 24.4148 98.5224L23.5199 98.2667C22.9517 98.1034 22.5019 97.8702 22.1705 97.5672C21.839 97.2641 21.6733 96.8676 21.6733 96.3775C21.6733 95.9703 21.7834 95.6152 22.0036 95.3122C22.2261 95.0068 22.5244 94.7701 22.8984 94.602C23.2749 94.4315 23.6951 94.3463 24.1591 94.3463C24.6278 94.3463 25.0445 94.4303 25.4091 94.5984C25.7737 94.7641 26.0625 94.9914 26.2756 95.2802C26.491 95.5691 26.6046 95.8969 26.6165 96.2639H25.7642ZM30.4224 96.2639V96.9741H27.5957V96.2639H30.4224ZM28.4196 94.9571H29.2576V100.156C29.2576 100.393 29.292 100.57 29.3606 100.689C29.4316 100.805 29.5216 100.883 29.6305 100.923C29.7418 100.961 29.859 100.98 29.9821 100.98C30.0744 100.98 30.1502 100.975 30.2093 100.966C30.2685 100.954 30.3159 100.944 30.3514 100.937L30.5218 101.69C30.465 101.711 30.3857 101.733 30.2839 101.754C30.1821 101.778 30.0531 101.789 29.8968 101.789C29.6601 101.789 29.4281 101.739 29.2008 101.637C28.9759 101.535 28.7889 101.38 28.6397 101.172C28.493 100.963 28.4196 100.7 28.4196 100.383V94.9571ZM33.2882 101.846C32.9425 101.846 32.6288 101.781 32.3471 101.651C32.0654 101.518 31.8417 101.328 31.676 101.079C31.5102 100.828 31.4274 100.525 31.4274 100.17C31.4274 99.8576 31.4889 99.6043 31.612 99.4102C31.7351 99.2137 31.8997 99.0598 32.1056 98.9486C32.3116 98.8373 32.5389 98.7544 32.7875 98.7C33.0384 98.6432 33.2905 98.5982 33.5439 98.565C33.8753 98.5224 34.144 98.4905 34.35 98.4692C34.5583 98.4455 34.7098 98.4064 34.8045 98.352C34.9016 98.2975 34.9501 98.2028 34.9501 98.0679V98.0395C34.9501 97.6891 34.8542 97.4168 34.6625 97.2227C34.4731 97.0286 34.1854 96.9315 33.7995 96.9315C33.3994 96.9315 33.0858 97.0191 32.8585 97.1943C32.6312 97.3695 32.4714 97.5565 32.3791 97.7554L31.5836 97.4713C31.7257 97.1398 31.9151 96.8818 32.1518 96.6971C32.3909 96.5101 32.6513 96.3799 32.9331 96.3065C33.2172 96.2308 33.4965 96.1929 33.7711 96.1929C33.9463 96.1929 34.1475 96.2142 34.3748 96.2568C34.6045 96.297 34.8258 96.3811 35.0389 96.5089C35.2543 96.6368 35.4331 96.8297 35.5751 97.0878C35.7172 97.3458 35.7882 97.6915 35.7882 98.1247V101.718H34.9501V100.98H34.9075C34.8507 101.098 34.756 101.225 34.6234 101.36C34.4908 101.495 34.3145 101.61 34.0943 101.704C33.8741 101.799 33.6054 101.846 33.2882 101.846ZM33.416 101.093C33.7475 101.093 34.0268 101.028 34.2541 100.898C34.4837 100.768 34.6565 100.6 34.7725 100.394C34.8909 100.188 34.9501 99.9713 34.9501 99.744V98.977C34.9146 99.0196 34.8365 99.0586 34.7157 99.0942C34.5974 99.1273 34.46 99.1569 34.3038 99.1829C34.1499 99.2066 33.9996 99.2279 33.8528 99.2469C33.7084 99.2634 33.5912 99.2776 33.5012 99.2895C33.2834 99.3179 33.0798 99.364 32.8904 99.428C32.7034 99.4895 32.5519 99.583 32.4359 99.7085C32.3223 99.8316 32.2654 99.9997 32.2654 100.213C32.2654 100.504 32.3732 100.724 32.5886 100.873C32.8064 101.02 33.0822 101.093 33.416 101.093ZM39.69 96.2639V96.9741H36.8633V96.2639H39.69ZM37.6871 94.9571H38.5252V100.156C38.5252 100.393 38.5595 100.57 38.6282 100.689C38.6992 100.805 38.7892 100.883 38.8981 100.923C39.0094 100.961 39.1265 100.98 39.2496 100.98C39.342 100.98 39.4177 100.975 39.4769 100.966C39.5361 100.954 39.5835 100.944 39.619 100.937L39.7894 101.69C39.7326 101.711 39.6533 101.733 39.5515 101.754C39.4497 101.778 39.3207 101.789 39.1644 101.789C38.9277 101.789 38.6957 101.739 38.4684 101.637C38.2435 101.535 38.0565 101.38 37.9073 101.172C37.7605 100.963 37.6871 100.7 37.6871 100.383V94.9571ZM43.179 101.832C42.6534 101.832 42.2 101.716 41.8189 101.484C41.4401 101.25 41.1477 100.923 40.9418 100.504C40.7382 100.083 40.6364 99.5925 40.6364 99.0338C40.6364 98.4751 40.7382 97.9826 40.9418 97.5565C41.1477 97.128 41.4342 96.7942 41.8011 96.5551C42.1705 96.3136 42.6013 96.1929 43.0938 96.1929C43.3778 96.1929 43.6584 96.2402 43.9354 96.3349C44.2124 96.4296 44.4645 96.5835 44.6918 96.7966C44.919 97.0073 45.1001 97.2866 45.2351 97.6346C45.37 97.9826 45.4375 98.4112 45.4375 98.9201V99.2753H41.233V98.5508H44.5852C44.5852 98.2431 44.5237 97.9684 44.4006 97.727C44.2798 97.4855 44.107 97.2949 43.8821 97.1552C43.6596 97.0156 43.3968 96.9457 43.0938 96.9457C42.7599 96.9457 42.4711 97.0286 42.2273 97.1943C41.9858 97.3576 41.8 97.5707 41.6697 97.8335C41.5395 98.0963 41.4744 98.378 41.4744 98.6787V99.1616C41.4744 99.5736 41.5455 99.9228 41.6875 100.209C41.8319 100.493 42.032 100.71 42.2876 100.859C42.5433 101.006 42.8404 101.079 43.179 101.079C43.3991 101.079 43.598 101.048 43.7756 100.987C43.9555 100.923 44.1106 100.828 44.2408 100.703C44.371 100.575 44.4716 100.416 44.5426 100.227L45.3523 100.454C45.267 100.729 45.1238 100.97 44.9226 101.179C44.7214 101.385 44.4728 101.546 44.1768 101.662C43.8809 101.775 43.5483 101.832 43.179 101.832Z" fill="#3A3943"/>
<path id="Vector_3" fill-rule="evenodd" clip-rule="evenodd" d="M183.668 99.8146C183.583 99.8991 183.469 99.9465 183.349 99.9465C183.23 99.9465 183.115 99.8991 183.031 99.8146L180.481 97.2652C180.438 97.2236 180.404 97.1739 180.38 97.1189C180.357 97.064 180.344 97.0048 180.344 96.945C180.343 96.8851 180.355 96.8258 180.377 96.7704C180.4 96.715 180.433 96.6647 180.476 96.6224C180.518 96.5801 180.568 96.5466 180.624 96.524C180.679 96.5013 180.738 96.4899 180.798 96.4904C180.858 96.491 180.917 96.5034 180.972 96.527C181.027 96.5506 181.077 96.585 181.119 96.628L183.349 98.8587L185.58 96.628C185.665 96.5459 185.779 96.5005 185.897 96.5015C186.015 96.5025 186.128 96.5499 186.212 96.6335C186.295 96.717 186.343 96.8301 186.344 96.9482C186.345 97.0664 186.299 97.1802 186.217 97.2652L183.668 99.8146Z" fill="#3A3943"/>
</g>
</g>
</g>
</svg>
