<svg width="21" height="21" viewBox="0 0 21 21" fill="none" xmlns="http://www.w3.org/2000/svg">
<rect width="20.9655" height="20.9655" rx="4.659" fill="#E5E5FE"/>
<path d="M14.2302 8.64995C15.1438 8.84514 17.4535 9.30599 17.4887 10.3389C17.4128 11.1331 16.0275 11.5479 14.3576 11.7594C14.382 11.6943 14.4037 11.6292 14.4227 11.5615C14.9676 11.4422 15.5125 11.3066 16.0303 11.1033C16.3122 10.9949 17.2881 10.6181 16.9818 10.2169C16.7839 9.95661 16.4206 9.82649 16.1224 9.73161C15.6372 9.57437 15.1302 9.48762 14.626 9.41985C14.5799 9.41443 14.5338 9.4063 14.4877 9.40087C14.3441 9.3819 14.195 9.36563 14.0432 9.34937C13.791 9.32226 13.5362 9.39274 13.3329 9.54455C13.097 9.71805 12.9425 9.99185 12.9181 10.2846C12.9019 10.4663 12.9371 10.6533 13.0157 10.8187C13.1594 11.1223 13.2977 11.4314 13.4278 11.7431C13.444 11.7783 13.4603 11.8163 13.4739 11.8515C13.585 12.1226 13.6934 12.3937 13.7938 12.6675C13.8046 12.6946 13.8154 12.7245 13.829 12.757C14.1651 13.6814 15.1248 16.8396 13.4088 16.414C12.9507 16.2432 12.5982 15.9071 12.2648 15.5818C11.8988 15.2104 11.5627 14.8146 11.2455 14.4052C11.2916 14.3971 11.3377 14.389 11.3837 14.3781C11.7579 14.7983 12.1536 15.2104 12.5928 15.5628C12.8368 15.758 13.6609 16.4113 13.8724 15.945C14.0215 15.6197 13.9212 15.1887 13.8425 14.8579C13.7368 14.4161 13.5796 13.985 13.4115 13.5648C13.3817 13.4916 13.3519 13.4157 13.3221 13.3425C13.2543 13.1772 13.1919 13.0335 13.1486 12.9251C13.0591 12.7001 12.891 12.3449 12.666 11.9085C12.6579 11.8895 12.647 11.8678 12.6362 11.8461C12.5494 11.678 12.4546 11.4964 12.3543 11.3066C12.3407 11.2823 12.3055 11.2823 12.2919 11.3066C12.1753 11.51 12.0533 11.7133 11.9259 11.9139C11.9205 11.9247 11.9151 11.9329 11.9097 11.9437C11.5518 12.5211 11.1642 13.0769 10.7521 13.6191C10.7358 13.6407 10.7196 13.6597 10.706 13.6814C10.5244 13.92 10.3373 14.1531 10.1449 14.3862C10.1259 14.4079 10.1042 14.435 10.0825 14.4649C9.44273 15.2239 7.19538 17.6258 6.70742 15.9288C6.62338 15.4462 6.73995 14.9718 6.85652 14.5191C6.99477 14.0149 7.17098 13.5269 7.36617 13.0471C7.39599 13.0823 7.42581 13.1203 7.45834 13.1555C7.30382 13.6218 7.17369 14.0935 7.08152 14.5679C7.00833 14.9881 6.94326 15.4354 7.04628 15.8447C7.31737 16.7258 8.70807 15.1182 9.32887 14.3185C9.45628 14.1558 9.55117 14.023 9.59996 13.9552C9.75177 13.76 9.97949 13.4347 10.2506 13.0145C10.2587 13.0037 10.2668 12.9928 10.275 12.9793C10.4675 12.6811 10.6789 12.3395 10.9066 11.9681C11.0991 11.6482 11.2997 11.3066 11.503 10.9515C11.7063 10.5964 11.7091 10.1382 11.4976 9.77769C11.2889 9.42256 10.9066 9.20027 10.4946 9.20298C10.0825 9.20569 9.3099 9.21924 9.30718 9.21924C9.30718 9.21924 8.47493 9.24635 8.12251 9.26533C8.10083 9.26533 8.07914 9.26804 8.05745 9.27075C7.56406 9.30057 7.17369 9.3331 6.93242 9.37105C6.81856 9.38732 6.66404 9.4063 6.48783 9.43069C5.97005 9.50389 5.45226 9.59064 4.95074 9.73974C4.62001 9.83733 4.14018 9.9539 3.95855 10.2819C3.80402 10.5611 4.18084 10.8078 4.39229 10.9325C5.04562 11.3148 5.83721 11.4829 6.57187 11.6292C6.58542 11.6753 6.60169 11.7214 6.61795 11.7675C6.10559 11.6997 5.59594 11.6103 5.089 11.4829C4.63899 11.3582 4.17 11.2253 3.79047 10.9163C2.55971 9.65299 5.74504 8.8858 6.7291 8.70688C6.76434 8.70146 6.79688 8.69604 6.82941 8.69061C7.11947 8.63911 7.40954 8.59302 7.69961 8.55507C7.73756 8.54693 7.77552 8.54422 7.81347 8.5388C8.48035 8.44934 9.15266 8.3897 9.82497 8.36259C9.83581 8.36259 9.84395 8.35988 9.8575 8.36259C10.0906 8.35175 10.3238 8.34633 10.5569 8.34633C10.584 8.34633 10.6003 8.31651 10.584 8.29482C10.4756 8.12403 10.3672 7.95595 10.256 7.79059C10.2425 7.77432 10.2289 7.75535 10.2181 7.73637C9.68942 6.94749 9.14724 6.22097 8.65385 5.66523C8.49391 5.48631 8.32041 5.32094 8.13878 5.161C7.92733 4.97395 7.65352 4.71912 7.36617 4.6893C7.03273 4.65406 6.99477 5.07696 6.98935 5.32365C6.97308 6.08813 7.23333 6.87701 7.46647 7.5954C7.42039 7.64691 7.3743 7.69842 7.33093 7.74993C6.66946 6.2047 6.32518 4.79774 6.97309 4.33146C7.88666 3.84349 9.44544 5.59475 10.0798 6.29145C10.2452 6.45682 10.3916 6.63845 10.5352 6.82279L10.969 7.38395C11.0801 7.52763 11.2807 7.82854 11.3892 7.97764C11.5084 8.14301 11.6711 8.27855 11.8663 8.34633C12.3814 8.52254 12.9235 8.27313 13.1296 7.80143C13.1919 7.66047 13.2516 7.5195 13.3085 7.38395C13.5389 6.8255 13.7558 6.24808 13.8561 5.65168C13.8968 5.40227 13.9754 5.03901 13.8371 4.80858C13.6772 4.53478 13.3112 4.72183 13.1025 4.8384C12.4437 5.2098 11.9015 5.81704 11.4 6.37549C11.3322 6.35923 11.2645 6.34567 11.194 6.33483C12.197 4.9631 13.2434 3.96006 13.97 4.28808C14.8483 4.83298 14.1082 7.06135 13.8263 7.95867C13.8154 7.98849 13.8073 8.01559 13.7992 8.0427C13.745 8.19994 13.688 8.35446 13.6284 8.50898C13.6203 8.52796 13.6284 8.54693 13.6501 8.54965C13.8344 8.57675 14.2004 8.64453 14.2302 8.64995Z" fill="#4D4DFF"/>
</svg>
